<mxfile host="app.diagrams.net" modified="2023-05-29T06:09:03.314Z" agent="Mozilla/5.0 (X11; Linux x86_64) AppleWebKit/537.36 (KHTML, like Gecko) Chrome/113.0.0.0 Safari/537.36" etag="uesCLKlruq81c3ZI6ay4" version="21.3.5" type="device">
  <diagram name="Page-1" id="LRHq_mTL-jd3fjSjlw0S">
    <mxGraphModel dx="2162" dy="773" grid="1" gridSize="10" guides="1" tooltips="1" connect="1" arrows="1" fold="1" page="1" pageScale="1" pageWidth="850" pageHeight="1100" math="0" shadow="0">
      <root>
        <mxCell id="0" />
        <mxCell id="1" parent="0" />
        <mxCell id="cU3eEYtOXW0r3D3nBDdk-21" value="" style="group" vertex="1" connectable="0" parent="1">
          <mxGeometry x="480" y="240" width="400" height="394" as="geometry" />
        </mxCell>
        <mxCell id="cU3eEYtOXW0r3D3nBDdk-6" value="" style="rounded=1;whiteSpace=wrap;html=1;" vertex="1" parent="cU3eEYtOXW0r3D3nBDdk-21">
          <mxGeometry width="400" height="378.8461538461538" as="geometry" />
        </mxCell>
        <mxCell id="cU3eEYtOXW0r3D3nBDdk-12" value="&lt;font style=&quot;font-size: 20px;&quot;&gt;Laura VM&lt;br&gt;IP: 10.43.101.161&lt;br&gt;&lt;/font&gt;" style="text;html=1;strokeColor=none;fillColor=none;align=center;verticalAlign=middle;whiteSpace=wrap;rounded=0;" vertex="1" parent="cU3eEYtOXW0r3D3nBDdk-21">
          <mxGeometry x="110.63829787234043" y="21.644827498083313" width="195.74468085106383" height="26.43112701252236" as="geometry" />
        </mxCell>
        <mxCell id="cU3eEYtOXW0r3D3nBDdk-79" value="" style="group" vertex="1" connectable="0" parent="cU3eEYtOXW0r3D3nBDdk-21">
          <mxGeometry x="29.99999999999997" y="210.0032545361615" width="170.21468085106386" height="154.14482238691537" as="geometry" />
        </mxCell>
        <mxCell id="cU3eEYtOXW0r3D3nBDdk-7" value="" style="rounded=1;whiteSpace=wrap;html=1;" vertex="1" parent="cU3eEYtOXW0r3D3nBDdk-79">
          <mxGeometry x="0.001914893617048108" width="170.2127659574468" height="149.77638640429336" as="geometry" />
        </mxCell>
        <mxCell id="cU3eEYtOXW0r3D3nBDdk-9" value="&lt;font style=&quot;font-size: 18px;&quot;&gt;ServicesDB&lt;/font&gt;" style="image;aspect=fixed;perimeter=ellipsePerimeter;html=1;align=center;shadow=0;dashed=0;spacingTop=3;image=img/lib/active_directory/databases.svg;" vertex="1" parent="cU3eEYtOXW0r3D3nBDdk-79">
          <mxGeometry x="46.44276595744684" y="23.408916432404805" width="77.32558139534883" height="75.77906976744185" as="geometry" />
        </mxCell>
        <mxCell id="cU3eEYtOXW0r3D3nBDdk-45" value="" style="shape=image;html=1;verticalAlign=top;verticalLabelPosition=bottom;labelBackgroundColor=#ffffff;imageAspect=0;aspect=fixed;image=https://cdn1.iconfinder.com/data/icons/unicons-line-vol-3/24/docker-128.png" vertex="1" parent="cU3eEYtOXW0r3D3nBDdk-79">
          <mxGeometry y="105.43603117812417" width="45" height="45" as="geometry" />
        </mxCell>
        <mxCell id="cU3eEYtOXW0r3D3nBDdk-78" value="" style="group" vertex="1" connectable="0" parent="cU3eEYtOXW0r3D3nBDdk-21">
          <mxGeometry x="209.99531914893618" y="210.0046281625351" width="170.21276595744683" height="154.14482238691537" as="geometry" />
        </mxCell>
        <mxCell id="cU3eEYtOXW0r3D3nBDdk-8" value="" style="rounded=1;whiteSpace=wrap;html=1;" vertex="1" parent="cU3eEYtOXW0r3D3nBDdk-78">
          <mxGeometry width="170.2127659574468" height="149.77638640429336" as="geometry" />
        </mxCell>
        <mxCell id="cU3eEYtOXW0r3D3nBDdk-11" value="&lt;font style=&quot;font-size: 18px;&quot;&gt;AuthDB&lt;/font&gt;" style="image;aspect=fixed;perimeter=ellipsePerimeter;html=1;align=center;shadow=0;dashed=0;spacingTop=3;image=img/lib/active_directory/databases.svg;" vertex="1" parent="cU3eEYtOXW0r3D3nBDdk-78">
          <mxGeometry x="46.4408510638298" y="23.408916432404805" width="77.32558139534883" height="75.77906976744185" as="geometry" />
        </mxCell>
        <mxCell id="cU3eEYtOXW0r3D3nBDdk-44" value="" style="shape=image;html=1;verticalAlign=top;verticalLabelPosition=bottom;labelBackgroundColor=#ffffff;imageAspect=0;aspect=fixed;image=https://cdn1.iconfinder.com/data/icons/unicons-line-vol-3/24/docker-128.png" vertex="1" parent="cU3eEYtOXW0r3D3nBDdk-78">
          <mxGeometry x="5.744680851063833" y="105.4360311781242" width="45" height="45" as="geometry" />
        </mxCell>
        <mxCell id="cU3eEYtOXW0r3D3nBDdk-80" value="" style="group" vertex="1" connectable="0" parent="cU3eEYtOXW0r3D3nBDdk-21">
          <mxGeometry x="120" y="60" width="180" height="140" as="geometry" />
        </mxCell>
        <mxCell id="cU3eEYtOXW0r3D3nBDdk-81" value="" style="rounded=1;whiteSpace=wrap;html=1;" vertex="1" parent="cU3eEYtOXW0r3D3nBDdk-80">
          <mxGeometry x="0.0020249772190346596" width="179.99797502278093" height="136.03242568840903" as="geometry" />
        </mxCell>
        <mxCell id="cU3eEYtOXW0r3D3nBDdk-77" value="" style="shape=image;verticalLabelPosition=bottom;labelBackgroundColor=default;verticalAlign=top;aspect=fixed;imageAspect=0;image=data:image/png,iVBORw0KGgoAAAANSUhEUgAABLEAAAU3CAYAAAChIfclAACAAElEQVR42uzd+6uVdf7//8//Mnvv+PwwzLpW7n2tMWlPKSbKxtzmIZNtB8usJBk7OE6JZVmSYyOWJBbWnpIUk/GHDUVFB5IwErKiopBv5A9RIBQkRAyf67ufy8yt7vM6XWut2x3uvN+93zNla12H5+uxnq/n6//8HwAAAAAAAAAAAACoN1ckPTO6Cun8jiS9obNY6u8qlFZ3JKW1XUn3huG//mdnobQ97Eh69g3/3/d1JunhrkLPwc5i+sbwf+ft4b8+Mfy/n+wspKfKJumZYX8ax7NdxdL/m6rD/73fLvr7nP/nhcXSZ+U/Qzj854k/13mH//po/HnD+PMP/3v8q6NYejz+3eLfc/i/c8u5f+/hz6BQ+lt8Hq4KAAAAAACAKtOVdM+OEKajmK78U1Jady6c6flXBDbnw6auJD0+/D+/6kzSH6YbIrWz5WDuXEBXDsjOB2IR7nUV/vqPCMPi848g7IpC6SpXJQAAAAAAaHkiBCmHUuUuodI/O5N0VzmMStL3yh1HSfqDYKlpwq+zw34XIeKwQ8MORsAYXW7R8dZZ6Fmg8wsAAAAAAOSK6JiK4CI6d7qK6bMRapS34p3rjvpN6MPfr4W4Jo6WO72iqy46vIavHXcQAAAAAAComFEDqnPzmXRNsfrdXYX01LmZXz3loCvmel0xY4ZtjAAAAAAAtDsREJzriEkfiS1h5RlTSXpGqMIchly//T6/673fr9VH4toVcgEAAAAA0CKcO6GvtDZmFsV2rt/nTxmCzlYLuX6KLsHycPpi6fHoIBRwAQAAAACQM8odVTEwPUl3xal9v3esmEdF/h5w/T6EfvDcKZfpDZ4aAAAAAADUkOiq6kpKfy/PDIpT/Wz9IysLuM51Jh6O7YlxeqanDAAAAAAAU6Cz0LMghqlHWPX7nKqfBA5kHedvFdOvYmuicAsAAAAAgN+J4dSxDTBOZdNZReY63Drz++mJ/4r71tMLAAAAANCSdCXds0dsBTwhFCBbJtw6ca5rsvT3Kwolw+QBAAAAAE0UWJVnV6WPlE8DTEqnLfTJNtuOeD7YKpRWeyICAAAAAHJBnAzYlXRviOHQw35nEU9ylGDrbFfSc8xWRAAAAABA3YjOivKWwGJ6MjouLNBJTnfGVnRrxiEOtiECAAAAACoiTiXrKJYe/33o+lkLb5K13IYY3VqdhdL22JLsCQwAAAAAGJPY5vN7l9VXFtUkGx5sDT+LOpLSPlsQAQAAAKDN+VNSWvf7LKsfLJhJNkG31nddSTrYWUxv8QQHAAAAgBYlZs50Fkv/HF4ADtkaSLIlQq1CekqnFgAAAAA0OV1/mdETA5PNsyLZTtsPu4rps8PPvRu8BQAAAAAgz8FVUvp7nPY17E8WtCQNiu85Fh2oTj8EAAAAgEaHVoXS6s6k9IqZViQ5Yah1pqvQc9DWQwAAAACoA53FUn9slXF6IElWHGqd6CyUtncUSn/zdgEAAACAKhBzrYYXW+9ZdJJkzQKtn6JLqytJl3vrAAAAAMAkiYHEHUnPvs6kdNrikiTrP0srDsT4U1Ja540EAAAAAJdQHsheTN8oDyK2iCTJHJ14WPosth0aDg8AAACgPUOrQjq/M0l3dRbSUxaJJNk0XVo/RKdsPMO9yQAAAAC0LLFN8PeTBH+yGCTJVgi0Svu6ku7Z3nAAAAAAmp6uQml1V5IO2SZIki0daJ3RoQUAAACg+YKrpPT3rqTnmIUdSbbpSYdJOthZ6FngjQgAAAAgh8FV+khnMT1pAUeSvLRD64oZMwyFBwAAANA4Ooulf8apVRZqJMlJBFrfxSmH3p4AAAAA6hhc6bgiSVYQaMV7pPDXf3irAgAAAKgqXUn3hs4kPWHhRZKsQYfWe3EIiLctAAAAgGkGVzGcPT1ugUWSrFOYdTYGwncUSn/zFgYAAAAwLh3FdOXwAmLIYook2dBAq5Ceiu3r3swAAAAA/qAr6Z5dPgo9fgG3cCJJ5s0kHeoslvq9sQEAAIA2JU6I6kxKpy2QSJJNst3wzLC7vMEBAACANiDmXBnQTpJshWHwsQXemx0AAABoIToLPQuGi/2jw/5m4UOSbLnurEJpu7c9AAAA0MR0FEuPDxf3P1jkkCTbItAqpm90FdL5KgAAAACgKYKrdGVssbCYIUm2cXfWd042BAAAAHLIFUnPjI6ktG+4aP/J4oUkyZGBVumVeE+qFgAAAIAG0lUorTaknSTJSZj0HOtI0htUDwAAAEA9w6ti+mxnkp61KCFJcsqdWafjpF7VBAAAAFAj4tdjs65Ikqza3Kyz8aOQCgMAAACoEl1J+ogTBkmSrGmgdfSKQukqVQcAAAAwRToKpb8NF9SHLSxIkqzv3KzOQs8ClQgAAAAwAZ3F9BaD2kmSbHBnVrH0WUcxXakyAQAAAC7BlkGSJPM5BL4jKa1VqQAAAEB4laSDnUn6m4UCSZK5npl1prNY+qfKBQAAAG1FnDIYMzcsCkiSbL4TDTsLpe2qGQAAALR4eFVa21lMv7IIIElSmAUAAADkjq7CX/9h3hVJksIsAAAAIJd0JD3/iuJWkU+SpDALAAAAyB2GtZMk2b5hVkex9LhqCAAAALnlikLpquHC9agCniRJljuxk/QRFRIAAADyE17NmHFVR5K+rWAnSZKjhFk/dCXdG1RMAAAAaBhdhXR+V9JzTIFOkiQnDrNKp7sKpdUqKAAAANSNzmKpvytJjyvISZLklMOsYvrVcB2xXEUFAACAmoZXw36mACdJklXYZngiurpVWAAAAKgaUWCWC00FN0mSrLIxV1O1BQAAgIroLPQsEF6RJMn6hFk9+1RfAAAAmBLnBrabeUWSJOu+xfBsZ7H0T9UYAAAAxuWKGTOuGi4e31NEkyTJBodZ33UU05WqMwAAAFxGV5IOKZpJkmSuTNLj8SObSg0AAAD/pzMpvaJIJkmSubbQc1DVBgAA0KZ0FdNnFcUkSdK8LAAAAOSSjmLp8SgCFcMkSbIpw6xCeipOUFbVAQAAtCh/SkrrOpPSacUvSZJskc6soyo8AACAFqKrkM7vLKZfKXZJkmQrbjHsStJHVHwAAABNTkeSvq3AJUmS7bDFMH64U/0BAAA0XXjVs09BS5Ik284kHVIJAgAANAFdSfcGQ9tJcvL+OZ2Vzbxmdjavb0HWv2RRNrBqWXbXnQPZ+nW3ZJs3rs2e2HJv9vS2DdnenRuzA3u3ZEf2P5YNvfJk9sHRXX944vU92advPfeH3374Unb6o8Gy33/8cvbz54f+MP76/P9vNEf+fY4P7S7//d88uKP8z4x//n/2bC7/eTZuuD277dYV2cLFC7PeuXPL/w6+T3LkFsPuDSpDAACAPIZX5l6RZNnu3muzBdf3lQOe+9avzrY+dE+2e/v95fDnfPj0xTv7yoHRL18ezv7f/3e0ZYx/nwi/4t8zgq51d99c/iz+74y/CrjYrmHWCVUiAABAjoiTeRSqJFvdCGLmzJ+frbhpSTmcig6pF595uBzYRCdUhFK/fnOkpUKpahmfS4Rbh55/tBzqLV3enxVmXi3YYrsEWb91FkrbVYwAAAANpKNYetzWQZKtZGyJOx9SRSdRhC6xpS4Cqv+d+q9AqorG53nq2P5yCPjU1vXlzjVbEtnqg987Cz0LVJAAAAB1pCtJl3cm6XcKUpLN6JWzesudQDHT6fl/byrPe/r6/Rd0UeXEHz85kL372s7yDLCYCxbdb65btlZnVukV1SQAAEAd6EjStxWgJJvBWXOuKw9Jj+HoMY8qZlFFQCIoaj5jIH0EW9EdF9+prYhsgS2GZzqLpX6VJQAAQA3oKqbPxkwHhSfJPM6qiuHhsQUwOqsirIrQQ/jT2lsRYzh+nJYYHXW6tdi0FnoOqjIBAACqREcxXdmZpD8oNEnmwejAiZlVMRw85lXFsHDbAKlbi83eldWRpDeoOgEAACqgK0mHFJckG9lhtXDxwvJ2wAisYm6V4eqcTrdWzNYyNJ66sgAAAFoyvOre4NRBko04GfCuOwfKA73jRMBfvjwsjGFVjSD0xWceLl9nMeDffcccdmX9oCsLAABg0gFWelwRSbIezutbUO6yOjq4LTv90aCQhXXv1IrtqDFH7bZbV9h+SF1ZAAAAzUJnobTd4HaStTSGr8csq6FXnnRKIHNnzFY78fqebPf2+8tz1/6czhJqscFdWaXTXUn3bFUqAADA70Rx1FlITykWSdYqtHrz4I7szMlXBSVsKmM7a5x0+dTW9eXZbO5pNnCL4S4VKwAAEGAl6aDikGS1jBlDMUA7hrB///HLghC2lNE9eGT/Y+Vr3Dwt1j3IKpY+U7kCAIC2pLPQs6Dcoq4oJFnh6YGx7Sq2X8VsIScHsp3macXWw6e3bdClxXp2ZP0Wh++oZAEAQNvQkZT2KQRJVnKC4KYH1pS3CP78+SGBBjlsdB4e2LulPCDeLC3W2o4kfVtFCwAAWju8KpT+pvuK5HRnW8VcoOg80W1FTjxLK0LejRtuz7p7rxVosVZdWWc6kvQGFS4AAGg5YiCogo/kVLYJDqxalr34zMPZ6Y8GBRNkBdsOjw/tzp7Ycm92zbx5Ai3WoCurtE+lCwAAWoKuv8zo6SymXynySE5kbIG6686B7OjgNtsEyRoZs+Oiq3HO/PkCLRr6DgAAcJ6OYunx8gBQxR3JcYKrNXesLJ+4FlughAxk/fzinX3lwfDz+hYItFiN7YVnO4rpShUwAABoOrqS9LiCjuRYWwXPB1c6rsh8+PX7L5QDLR1arNgkHVQJAwCApiB+getM0p8UcSRHm3EluCKbY8vh1ofuyeIkUM8v2l4IAABakvjlTeFG8tJTBZ//96bs+49fFg6QTTgU/oOju7JND6zJrpzVK9DilLcXdhbTW1TIAAAgV1yR9MwwvJ3keaN7I05Ci3k7ggCyNfz1myPZ0CtPlrcCR2elZx1tLwQAAE2H7iuS5we037d+dfbuazvL3RsW/WTreubkq9mLzzycLVy8UJjFSW4vTE+qmgEAQMPoTNLDijKSsV0wFrPmXJHtOxA+Oi/Nz+Ikthf+1FnoWaCKBgAAdeGKQumq4QLkqEKMbG8LM6/ONm64PTvx+h6LeJJ/zM968+CO7LZbV9huyImGvv9TVQ0AAGoXXs2YcVVHkr6t8CLb29g6dGDvFl1XJMc1DnLYvf3+rHfuXGEWx5qTNaTCBgAAVaUr6Z7dmaTvKbbI9p51FSeTffrWcxbnJKfcnRVz8tbdfbPuLF7ekVVIT6m2AQBAxcS8gq6k55gCi2xfo4Ni786N5QHOFuMkK/XHTw5ke3Y8qDuLl87JOtuVpMtV3wAAYMp0JOkNcXqMoopsXwdWLSvPtXHCIMlazs6KZ41nLi90ZZW2q8QBAMCk6Cqk8zuT9IQiimzfQe2bN64tnzJmkU2ynicbbn3oniyeQZ7FNCcLAAAIr0iO6cxrZpe3DBrUTrKR/vLl4ew/ezZn8/oWCLOcXPiZCh0AAFweXtk2SLatsVA89Pyj2a/fHLGAJpm7QfC2Grb9nKwzcTK2ih0AAOGVziuyjV1x05LyAtFimWTe/eKdfdl961c71bCdLZRWq94BABBekWwjYwEYx9t/+tZzFsYkm87vP345e2rr+uzKWb3CrDa0I+n5l0oeAIB2Ca/+MqOnI0nfVgSR7Rlebdxwe/bthy9ZCJNsmblZvXPnCrMMfAcAAK1GZ5IeVfiQ7RlexUmDpz8atPAl2ZJzs47sf8wQeAPfAQBAS3RfJemgYodsP/+cziofVR9bbyx0SbZDmPXmwR3Z0uX9wqz2Gfj+g0ofAIDW6bzapcAh28/CzKuzJ7bcm/34yQELW5Jt6QdHd2W33bpCmNUeQdbZmPWq8gcAoEnpKJYeL7/QFTZk23VeRXh15uSrFrEkOWwcYLHmjpXCrNYPsn5zciEAAM0WXiWltZ1J6bRihmzPmVe2DZKkMKvNB74/YkUAAEDOiRbqzmL6leKF43XohD6L1guv7lu/2sB2kpxCmGWbYcsHWYNWBwAA5JTOYvqGgoXjzUaaM3++AKsFXXf3zdmpY/stSklSmMXLTi5M37BKAAAgR3QkpX3l/f8KFY7ilbN6s75Fi7P+JYuy6NbxmbSOA6uWZV+8s88ilCSr4InX92TxXPV+ackg66QVAwAADaYr6d5gaDvHsrv32qx/ybLs5ptvLodYPpPWccH1fdm7r+206CTJGp1mGD/8eN+0WJBVSE9ZPQAA0IjOq2K60tB2Tia8Cuf1LVSIt4iz5lyXHXr+0ex/p/5roUmSNXbolSeH36ELvENb6uTC0mkrCQAA6khnkr6nCOFkwqswZmD5bFpjntmeHQ9mv35zxMKSJOto/GgQPx70zp3rfdoyQVb60xWF0lVWFQAA1DK8KpS2Kzw41syrS8OrMLp2fD7Nf+Lg5o1rszMnX7WYJMkGGj8iPP/vTVm8c72fWiLIOhsnelthAABQZTqS9IbhF+13Cg5OpvPqvDOvma3IbnJX3LQk+/r9FyweSTJHxo8K8eOCg1JawxjRYbUBAECV6ErSIQUGJ9t5FQ4MrMoi3PI5Na+xZeXNgzssFkkyx8aPDLfdusL7thWCrKS01qoDAIDKwqtHnDrI0eYixSmDo4VX5wMs2xya1z+ns8y9IskmPMlw4WIHqDS9hb/+wwoEAICphleFdH4c/6uY4KXhRpwwOFZ4Fd60cmUWIZfPqzldv+6W7PRHgxaEJNnEw99t5W/2rYWlx61GAACYJJ1JelgBwUuHek8UXgmwmts4uv340G6LQJJsAX/58nD2xJZ7zctq5oHvhdJ2qxIAAMbrvkpKf7d1kJeGV3Pmzy9vD5xMgBWdWj635uuu27tzo62DJNmi87IGVi3zbm7ekwt3WaEAADBqgJUeVyxwpLPmXFcOpiYKr8Kly28UYDWha+5YaesgSbaBQ688mcVhHd59zWj6rJUKAAAXwqtHFAccaZwoGKHUZMKr8wGW7QpOHSRJ5n+L4dPbNnhnN+ephfusWgAAbc0VM2Zc1VksfaYw4MgTB/uXLJt0eCXAas7toTEjJRYyFnQk2Z5+++FL2W23rvDubjaTdNAKBgDQlnQkPf9SDHCqQ9svNQIvAVbzGMeuf/rWcxZwJMk/thg6xbDJLPQctJIBALQNXX+Z0dNZTL9SBHA6c68EWM07uH3PjgfLx65btJEkR/rz54eyTQ+s8T5vrmHvh61qAAAtTxzTO/zS+83Ln9PdOijAaj5X3LQkO3Vsv4UaSXJcjw/tzub1LfBut7UQAIAcBFjF9KQXPivZOijAar6Q8j97Nuu+IklO2l+/OZLt3n6/04abZth7j2HvAIDWoqvw1394yXPkiXTT2ToowGouB1Yty05/NGhBRpKcltHBG5283qlOLQQAoH4BVtJzzMud4ZWzesunCE43vBJgNU/31YG9WyzASJIVG528Lz7zsK6s5piRtcvKBwDQtHQU05XDL7OfvNQZhWffosUVhVcCrOaZfaX7iiRZbb/98CVdWc2xtfBfVkEAgObrvir0HPQiZyWnDl5qdHAJsPIdVMYv5WZfkSR1ZbV5kFUsPW41BABoCq4olK7qTEqnvcAZBeZ0Tx0UYDWXS5f3O3mQJKkrixe2FhZL/7QyAgDkmnhZdSbpb17cjMHtAwOrqhZg+cU1vydMxulRuq9IkrqyOMqw97VWSACAnAZY6Rte1oyB3tXqvgpjG6LiNJ/OmT8/O/H6HgspkmRD/fr9F4Zrj0VqhdxuLUxXWikBAHJDV9I9uzNJf/CS1pEToUa1wisBVr7duOH27JcvD1s8kSRz05X11Nb1Rg/kdWthoWeBVRMAIAfdV6V/ejHzylm95S1/1Q6woqvL55u/73rolSctmEiSufT40O4sRhp4Z+csxErSszE31+oJANDAAMv2QZ7bUlbN8EqAlV9jgO73H79skUSSzLU/f34ou2/9anVE/oKsn6ygAAB1p+svM3psH2SETNXuvgpjGHx0+/iMDW8nSbISo3NYTZG7IOsHqykAQN2IE0acPshZc66r2smDlwZY3b3XKjZz9l3H1gyLIZJkM3r6o8Fs6fJ+tUWu5mOlp6yqAAB1CLB69nnxtrcxZL2aJw9e6sxrZisyc+Rtt67Izpx81SKIJNkSQ9+923MUZBVLn1ldAQBqRmeSnvDCbW8jYIpZVQKs9tg+uHfnRgsfkmRL+e5rO3V852tr4XtWWQCAqtKVdM8efsGc8aJt70BjXt/CmoVXYWxZ81nnwzjR6cTreyx2SJItaRxQEgeVeOfnxELPQSsuAEBV+FNSWmf+le2Dtdw+GMbphj5r2wdJkqzn9sKnt23I4oc67//G21EsPW7lBQCoCPOvGNv7ajG8faTR4eWzzodRzDt9kCTZTn5wdJdxBnkJspLSWiswAMA0A6z0bS/T9ja6o2oZXoV9ixYrGnNgHD0eM0IsZkiS7bq90OmFuRn23m8lBgCYEp3F9Csv0faefxXhUq0DrNiiqIW/8S5cvLB89LhFDEmynf31myPZ5o1r1SWNH/R+tusvM3qsyAAAE/L7APefvEDNv6p1gLV0+Y0CrBy4ccPt5aLd4oUkyXMeev7RLOohdUJDg6wzVmYAgPEDrEJptQHu7W2cDnjTypU1D7Din6E4bHy33X/2bLZYIUlyFD9967ksTupVMzQwyCqkp6zQAABjdGClj3hZtq/dvdeWO6NqHV6dD7AKM69WFDb4+z4+tNsihSTJcYyTegdWLVOzNLYj6z0rNQDARTiBsL2Heddj6+BII0Dx2Zt/RZJkMxgn9j61db3apaGmz1qxAQDKdBbTN7wYDW6vl7Fd0effONevuyX75cvDFiUkSU7Ro4PbjEJooB1Jaa2VGwC0e4CVpCe8FNtzcHs95l5dqrkSjQ0t9+7caBFCkmQFnnh9TzbzmtnqmUZZSOdbwQFA2wZYpdNehu0XZESQ1IgAa878+Qq+Bhnzx948uMPigyTJKhhb8hdc36euacx8rJ+s4gCgPTuwzngRto/xi2Ejtg6eN/7ZvofGGKHlF+/ss+ggSbKKxtb8u+4cUN84sRAAUEuuKJSu6kzSs16A7bFlcF7fwoZ0XY00hsZHB5jvpP72L1mU/fjJAYsNkiQNfHdiIQCguYg95AKs9ui6ivCikcHVeSNAMwC1Ma67++bs12+OWGSQJFljj+x/TL3jxEIAQDXpSNIbOpP0Ny+71u26iplTje66GunAwKosZjH5furv09s2WFSQJFlHjw/tzq6c1avuqfug99JqKz0AaLUAq5iuFGC17sDu2DIYgVFewqvzOrmnMYP749dgiwmSJOvv1++/4CTmRviXGT1WfADQMh1YpbVebq1nd++15VlTeQuunETY2EDzg6O7LCJIkmyg33/8crZw8UJ1UF3nY5VOW/UBgACLOeyymTXnumzp8htzG145ibAxxnXhBEKSJPNzcuHAqmXqIYPeAQCTJfaHe6G1TngVrel5mnc13kmEvrP6uuD6vvKvvhYNJEnm6+TC+9avVhfVN8jaZRUIAAIsNjC8ytuw9olOIow/s++ufsavvD9/fshigSTJnBqHrahZ6mfMArYaBIAmorOY3uIFJrxqRIDlJML6un7dLdmv3xyxQCBJMuce2LvFD33168Y6a0UIAAIs1jG8yuNJg04izJdbH7qnvE3BwoAkyeZw6JUnBVn1CrIK6SkrQwDIObYQCq8a5TXz5inI6uju7fdbDJAk2YS++9rO7M/pLHVTPUzSIStEAMgpHUl6g5eV8KoRzutzhHQ9r5fYjmARQJJk83p8aLcRDPXqyCqW/mmlCAB568BKumd7STWfs+Zc11Qzr0Zz6fIbtcXXyfjVNrYhKP5Jkmx+P33ruay791o1VO3nY/12xYwZV1kxAkBOuKJQumr44fyTl1TzGLOjIvxp5vDq/CB37fD1MX6t/eDoLkU/SZIt5Nfvv5D1zp2rlqp5kFU6bdUIADmhM0nPeDk1h/FrWyuEV+f162F9vHJWb3bi9T2KfZIkW9DTHw2WR0uoeczHAoA2CLBKp72UmiOE6F+yrGXCq1CxVb9rJ7YbKPJJkmxdf/zkQDavb4HaynwsAGjhAKuYfuVllP8ZRn2LFrdUeBXGv5Pvtz7bTr94Z5/iniRJQRbNxwKA5qUrSY97ETlx0CD31g6wYk6Gop4kyfYKshZc36fOMh8LAFqoAytJj3oB5Tt8aPYTB8cyQjnHQdfeGPD67YcvKeZJkmxDz5x8VZBlPhYAtAYdxdLjXjz5PT2u1eZeXWoEdL7r2hodfDHgVRFPkmR7B1kLFy9Ud9U0yOreYHUJALUMsJLSWi+c/G4dbOXwyiD3+hhzML7/+GXFO0mSFGTVQStMAKgRXUn37BhE6GVj62AjjA4z33dtjSI1ilVFO0mSFGTV67TC9CsrTQCoAZ1J+pMXTb5OHexfsqjlw6swQjqD3GtrXEs/f35IsU6SJM3Iqrvps1abAFDdAOs7L5d8Dd1uxVMHx/LKWb2Kphq64qYlAiySJDnhqYVGO9TQQjrfqhMAqrKNsOeYF4vB7eZg6cAiSZLtbczNjB9T1VA12FaYpD9YeQJApQFWMX3WS8Xg9kbZt2ixIqnGM7AEWCRJcip+++FLTouu2WmF6ZAVKABMdwthMb3FyyQf3VdLl9/YdgGWOVi1NeZaGOJOkiSn49fvv5B1916rTquBf0pK66xEAWA6IVaSnvUiaazt2H11XoVRba+rmGuhCCdJktP107eeM7e0NtsKz1qJAsCUA6zSaS8Rs6/MwWrNACvmWSi+SZJkpZ54fU8WJ2arsaoeZJ2wIgWASdKRpG97eTTOa+bNa6uTBy81wjvXQe1OtTz90aCimyRJVs0Pju4yAqI287EesTIFgIk6sAql7V4ajTF+xWrn7qvzc7D8mlcbYwBrDGJVbJMkyWp7dHCb+q363Vi/WZ0CwLgBVs8CL4zGBQwR4LRzgGUOVu2MzzUGsCqySZJkrXz+35vUcdUOsoqlz6xSAWCsECtJz3hZ1NdovZ7Xt7DtwytzsGobYH3xzj7FNUmSrLlPbV2vnqt2kFUobbdSBYBLMAerMcPbly6/UYBlDlbNjBOD4uQgRTVJkqyX961fra6r8rbCKwqlq6xYAeB3ugp//YcXRH2dNee6th7ebg5WfWasHR/arZgmSZJ19ddvjmQDq/xAWd1thelXVq0AMEyk+l4Mtg820gj0XBvVv87ePLhDIU2SJBviz58fyvqXLFLjVdGOpOdfVq8A2p7OQnrKS8Hpg42yb9FixU0NPLB3iwKaJEk21DMnXzXztMraVgigvQOspPSKl0H9Th+0ffDybYTRMeT6qK57djyocCZJkrnw2w9fymJGpxrNtkIAqIiOYrrSi6A+xi9QQqvLjVPzXB/VdfPGtQpmkiSZKz84ussPl9XcVlgsPW41C6ANu7DSH7wEaj+XKLbLCawuN+aCuUaq67q7b87+d+q/imWSJJk7Y9SBeq16Ws0CaLcA67CHf+3nXy1dfqPAahTjc/FrXHWNE4DiJCBFMkmSzKtPbLlX/Vctk/S4VS2AtmD4gbfcg7+2xr7/mPcksBrdwsyrFTBVdMH1feUTgBTHJEkyz0bH+Jo7VqoDq+SfktI6q1sA7dCFdcZDv3bOmnOdAe7j6ISa6s9b+/7jlxXGJEmyKfzly8NZ/ACnjqvCkPckPWt1C6DVu7AGPfANcG+U/UuWKViqaAzGjxN/FMQkSbKZjB/geufOVRdWZ1vhkFUugNYMsArpfA/62hmDygVVYxvbK2NOmGulejPXPn3rOYUwSZJsSqOOURtWqSOrWOq32gXQitsInUZYoxMI+5csElRNYGyzdL1Uz6FXnlQAkyTJpvbo4Db1YXW2Ff5gtQugtbqwiumzHvC16YaJLXJCqom2ES5SoFTRvTs3KnxJkmRLuPWhe9SJVbAjKe2z6gXQGgHWX2b0eLDXJsByAuHExpB7reLV8771qxW8JEmypU4sXHHTErViFbxixoyrrH4BNH+IlaTHPdSra2Hm1QIs2wjrbhR4v35zRMFLkiRbyjMnXzXovTrbCk9Y/QJoajqK6UoPdAGW0whb4+TLKPAUuiRJ0qB3jrOtcK1VMICmpTNJz3iYV88rZ/UKsGwjbMh19+2HLylwSZJkS3tk/2Nqx8q7sc5aBQNo1gBrlwd59ezuvbYczAiobCOs9+mXHxzdpbAlSZIGvXNyJumg1TCAZgyxfvMQF2DZRtjcHnr+UQUtSZJsG2P+p0HvVRjyXigZ8g6geehKeo55eFcvwBJM2UbYCJ/aul4xS5Ik284fPzmQzbxmtnqykm2FxfSkVTGA5ujAKpb6Pbh1YDVKJ8tUx9tuXVE+clohS5Ik29EYpxBjFdSF0/dPSWmd1TGAJgix0q88tKszTFuAZRtho04i/PnzQwpYkiTZ1j69bYPasrIh7z9ZHQPIe4B1iwd25RZmXu0UwmkYn5vrp/Jr7+v3X1C4kiTJtje60s3HMuQdQCuHWEn6nYe1AKsRzutbqMCogm8e3KFoJUmS/N3vP37ZfKwKtUoGkEu6ku4NHtKVGQPJBVhTNz4zMwsqN1rmFaskSZKXz8dSK1bSjdVzzGoZQB67sH7wkJ6+EcIsXX6jUGoa+nWsctfcsdIgd5IkSfOxarWtcLkVM4Dc0FEsPe7hXJkxlFwgNXX7Fi1WUBjkTpIkaT5Wroe8l05bNQPIUxfWWQ/n6RtBjEBqetsIYwuma8ggd5IkyXrMx4oTxNWQ0wyyiqV/WjkDaHwXVtLzLw/lyrpgBFLTc9ac6xQRBrmTJEnWzaFXnlR/TrsbK/3J6hmALqwmNkIYYdT0jO2XriGD3EmSJOvtxg23q0OnaUfSs88KGkDD6ErSRzyMp2d377XCqAqMbXCuo+k7sGqZQe4kSZLT8JcvD2exm0JNOT2togE0sgvLiYTTMOY4xTwnYdT0nNe3UNFQgXGa44+fHFCEkiRJTtMTr+/J4nRxteV0urHSt62kATSgC6v0dw/hqRsvu6XLbxRGVTDMXcFQ2fV3fGi34pMkSbJCYzSD+nKa87EKPQusqAHUuwvrOw9gJxEa5t5c7t5+v6KTJEmyCsZohv4li9Sm0zup8DMragD1C7CK6S0evlO3d+5cQdQUOq6iYy0GuEfwF3MHYhuc62j63nbrCnOwSJIkq+ipY/vNap2uhdJqK2sAdQqxSp958E7NK2f1CqeGHRhY9Uc4FbOtIpyKcC8CqviMYl6Y66U2c7DOnHxVsUmSJFllD+zdon6dTjdWkn5nZQ2gHgFWv4fu1OcQtcsg9/MdVNE9FSFVbP+LACV+oTLLyhwskiTJVjQ63tWd0zDp3mCFDaDWWwnf8MBt3zlY5zupRoZU3b3XCqly7N6dGxWXbBp//vxQdvqjweyLd/Zln771XPbB0V1/OPTKk5c58v9/qfHf//r9F8p/v+hEjCPRfcYk2V7GicyXvlPOv0PePLjjsvdG+O2HL5XfG79+c2TS/5zvP365vKtA7TnlbqwzVtgAaoqH7dSMkKcZg6qRs6ji38FWv+adg6WAZV7CqVgYxKLhxWcezp7Ycm+2ft0t2YqblpSfM/Us/KM7dMH1feV/dvwZtj50T7Znx4PlP1v8GePP6jsjyeYasB7P70PPP5pt3rj2j3dLNWrX+HvEe2Ne34Ly3/e+9avL77B4l8V748Tre8pBmW2FlZxUWNpulQ2gJnQkPf/yoJ3aSy8CobyGVec7qkYGVbqpzMEiKw2r4tfs5/+9Kdv0wJpywd+MhzJEh+nS5f3lxVAsiqKjy8EIJJmvgerxrhlYtSwXP7TGroQ4qdBBRNPqxjprpQ2gNlsJk/QHD9rJGyFRXrqqzg9Rjxerjqr28N3XdipyWVNjm0XMW9u9/f7srjsHsmvmzWvpZ0ssUGKx9PS2DeVf/IVaJFlfY5tfPIOjplXrtZYdSWmf1TaA6nZhFdOVHrCTN16ujQqrzs+p0lXVvsb2KMUuq23MlIpw9Kmt68tdSu3+jIkfBaLbLGaqTGVuCklyaj+YHNn/WLmzV43X0t1Yv1lxA6gqXUnPMQ/YyRnb8mo9WD3Cquh6iLBKZxVHGrN+LKhZze0aMfcj5qt51oy/fXzjhtudBEqSVRzIHl1Xtue100mF6aBVN4DqhVgerJMyOhOqtY3wppUr/5hZZRsgJ7uQjtk9il9WYmyVi6G1rb49sJZBcnQNCJNJcno/nsSPAnYUtKdW3QCqFGClz3qo1nYb4fnuqt65cw1Y57T9z57NCmBWFFzFM8i9VB3js4yhw047JMmJjR/h4uQ/NXDbbys8bPUNoGLixAgP1eqcRnjp7KoYFOyzYzVcc8dKRTCnZJxeGVsFo3PIPVTbd0OcchgDiV13JHmxX7yzL1t3983CK+rGAlClAKtY6vcwnZwRTo0XWNkOyFoOmI7ZEYphTmScqBeDyOM0QQuG+m83jzDr+49fdi2S1AH81nNZ/ADn/cBRurGOWoUDqKQL66iH6cRGSHV+S6AOK9bbODFOQczxjC1t0XXlWPJ8dGbFsGIzs0i2o3EARhwW4n1A3VgAahVi/eZBOrlf2H0ObISbHlijKOaYnv5oMNv60D2C9ZzOUPzg6C7XKcm26AKOAy9sX+cUTiocshIHMI2thOktHqJkfo3T43758rACmU53amIjZNSVRbKVO68WLl7oXcQpe0WhdJUVOYCphlhveICS+VUXBw3IbQ1jgWfwO8lWMn5kizmAnvGc9mys4bWoFTkAWwnJFureUCRz5LZBR5M3t92912YnXt/jeibZEkPbzWBkVfzLjB6rcgCToiMprfXgJPM7S8c2QoZnTr6aPbHlXqefttDQ9zg90rVNslkdeuVJ7ySajQWgIV1Y73lwkvk8REC3BmNIbpw2eOWsXguFFrzHBVkkm9E4edVznE4qBNAQPDDJfBpdNwrl9jZCTENyWz/Ieve1na53kk3zw0ocJuL5zZpY6DlodQ7AVkKyCZ3Xt8ApZm2+dTDmXrkX2mdrYcyVce2TzLNRl6y5Y6V3E3VjAWhgF1aSDnlYkrYRMl8zRmLwt3uhveydO7ccXroHSOY1wBpYtcy7iTW3I+nZZ5UOYEw6k/SshyXpNEI23h8/OZDddeeABUIbu+KmJeWtOu4HkjqwqBsLAC7rwuqe7SFJ5q8bw2mE7dl9ZXA7w+f/vck9QTJXM7DW3X2z9xPrameS7rJaBzBaF9YuD0kyXxrw3F5GYLnpgTUWB7xoPtapY/vdHyRz4eaNa72j2IgQ66zVOoDLQ6xi+pWHJJkfY5C3grl9/OKdfVkM8Hftc7Rthe4Rko02OkM9k9mwIKtQ2m7FDuDi7YQejmRujEHehjq3jwf2bsmi48a1z7F88+AO9wrJhhnPoDhoxvOYDezG+smKHcAfdCSltR6OZH48OrhN0dwmw3FtH+RkjC49Q95JNsKv33/BDy3Mh4W//sPKHcC5LqwkHfJgJPPhbbeuUDS3gd9//HK2dHm/RQEn7ZH9j7l3SNZ9VqOt7sxPN1bptJU7gPKphDEsz4ORzMcQ528/fEnh3Abzr2ZeM9uigFNy4eKF7h+SdTXmc3r+Ml/dWKXVVvBAO28jLJYe9zAk8+Pu7fcrmlvcE6/vya6c1WtRwGn5wdFd7iOSdfHQ8496VzGPs7FOWMUDbduB1XPMg5DMj3Pmzy/PSFI4t67vvrbTXBFW5Jo7VrqXSNbc6AovzLza+4o57cZK51vNA+3UfZWkN9g+SObPCDgUzq3r0CtPOtmJFRvX0M+fH3JPkaypK25a4n3F3Dq8nn3bqh5omwCrZ58HH5k/1919s6K5hT2wd4sAi1Uzrif3Fcla+Z89m72vmHut7IE2oLNY+swDj8yf0a4fJ9UpnFs3wHKds5pGh4R7i6RthGxrk3TQCh9oUf6UlNbZPkjm1+f/vUnh3KIeHdymA4u2FJJsGmPunucsdWMBaFz3VZIe9YAjDXNn/X3z4A4BFmtmXF/uM5LVNE4/9XxlU83GKpYet+IHWoSuv8zo6UzS7zzcSAtRNmYhIMBiLd28ca17jWTV/N+p/2YLru/z3mJTObze/cHKH2id7YO/ebCR5tqw/p54fU/253SWhQBr6ry+Be43klXzxWce9t5ic1oorZYAAM3cgVXoOehhRjbHTJsv3tmncG4xv37/hezKWb0WAqyLv3x52H1HsmLjWdLde613F5u1G+uEFABo1vlXxfQrDzKyOdz0wBqFc4t55uSrWcw4c32zXh4f2u3eI1mxccCMZyqb2SsKpaukAUAT0VFMVzp9kGweY6vZj58cUDi3kDGcf+nyfosAOtmUZNO9v2ZeM9v7i83ejXVYKgA0y/bBJH3Eg4tsLgszr85sA2ot71u/2gKAdTeuO/cfSbOwyNL/kwwA5l+RrKF7djyoeG4Rd2+/3wKADTG6/9yDJHVhkcMm6SMSAiDfHVjHPazI5jWGf+vGan6PDm5T/LNhxuLTfUhyug698qR3GFtoS2HptJQAyClxg3pQkc1vdPAoopvXOF0y5pu5lumEQpLN6MCqZd5hbCljVrS0AMhV91X3bAPcydYxjrOOVn6FdPP58+eHnETIXPj1+y+4J0lO2VPH9nuHsRW3FB6XGgB56b4q9CwQYJGt56HnH1VMN6Hr7r5Z8c9c+MHRXe5JklP2iS33eo/RgHcANZt/tdwDiWxN5/UtyP536r8Kaic5kdMyZtq4L0lOxag7ohvcM5QtuaUw6dknQQAa2YFVTG/xMCJb2zcP7lBUN4knXt+T/d8Zf1X4Mzf+Z89m9ybJKRkdnJ6fbN0B7+lZKQLQIDqS0loPIrL1ve3WFYrqJvDMyVez3rlzFf50QATJpnbrQ/d4l7G1LZRWSxOAum8h7N7gAUS2h9HZc/qjQYV1zo2w0fXKvBlzbdyfJKfirDnXeZ+x1buxTkgUgHoGWIXSag8fsr18etsGhXWOjS1brlPm0c0b17pHSU5pW7xnJw14B1C9LYTFdKWHDtl+zrxmtgHvOT6GvDDzakU/hVgkm9740cyzk+0x4L1kwDtQhy2Esz1wyPb13dd2KrBzeIJT/5JFCn7m1vvWr3avkpy0A6uWeafRgHcA1WH4RvvJA4e0GGV+jKHZrk16bpBslR9m/pzO8l5j+wRZxfQWKQNQswCrdNqDhmxvY8vaL18eVmjnxE/fei6LofuuTebZOGXM/Upysu+1vD7Lunuvzeb1LchW3LQkW3f3zdnGDbdnsV06jOfcU1vXX2T83yPEj/9sdJdF1/SC6/uyGM/g3cA/THqOSRqAWgRYxfSkhwzJcOiVJxXaOTDCxDnz5yuEmXtjSLN7luRkfPGZhxv2XotwKQKqTQ+syZ7/96bszYM7si/e2Zf9+MmBqs8E/fWbI+V5lh8c3ZUdev7Rcld1hGIRdgm5DHgHUOkcrELPQQ8Xkue9684BhXYOfGLLvYpc5t5YkLlfSU7W9etuqcu7LX4Ein9WhFXHh3bnrsv8zMlXywFXhHrRzeVHq5afjbVL6gBUK8BKSn/3YCE50phVEb8gKrYbZ/wybBshm+FE0+8/ftk9S3LSLly8sCbvttjGFz/+xAE1P39+qCk/m/hzx58/tinq1mq5EOuM5AGoSoDlJEKSoxst9optpxGS4wVYEba6Z0lOxZi9Wa35VbE9L0YgxHbAVqwFooMsZnH1zp2rJmiJAe+lfgkEUOkcrCT9wQOF5GjGvAjFdvvNCyEnY4Sspz8adL+SnPIWukqePRHmRKgT2/CqPcMq78bswejQunJWrxqhebuxjkoggIq6sNIhDxOS43VZKLjrb2zNqtav1GQttho/vW1D2y0eSVYviJnqcydCm+i4iq4kn+G5gfFHB7eVB8QbO2DAO2AOFkmOMI7BVjDW1zV3rFSQMnfGQikWkbqvSFbikf2PTfodF6cIRlhjRufYxjM5Tj2cNec6tUOT2JGU1kojgOltI/zNQ4TkRMaJPorE+hlzPVx3zJMxc+apreuFVyTrsl0+OpFjy9zX77/g85ri/KyoIczTbAKT9Lg0Aph6gHXCA4TkZLzt1hWKwzoZR38b3Mo8eH7rThzuoAOCZDXds+PBbKzAPDqKmvVUwbxt2Vy/7hZbDW0pBFpkG2Hhr//w4GA7zW6JxVjMdopwYF7fwqxv0eKsf8my7KaVK8vGf8ZnNf4vombf1Mco3l1zbNSzMmarxDUYM2fc8yRrZXR2XhpeRdd3/JDj86n+jM0Ygq/WzeGWwmLpcckEYBsh23RGy/mQas78+eWQKgKqpctvzAYGVmU333zzhGq7ntj4RU8xWPtCU5HJeh3YEIFVLGwO7N1S/sVeaEWyXsZWwfM/ksUhETqvhFnteUph6bRkApjUMPf0uIcGm7FDIH6li4GVEVSd76SabEg1GQ3DHN/ozlAE1tb71q92DbLirsnoOF1wfV8Ww5BjK8kTW+4tz5+JbYFxSEMcbe9+I9lIY6vypgfWZD9+csDnUWfjMxdm5Wk2VvdsCQUw7jbC0moPC+a5oyoWYOc7qiKomko3VaXaVji+cVqe4q92RrjgOmutMOn8syw6PaPr6a47B8pBZXQgxFaavTs3XmR0RI00hvOO9IOju/4wrpfzfvvhS+VgSicVyWZRmJ6PMCuCRDOzGt6N9YqUAhh/G+EZDwvmZftfdD6d3/oXAVI9gqqJjODMdzT29iNFX+1curzftdcEg87n9S0odzhFGBUdTjHDJY5+jxlScYqWhRlJspmMd1cc4OM936gQKz0rpQDG6sIqps96ULARnVXntwBGN0JewqrxjLDG9ze6pz8aVPDVwAhBXF/5eGbFsyq6DmOrRWzBe/e1ndmpY/udzkeSbGnjfRc/1KgHGhBkFUv90gpg1BDLA4K1nVk1chtgM4RV420r1Fo9urGlSaFXXSMciRlGrq/6dxbGL8+xrS9CxC/e2SeoIkm2tbEtPbazR+exWqGu3VhHpRWAYe6s8ayXkVsB6zWzqp5GGOe7vtzYPqXIq67R7ePaqn3IHlsAI7CKIFZHIUmS48/LioNB1BB1C7F+k1gAI+hISms9HFiN2VUxZL3VwqqxjGBON9blxnBqxV31/OXLw7av1ujZFaFVnKgZs6p0WJEkOb0thtfMm6dOqcuWwvQWyQVwYZj7WQ8GTrXDqp0CK91Yhrs3yhgK7rqqjt2915aHrUenVYSDri+SJKvzg1t04vtxt+Yh1huSCyC2ERZ6DnoocKztNa2+JbAas7FcK5f78+eHFHVVKgojeHFNVXZaYBwPHt1WMcfDdUWSZG2Md62uLFsKgRrPweqe7YHAkdsCW2Hoer0VMlzuidf3KOaqYGx1cz1N73kWA9ljGLttgiRJ1vcHuI0bble/1MgYAyTFQHtvIyymJz0M2vukwPNdVsKo6RufoWvqYuPUGoVcZUY3m5N/pv5c27xxbXbq2H7XEEmSDTS27qtjatKN9Z4UA228jbC02oOgvbqsor1Xl5UthfVw60P3KOAq9OltG1xXU9gyGF1rZ06+6tohSTInfv/xy+VDVNQq1VWSgTYe5l467SHQuqFVbHGLrYFmWdXH6ABx7V1wzR0rFW+6sOryrIvAVHhFkmQ+jXmU8a5Wt1TRpHuDNANtOAsrfcQDoLUWcrE1MEIrJwY2xvj8XYsXXHB9n8LNiYQ1NWZeffvhS64XkiSbwJhT6UffaoVY6XGJBtqwCys96wHQ/KFVzGISWuXD3rlzvZRHWJh5tYJtmsYgcqHo+NeWmWskSTafX7yzr/yju3rGlkJgqgHWLje+0IrV1Qv5cm3xmp6Hnn/UtTSGS5f3Z6c/GnSdkCTZxCMTzMlySiGgC6tFBxXbHijEamY/fes5xdo05ka4lkZ33d03l7vUXCckSTZ/13m819U3TikEJp6FVUyfddPnd4tMbEnrX7LIIPYmNLrkXMcXG0crK9Sm5psHd7iOxjjtMgI+1whJkga+05ZCtFWI5WbPizHYcNac67K+RYuzm1auFAQJsVrO2BanSJuasV3OtXOxe3dudG2QJNmivvjMw1mMTlHzTMNCabWEA2Zh0RZBCrGqZJxCozibvMeHdruGLjEKW9cGSZKt7ZH9jwmypndK4ZCUA2ZhsWrbAi8dyK7bSoglxOJ4rl93i2toxGEWOvlIkhRkcdy5WL9JOdCydBRLj7vRa9thdWlQ1b9kmXDHYHchlqJsUv74yQGF24gAyzw1kiQFWZzEKYXFdKW0A63ahXXGTV79hVYEFzqsGJ7vvqMQazru2fGg6+f3WYEx3N41QZKkIIuT6sY6LO1A6w1zT0p/d4NXP7xygiBHGttG3R9CrOmeziMEPbcVO+aCuSZIkmxvD+zdoq6efIh1VuKB1uvCKqSn3ODVMU4T1HnF0ezuvdbL9hJ11EzO+Jza/VqJEPjTt55zPZAkybJPbV2vtp5skFUs9Us90DpdWIV0vhu7Oltc+pcsEtZwTOMaca9c7AdHdynCJuFtt65o62vnmnnzslPH9rsWSJLkRd63frX6ejJzsZKefZIPtM5A9yR9241dmdFho/uKE+leuVydNRN7+qPBtp77sOD6vuz7j192LZAkycv89Zsj2cCqZersibcU/iD5QOt0YrmpKzJmXwloOJERcrpfLvfr919QgGmVH9Oly/uznz8/5DogSZJjGrVC/Oilth5fyQdaYxZWku5yQ0/fvkWLBTSclP1L/EI0mtFlpPgy0H00YwvlL18edh2QJMkJjbEDcQCM+nqcLYXF0uMSELRCiHXGDT290wfNv+JUnNe30Et1FHXZjG+cxNeO18Vddw6Utwe4BkiS5GQdeuVJ9fb4WwpPSEDQ7LOwbnAzTzfAWiaY4ZRs126aiYxOI0XX2G7euLbtrpsY0Oq6IEmSaidbCoGLZ2El6ZAbWYDF+hjD/91Dl5/oqdgaf1DplbN62+q6icLTd0+SJCupn2LHjFp7DAul1ZIQGOhuBhZpqPs0jO40xdbYvnlwR1tdNzHA3vdOkiQr9dsPX2rrk50n2FJ4VBKC5pyFVSz90008NWOmkUCG0zHCT/fQ5cavZAqtsV13981tc93s2fGg75wkSVbN3dvvV3+PHmKdlYagSUOs9KSbePLOmnOdMIbTNq4f99How7sVWWMfFR3bLdvhOnj+35t85yRJsqrGfE2nFY4RZBV6FkhEYCthCxszaQQxrETtzOYfTdUj+x9ri2smfiX1fZMkyVoYnd5q7tFMn5WIoKnoKJYed+NOfpB7zDMSxHC6xkEA7qXR3btzowJrDKNLrdW//6e3bfBdkyTJmvnLl4f9mDzqlsLSaakImm0r4VduXoPcWR/nzJ/vxTmGMbhcgTX6qTqt3v7+xJZ7fdckSbLmrrnDAUujKRWBrYTmYJGjai/+2H79/guKq1F897WdLX3NbH3oHt8zSZKsi0cHt6nFR7EjKa2VjKA5AqwkfcRNO7ExUHlgYJUQhhUZW1HdT2MbHUeKq8uNWWGt+p1vemCN75gkSdb1sBxbCkc9pfCodARNspWw9Jmb1jZC1sd5fQu9MMcwtlkqrEa3d+7clrxu7lu/unxSkO+YJEnW09tuXaEmvzzEOisdga2ELeLMa2YLYFgV41pyT40daCiqLveLd/a15DUT8ygEWCRJshG++MzDavLRthQWSn+TkCDX/CkprXOzOo2Q9VPr8thGMaGoutzd2+9vuWtm6fL+8ulAvl+SJNkIT380qCYfrRurUNouJUG+txIm6Xtu1om3OAlfWA37lyzzshzHE6/vUVSNYgQ+rfZMPXPyVd8tSZJsqAsXG/MxypbCE1IS5D3E+s3Napg762Ms3t1XY99rhrpfbnQrtVL3Xnfvtdm3H77kuyVJkg336W0b1OajKCVBnge697tJxzeGcAtfWC2vnNXrRTnOfCTF1OV+cHRX1kpbs+Pfx/dKkiTz4KdvPac2H20uVjFdKS1BLulISvvcpON3hgheWC2jo888rLE9sHeLYqrFfyH8z57NvlOSJJkrZ825Tn1+qUk6KC1BPjuxCukpN+nY9i1aLHxhFedhLfKCHMcYrqmQutwVNy1pietm0wNrfJ8kSTJ3bt64Vo1++VysH6QlyCVuUF1YrJ+9c+d6QY7hNfPmKaJGMWaExbOo2b/fCOLMOyNJknn03dd2qtHNxUKTbCVc6+Y0C4v1szDzai/IMbxv/WpF1CgeH9rd9NfMzGtmZz9+csD3SZIkc/ujoTp9lLlYSWmt1AT56sJK0kE359jDh51IyGp608qVXozmYU3Z3dvvz5r9WWqQO0mSzLvr7r5ZrX6phZ6DUhPkax5WUjrt5hzdOfPnC15YVaOzz701tl+8s08BNYq33bqiqa+bCOF8jyRJMu8e2f+YWt1cLJiH1bxG14zghdU0tlS5t0b3ylm92f9O/VcBNYrNfN1EAOc7JEmSzWCMPlCXm4uFPAdYhdJqN+XY81uELqymsTU1tlW5v4Qd7VJMxXP0zMlXfY8kSbJpXLjYzglzsZDjoe49+9yUo9u/ZJnghVW1f8kiL8Rx3Ltzo8JpFGOWVLN+p3HKj++QJEk2k09tXa9mNxcLuZ2HVUy/clNebhxlL3Rhte2dO9cL0TysKfv8vzc15XWzeeNa3x9JkvQDorlYgHlYBrqzGY1w1P019rYzRdPo3rd+ddaMz9Bfvjzs+yNJkk3nr98cyQozr1a3m4uF3AVYSfdsN6OB7qyPS5ff6EU4jhHUKJpGd8H1fU117cTct0/fes53R5Ikm9Y1d6xUu19qUvq7FAUNHur+13+4GS+3u/daoQur7rw+AyLH8+jgNgXTKMZpjc12GEDMkfDdkSTJZvbFZx5Wu1++pfCoFAWNnYeVpIfdjJcbYYPQhdU2wlH319g6wW50v37/hazZthFGC77vjiRJNrOnju1Xu18eYp2RoqDRIdZ3bkZbCVl745pyb413EugixdIYxul+zfRdHh/a7XsjSZIt4TXz5qnhzcWCoe759spZvUIXVt2+RYu9AMdxz44HFUpjeOj5R5vm2tn0wBrfGUmSbBnjpGW1+iUWSqslKTDU3amEbHFnzbnOC3AcY8ucQml0n962oSmunThd8ufPD/nOSJJky/jmwR1q+MuGu6eD0hQ0KsTa4Ca0lZC1d2BgVdMN5q53cKxIGtuNG25vimvHYH6SJNlqxg906vhL5mIV0lPSFDSEjqRnn5vwYv+czhK60FbCOvvElnsVSeM4sGpZ7q+fpcv7fVckSbIlXXHTErW8uVjIRydWetwNeLGx5UvoQlsJ6+uJ1/cokMYxOtXy/P3Fr5OfvvWc74okSRrt0CZ2JOkNEhU04mTCs27Ai42OGaELbSWs7xyl/536rwJpHKND1DB3kiTJxvjB0V1q+Uu3FCbpLokKnEyYAyNwELzQVsL6GfOeFEfjz2HI+2muZ06+6rsiSZIt6y9fHvaj9OXD3Y9LVFDfAKuQznfzXb4YE7qw2kankftrbOPEF8XR2P74yYFcXz8vPvOw74kkSba8Mf9T7X5RJ9ZvUhXUlT8lpXVuvstPSBO6sJrGSZd+tRn/IIVfvzmiMBrH0x8N5vb66Z071/dHkiTNxWrbbqzu2ZIV1HErYfqsG+9i+5csErywqs7rW+hlN4533TmgKJrAr99/IbfX0JH9j/mOSJKkuVjtu6XwEckK6jfUvZi+4ca72OiaEbywmsYWVfeWEKQS49S/PH538/oWGMhPkiTNxWrnLYXF9A3JCup5MuF3bryLtzUJXVjtrYTurbGNIsBA8Ik9PrQ7M8uMJEnSXKwczsU6I1mBkwkb5Kw51wleWFVjxpp7a2xX3LREMTQJ331tZ+6uoyjgfDckSbLdfGrrevX9JUpWIMRq2NaYhYIXVtXo7nNvje3z/96kGJqE0fGUt+8uusN8NyRJ0lwsdhTTldIV1D7ASrpnu+Eu7Sy4UfDCqtm/ZJkX3AR+++FLiqEm7MTSQUeSJM3FUsuP2FK4S8KCegx1v8UNd7GCF1bT3rlzvdwmGAquEJqcJ17fk6trKUI13wtJkjQXi+dOKOw5JmFBzekolh53w12wMPNqwQttJayjMU9AETQ5v37/hdxcSwsXL/SdkCRJc7HU8yM7sc5KWFCH7YTpoBvugjOvmS14YdWMranuKzOVquX3H7+cm+tp6JUnfSckSdK8UvW84e6ocydWkr7tZrtgnCInfKFTCevjlbN6s/+d+q8iaAqzF/KyBdT3RpIk290zJ19V61863D0prZWyoNYzsb5ys12wb9Fi4QttJayTd905oACaonmYsXZk/2O+C5IkyWH9aH1piNWzT8qC2oZYSfqTm+2CN61cKXyhrYR18sDeLYqfKXrbrSuyRm+51oVFkiR5zvvWr1bzj5yLVSx9JmVBbWdiudH+MI5IFb7QVsL6efqjQcVPkw0QfXrbBt8DSZLk7/5nz2Y1v7lYEGI5mZDNb1xP7qvx5yopfKZubOVrZNAveCRJkrzgp289p+a/xCtmzLhK0oKacEWhdJWbzMmErL6xLdU9Nb6bN65V+EzDr99/oWHX1po7VvoOSJIkRxhjFszBvcSk9HdpC2p1MuENbrILxsBkAQyr4by+hV5kEzj0ypMKn2kagXsjvrMTr+/x+ZMkSV7iipuWqP0vCrHSQWkLarOVsFBa7SYbub1poQCGVbG791ovsgn8/uOXFT3TdNMDa+p+fQ2sWuazJ0mSHMWYGaq+HzncPT0pbUGNQqy//sNNdsH+JYsEMKzYgYFVWcwOck+NbQy9V/BM3zcP7sh0YZEkSbZvbZbrECtJf5O2oCZ0Fkrb3WQXXLr8RiEMK7Zv0WIvsQncuOF2BU8F/vLl4brOXlh3980+d5IkyTE8c/JV9f+lw92TnhkSF9RgJlbPPjfYiO0yA6uEMKzYWXOu8xKbwEPPP6rgqdD1626py3UWYZkTCUmSJMc3dhqo80dYKK2WuKD6nVhJetgNduHoeAEMq6GthBP77YcvKXYq9PjQ7rpcZ3t3bvR5kyRJTuB961dbA1xk+qzEBbU4nfBtN9eFbgMBDCs1tqS6n8b3ylm9Cp0queD6vppeb/H3//WbIz5rkiTJCXzxmYetAy46obDnmMQFtejEOuEGO2ecJieEYaVqI57YOIJYoVMdY1tmLYP9r99/wedMkiQ5CeMQHLX+RcPdz0pcUP0Qq1j6zA12zpnXzBbCsGKjy8j9NL5bH7pHoVMlo0vqmnnzMnPLSJIkG3/wjrEiFytxQQ06sUqn3VznjGHcQhhW4k0rV3ppTcIj+x9T6OT8SGdBI0mS5NSd17fAeuCiLYXpcqkLhFg1MraBCWJYiX2LFntpTcIv3tmnyKmyt926omrXXpx6+L9T//W5kiRJGu5e2ZbCQmm71AXVnon1k5vrnPP6FgpiWJHRzedemnjOkoCk+p46tj8rzLy64utv3d03+35IkiQNd69OiFVM35C6oNoh1m9urnNGF40ghpUYAY17aXwXLl6owKmRQ688WdH199TW9QIsskG690iyNTw+tNt64KLh7qXTUhdUFTfWBfuXLBPEcNouXX6jF9YkfGLLvQqcGvr8vzdN+TqMk1kjAPP5kfUPrvbu3JjFwTLxI0h0Qp7+aNBnQ5KGuxvuDgixhFisrbEd1X00sXH0sAKntsapgpMpnmLRvHnj2uzMyVd9bmQD3Ljh9my0k5I/fes5nw9JNrExa1ndf8ErCqWrJC8QYtXA6KQRxnC6xsLDfTS+8RnZMlMfv37/hfKw90vDrPjr/iWLst3b789+/OSAz4pskHFK63jdkd9++JLPiSSb1DgkR+1/wY6ktFbyAiFWDbxp5UphDKettuGJja4fhU19/f7jl7MPju7K3n1tZxanQv78+SGfC5mDrSYT/fARv+LHf87nxUYeGBLv7T07Hsx+/eaIz4SXGfXFpgfWlEcZuEYqH+/Q2nOx0l2SFwixauDAwCphDM3DqqFR7ChsSLa7/9mzeVLvjNhu6PNiI4wtrVfO6v3jOh1YtUwnNS8yfhy7+JT3BWb6XRLwqf0vCrHek7ygOgHWX2b0uKkubLERxtA8rNoZxbBf6UjyaHlL72SfnQ5dYL2Njt3euXMvu0bjEAKfD88fSjHazKe4bowquHAfqf8vCrF+kL6gKlwxY8ZVbiohFs3DqocxG0BRQ7LdjU6Fqf4AENuCfXasl7GFcKzDQAQUnKjLaOnyfj9aGu7uhEIIsYRYNA+r+dVNQJLTm5Ny150DPjvWLWQdr6Z5Ysu9PidmWx+6Z9zn2NPbNvicho1ntzXAiOHuhdLfJDAQYlXR+HVJGMPp2L9kmRfUJO4vA4pJ8mi24qYlmZmCzKsRUo13HRZmXu19ziy6rSZqDoi5au3+OUWYZx1wwT8lpXUSGAixhFg0D6spXHPHSkUfSXNkTv03i3pjOs/RGJpssDZraYRTEVJNdC0eev5Rn5fn2ITXyYLr+9r+mRW7EKwDRpo+K4GBEKuKxktbIEPzsGqjgpckz534VsmzNLYi+hzZ6AV3dOH4vNrXmIs22WfW7u33t/Vn9fX7L1gjOKEQQiwhFs3DasZ5c2dOvqrwI9n2/mfP5qzSWsVgbdbK6Jqe7LUYi3OfWXv6xTv7sqnsdIk5a+3ctWadcFGIdUYCAyFWFY3TfwQynKpLl9/oxTSBMf9F0UeSR7P71q+u+J2x6YE1PktW3Z8/PzSlxXYM9va5OZlwMq67++a2/rxiW6X1gBMKIcQSYtE8rCbyxWceVvSR5CSGIU+2u/XUsf0+TzZ0dk9377VmtLWpMSJiqs+t40O72/bzWr/uFmuFEV5RKF0lhYEQS4jFBjprznVeTBPYzm3kJDnSWPhX47na7p0NrL7R4TfV6/Dd13b67NrQmM031Wulf8mitg099+x40FphpIXSaikMKsbNJMTi9J3uKVPt4sLFCxV8JPn7yW/VfL46vp7VdDo/ym3ccLvPrg3du3PjtJ5l7XrIz5sHd1grjJyLVShtl8BAiCXEYoO8aeVKL6UJfGrregUfSU5xGPJkvO3WFT5XNvQENVsK29Ont22Y1vUSp3n/+s2Rtvu8vv3wJeuFi4e7H5bAQIjldEI2yL5Fi72UzEAgyYb9Gu8Zy2p4YO+WaV+bMeTbZ9hexg+U071eYitiO55QGOtM64LfQ6xi6TMJDIRYQiw2yDnz53shTdDd6BdakjxnHHLh9Ffm0dgWON1rcPPGtT5DIdaUuvdia3W7fWYxE8za4I9OrN8kMBBiCbHYIKs1oLdVNXiYJC+4e/v9NXln6IRhpVbyo5wthe1nBJeVPLPiWSgobm8lMBBiCbHYIOOYc/eOAZ4kORm3PnRPTd4ZurFYiWdOvpoJUlnPZ1msueK6c6JjO59QmM6XwkCIJcSioe658/uPX1bskeTv3rd+dc3eG2ZjsZGz2iLU8FnaTujgn7F997Wd1g0jTUp/l8JAiFUF/5zOEs7QUPcqueD6PoUeSY4wThOs1TN3YNUynzGn5Z4dD1Z8XfbOneuzdDrhlNddP35yoG0+s9MfDVo3jLAjKe2TwkCIJcRinZ015zovI7+wkWRuBvueeH2Pz5lTNuZXVuP6+/St53yebeLenRurcs20UwdfzI0zhmTkCYXpG1IYCLGqYDxYhDOcrHHynvtmbKNtWqFHkheMDtVaPnej08vnzHoOdR9pdOf4PIVYU117RYdSu3xu8/oWWDucD7EK6SkpDCqiM0l/cjMJsWioezXvpXY8PpkkxzO2XNX6+fvFO/t81py08a6uVj1jjED7eGDvlqo9y+LUvnb53NbcYZ7uHyFWkv4mhUGlIdYPbqZzCmc4GZcuv9FLyElZJJm7EGv9ult81py0sQW1mtdfO3XVtLNx+nQ1f/g8dWy/gfhtqBQGlYVYxfQrN9I548Q5IQ0Nda/M3dvvV+SR5CXOvGZ2Vo9OWEECGxFGhC8+87DPtQ0ceuXJTPje2A621jihsHu2JAaVdGKdcCMJsTh5qzU/olV11DtJXm69Zim207Bk5qszRCd2e/jB0V2ZrdBTN+pj64QRFkqrJTGoJMR6z40kxOLk7e691ktoDAszr85+/eaIIo8kGxRixWnLZ06+6jNn3Wf0RCega6/1jZMoq/3cimux1T+37z9+2frhouHupe2SGEz/dMIkHXIjnTNmHQlpOJGxQHC/OB2LJKdiPQ8Esa2bjTot7cj+x3y2LW7MsKrFcytmtLX6Zxc/9lovnO/E6jkoiUElnViH3Ujn7F+yTEjDcY1uPffK2Maxywo8krzcej6Lo2NYVyzH83+n/luTYPWuOwd8vi3uj58cqMnzrB22oy5cvNA64o+ZWOlxSQwq6cQadCOdMwZ2C2o4nhF0ulfa+1c0kmyGX+AN2eZ4fvvhS5mxApyO8f3W6rkV87Za+bOLIfbWC79vJ0zSM5IYTD/EKqbPupHOOa9voaCG4xrXiHtl7DksCleSbOxMrPNeM29eudvGZ896Dec+75sHd/iMW9xajdboX7KopT+3p7dtsI4YoSQG06ajWHrcTSTE4uScNec6Lx+nEpFk7kOscOiVJ332HNUDe7fU7Hrc9MAan3GL2zt3bua5NXVjZpw1gxALVdlO2L3BTXTOOfPnC2o4ro1YhDSLcVS3wo4k67/oG8uYv+Kz52jGO7tW193Ma2brAmxxo2Oqdk0FC1r2+omxG9YMI7YUFkv90hhMb7B7Mb3FTXTOKDAFNRzPep4u1Wy++9pOhR1J5ijEaocZM8znbB4zMlvbOI26ltdPq55yeebkq9YRFw13794gjcH0QqxCzwI30YVfjgQ1dDLh1I1w7+fPDynsSDJnIdbAqmU+f17m0uX9Nb0en9hyr8+5hd244fas1o0FrTpntd6HfOR8uPsuaQymt53wLzN63EQXjqQW1tDJhFN3wfV9ijqSHMd4TjbqGf3FO/t8B7zI+OG21iM6fM62o1bif/Zs9i5o/RDrqDQGFZxQ6CYKY96RsIZOJjTElSSbaYbMRMbWMd8BzxvzhuoxHuHr91/webeoz/97U1aPHTK/fHm45T67NXfY2TEixDohiYEQq0LjuFhhDccyjit3n4xunHKkqCPJsY1tfY3c8n36o0HfA8t+//HLdbkW9+x40OftlL2K3LtzY8t9dlsfusd64kKI9YMkBtOfi5WkZ91I54o8YQ3Hstat983sp289p6gjyXG8686Bhr5DYuHke2AY72ynY7IS48CIeu2SabWZq/8/e/f/YmW194//878cPXH/cDizJ51rZ5KZ4hkcBnM6preKZVlmJQ339GWOlViWFXk0sYZEw5pSUkryB6Go6AtJGAXZiYpCiOMPUSCcoCAi3vtzXltHx5k93/eX68tjwYP3+77PuUuva11rr+t5rfVazVjFliWSGG0Gxd2TMx6iCwVQ190ksKGmWKnnGam9gtFR2gCtLYQ8kSgm7AAOwttHdjatL1oBmE+xVbRZfSjqb+Xp2p049KT3CSGWVpfthKXklIfovBtX/a/Ahpo8H2M9Mz0mdAAZ2EISKwDcC1589uGKPsdMRCDezAD+p88PWwmZU7PaytdKY7Tpbic87iE6L06gE9gw0pq1ijDaogIwfbt39LX8dySOrbdylmacLOdDV/5FuGSuOXURyHl/GBZitSdrpTHatNqsUsd+D9F53ctvENowSoSbno/aorinyRxANuqgGLNp9tbWKCTvuudPZ3dX0/pR3g6nUKJkmLar/iGN0aYXYrWXH/cQndfZvUxowyjRLzwfjtAGmK6jBx5Nxe+IYttsvL25q8tj+6Lrnj+33rK6qf0owlcBYA5XYpXK+6Ux2jRrYpX/z0N0aam90IaRFi9d6sdGUXeAXBTzPXVir3tSYD0rlje1L65es8J1z6Et929saj+K1Vh5+XDa7AAw1UrJCWmMNr2aWO3Jeg/RefMWLhLaMMr8xX/zY+OLPsC0RXCUlrH7zjvWuScF1uwPcxE+5KkwN+ftfeq+po9pEf7k4dpt7d/kveKC2e3JaWmMNr0Qq62jy0N03pXzFwhtGCX6hedjtHt7N5jIAUzC9x+/VLEVnKIV5B5yeN82194W6br46PiezF+7fbv6vVcMhVil5Jw0Rpv+lkIP0cXtUUIbRlKA0dHZADPxy9evpep3JLYCuS/F89t3x1rSD9fdtNL1z5kIk1rRl7qu7858KYs0bS9PA0mMJsSqw5JnoQ0jeTZqe//1XSZyABk8kSr+LOdOv+q+FEycFNiq+bX+li+xmrNV41esAsvytfvszQHvFkIsrS5bCkvJOQ/ReWvWrhXccFH0B8+FY7MBslaLaCJR08Z9KZav3tvfsj5oS6HVpfWsYRz//qxeu7OfDHq3GO6vczqkMdp0Q6zPPETn9axYKbzhohtX/a8fmjHqx5nEAUzejat6UvV7MnfBddXtZe6NAwacUsh0tLJm7O4dfbb15qa4e7lHGqNNN8Q67iE6r3v5DcIbLor+4LkwGQWYqTgVMG1jeda35TA1bx/Z2bI+GFsKreDOl6hP1cot0VnuT/ERwfvEeX8qlTdLY7Tphlh7PETnxXJ/4Q1DOruX+ZFRFBggl8eqd3Z3uTdOlHMgDNNy6y2rW9qfsnxKdisDwNQpJY9IY7TpFXYvze3zEJ03f/HfhDdclLYaJmkRxwObwAFMXtSgckgHrfTisw+3tA/2rFjuPgjm67q674t3nhcAZtysUnm/NEab3kqs9nKPh+hSjQjhDUMi1PRcjBbHA5vAAUzesYOPVWwPp+hB6pmTB90L/amuwegfZ97I3LXr77vN+8VQTaxSclwao01vJdZf53R4iC7tsRbeMCROQPFcjJbVL18ARSyqbUwnbH/o7pb3wSwX5CadwXwWa/vFc+B94mKI9Zk0Rpt+kOUhukh4w5C2edf4kanh5y+PmsAB5ORY9c133eweFUAaVn9EmQb3QjBf7100506/mqlr9/LAVu8XF0Os8llJjCbEqoM1a9cKcKiKlXmeidGTBZM3gKmJLS9RwyWN43r8ub7/+CX3yQmZVv4xaXE6YFrGsKjP5aTQ7JLEaNOvi9WWnPEQDe2vXinAoSqtLxytdOOqHpM3gGlI82EhWXsJZOrW3bQyFf3viW33uB85kZaPvVkr8v7ZmwPeL4RYWj3arFLyrodo6MjpZQIcqjwPo/VuXm/iBpDhEGGsmqBZ25LD1EQR/zT0tag3msVi3IzW2d1V8ZE1X9vLhVhatrYTlpJBD9F5cSKdAIfYVup58AUVoF623L8x1b8rim7nW9f13anpfx8d3+Oe5MDG29M1V85KkfffvjvmHWO40txF0hhteiux2suPe4gu1fwR4nDjqv/1A1PDi88+bOIGkNEj6Sea//zy9Wvule2sDRdF5t0TJ142YgzLyuFD8Wf1XnGhuHt7uUcao02vJlZ7st5DdGlJvRCHqI3meRjtxKEnTdwApuH44I6KDxW0SmzjS0s/i9OfBabZF+OF+n7Ts+yGZd4zLphVKm+SxmjTale0la/2EF2ybt1NgpyC615+gx+XGuJIZRM3gHwW812wZIl6RTl15fwFtn5RV++/vqtirjo9t96y2nvGxe2EySPSGG36dbE8RMOKA/6vIEeI5celBsewA0xPbHOx4pZWSduJy047zr5vP3whlWNabJ2NulNpvnaxpdZ7xYXthKVkjyRGm/6WwlJyzoN0XgQYgpxii1MqPQujpX1SAGBL18zENhf3Kl/SWkg6QhD3J9v9Km3h6JCnt/em+trFQUneKy6uxBqUxGgzOKGw46QH6VKCL8gptjQVQE2L2Ipg0gYwfavXrMjEb4vT46wCdOIxkxFbkNPYtyJc++Kd51N73Q48s8V7xsXC7slbkhht+icUljr2e5DOiy+lghwhlmfhcp3dXSZsADMQRYezMN5HvRb3Kz/OnX61ktb5thpsgvlGripNa/+KmnDeLS6GWKclMdoMTigsP+hBunRqiiBHiOVZuFzPiuUmbAA5O81rLF+9t989y4mznwymtt+9fWSne5Rhaa/tNLDzgVRet+j33i0u1sT6tyRGm0mI1eNBurQEVZBTbPMX/82Py8hTO29aacIGkMPTvGrZfNfN7pkQq+E23r7WPcqwCInSPI79JZlfOXPyoNNq0x1i/SqJ0ZxQ6IRChFheaACECTP+oKfwtlPkmtHPfvj0Ffcpo+I007SPZbHlMW3bCiNY825xiRRGE2I5oZA6yMIJUs0WS8ZN2ACmL16kYmVAVsb9e3s3uG9CrIbbt6vffcqoKJ6ehbEstnKrUyfE0vK6pbAtOeNBckIhQqxatj90twkbwAx1Xd+dqdVY33/8kvuWcWnfuhRzbvfJyZdF21YY46v3CyGWVo+VWKXkhAcpfScUrlt3U2XN2rWV2OLYs2LlRbFabKTh/3n890P83wqmhFgztXtHnwkbwAz1bl5fsQoXIdblTp3Y615l1JXzF2RiTIsDitK0rXDuguu8awzVxWrr6JLEaDPYTpg850G6lNg3KzCJkCkCqM7uZZWFnZ3VACV+EOLPUM+UPv5Z8c+Mf3b8O6LuU/w7498t7LqcH5bRDjyzxWQNYIZiLM3aYTdRy8u9y64IiGxdpVFuXNVT8UF26jq7u7xrDIVY7cl6SYw27fanUnmzB2nYaWzrbmpIWBXLpiNEapt3TSWNk9UIcBYsWVINuGJFV72vQxZk5atSMx3et81kDWCGPjq+J3O/L1v7N7l3TsVs+Pwz6gS5X9kTAWSWQvlYmZiG6xYF571fDIVY5QclMdoMthPOXeRBGr7sdOWMtgDGstUIrCIUyvq+51jBFcFbBFtFOLlRiCXEAmiEnz4/nLnfF7WxhFgKvDOWgZ0PZGpMi10vUcur1dftzjvWede4YFapvF8SozmhsE4isJlKaBWrrGIFUxpXWDViQhtBT4R0eVytJcQSYgE0ShbrLtruJcRqtJhDp6lmEZNz4tCTmRvPojZhq6/blvs3etcYUkpOSGG0mZ1QWErOeZjOi5pR4wUdsSIpQhyBx6VtiHlZqeWeCrEAGuXWW1ZncjXWtx++4P4JsRrq7SM73bOM+eq9/RXz2ql7enuvd41L2wn/JYXRZhpifeBhOi+CjFqrrSLccizqxNsP44vaTLZkCrH82APkUVZfXmL7i/snxGqkCHjds2z57btjmXwvineVVgbzWTvko6EhVik5J4XRZhpi7fEwXfrqOBRcxdJ/wdX0r2MEf3Eds7LtUIg12vHBHSZrAAXdfjPki3eedw+FWA2l/lr2xIfrbJaO6ar88vVrLblmxw4+5l1jGCmMNrOaWG3lDR6kywMY16H+gVbaV2gJsYRYAI1y5uTBzP7GrLtppXsoxGqo7Q/d7b7ZIp37+linTuz1riHE0urVrmgrX+1BolnLeKOmWBpraAmxhFgAjRLFq7N8CIy6RdkS9ytL/SuejTScHsfkRfCY5Tnui88+3PRrFisOvV8M05YslcRoTigkc/XHpnIapBBLTSyALLtxVU9mf2fiA1TUwXEfsyE+QmWtj0W9IPcuO14e2JrpeXPsFImVUc2uJeb9Ynhx92S9FEabWV2s9uQbDxOtWp0VtbNaHWLFSYvuhwklgJULte3b1e8+WonVMFFjKVYsun/Z8NHxPZmfN0f94x8+faWp1y3+nd4xhlZiXfUPKYw20+Lur3mYaPVS8laGWX5URtu9o89EDaDAq2NG/k7/9Plh91JNrIaJAxDcv2yI8CcPc91YIdvMQu/LbljmfeOCWaWOf0phtBmuxCo/6GEiLdsMW1EzS4g12hPb7jFRA1AP5aJ7eze4l0KshgYK7l92xG6KPMx3m1nofePta71vDCklg1IYbaYhVo+HiTSJEw3XrF3btBArq0cFN9LW/k0maQB1lIf6i1bLpF+WT0H77M0B9zAj8rSqaO9T9zXlmsXc2jvG0Eqs5F0pjKa4O7kTRRebVfw9QjPX3Bd3AMfSjy9qSNpWmG4RBGW1f915xzr3MCNiBVOe5r3NCOijtqB3jIuF3U9LYLR61MX61QNFWutw9KxY2dAQK05ecq0vF0ueTdIA6ie+9ufh9yHCOPdTiNUo3374gvuYAVE7NW+HTX3xzvNqIzYrxCqVz0pgtHqEWB94oEizhZ2dlXXrbhJiqU0B4ESvFnt5YKt7mlJfvbe/YiU4DquYXm3eRoaoefoNmHmIlfwugdHqsJ0wec4DRRa+kjRiVVZsW3R9Rx93bZIGUD8/f3m0kqff4whL3Nf0iZfwrJeTOPvJoHuZcrFqKa/z3zh90bPZeBIYbcbtT6XyZg8TWSr8Xs9VWUKs2pPIP868YaIGUEed3V25+b2Jv0szj6enOCdhbn/obvcy5eLZz+scuOv67upHh3pfs3OnX/W+IcTS6tmuaCtf7WGiqKuyupff4EelhkZ9iQIoqv6+23L1e+Mk2/TJw4tyzPHi7+F+plueT/devWZF3UP6+DgcH4m9Y1zw1zkdUhitHnWxfvdAkTVRz2qmIVaEYa7laI0ucAlQNIf3bcvd700UEndv0yNelPPQr6JwuPvpxNVWWnfTyroHWXHCq3eMC3Wx2jq6JDDazEOs9uS0B4qsFmJcs3bttEOsG1f9rx+UGt4+stMkDUDR7XEtu2GZ7ecpEyuZ8jC3a8SWLurniW335H7+HEHdb98ds6W8AWa1J2slMNqM26xSx34PFFmu4RTbAqcTYkUA5hqO9uKzD5ukAdR5lUwev8THCjP3Nz3mLVyUiz6296n73M8UO3rg0ULMnzfevrZuQVas7vKOcSHEKpU3SWC0mZ9Q2Fbe4IEi6xZ2dk4ryHLtFFYFaIY771iXu9+cqI1Tz9UKWO1hNVb6xVbiosyJ6xVkbb7LO8fF7YTt5QclMFp9giwPFAXdXqjQYu2iliZpAPUVq1zz+JsRqzLc33S4cVVPbvqY2ljpFQFjkebF9aiRFR+IvWMM1cQqPyV90epV3P1XDxV52V44ldML81A/ohFhoEkagLpYkz1oRW0sBbetxrJ1Nc8iIJ5Jf4wtst4xLm4n3C990eqzEquUnPJQkSed3csmFWLFJMn1Gu2HT18xSYOc12iKUOXYwccqT2/vrWzt31Tp3by+uuVhIvHfiwn5R8f31P0Ep7xf87z+5rz/+i73OAXi2cxTvyryaqzYwnbqxN7Kvl39F8fn/r7bqit64rrE/z5WQcaz9/3HLzU9SC5ijac4zOKnzw9P63q9PLDV+8aQUjIofdHqtJ0wec5DRd7MX/y3CUOson1J8kICxQ5R4tm+t3dD3cKUWP0aE/t4yYoXqi/eed6qnILVxQrRp9xfp8ZZjTVzEZJEUDXVMTrG4lgVGavxoh8cH9xROXPyYMP+nEXdHhd1AL/98IUpX6+4H94vLoZYJ6QvWn1OKGxP1nqoyKM4DWq8OlkRdLlOox14ZosXAsiRmEB3Xd/dlPFuKNiKVQNRBypWbJ39ZNB9+K8YW/P4mxFb863KU3etEWKlaFE+MsRqnXqv1mybd00lap3GdXz7yM66hYJFXlkU9yh+16ZyveLae7+4UBOrlHwgfdEUd4dJTK7HCrJi26Fr5Ks65FWER/ECk4ZxJV6mItyKbTGxHSa2MsZ2mSJtX85rXaxw4tCTnrkWi3uQxzlc3seICICbuT0vPmjE6tnoL9PdHhdjd9Fr8E7lUIsineg4idMJ/yV50RR3h0n+2Ny46n9HhVjdy2/wozJGoV4vBJBt8eU3gqOsvKh2dndVX+QiRI9VA7GqJF6yYvIfYVw9jjlXF6txtty/0XPXYnkNFiJwyfP2wZ4VyyutnvPFNY4Vu5MNDOPPbb5c/n+xdXMyW+hjC6LrdXEl1r8lL1r9Qqz25C0PFkU7uTD+Z9emNtt/ILsO79tWiTEvj1vEYxVB1H2JsCvqskSR+djaEi9gUfMr6nJFLZhzp19NZX2ujbevrfj4QSNEge+8zt8aWd+plSuwmrXNe6rPcoTSE4VaDkc6L1Y7TxT+xX/uWl0MsX6UvGj1C7Hayk95sCjayYWxzdA1qW0qy6SBdNW/MoZdXr9kYWdn9WUxjkmP1V5RYD22Ncbqg/iSHiu/4rSvWP0VAWCsAAuxmi1qn4RYERYBWYiQv5aoNzOeeGnNa10sJ9umIxTJa9+Kk1Ed9NAacQhShO/xwSDGxBgD41mP8dRvzKVrFCshi/hsTiPE+o/kRavjSqxyjweLIgZZeVytoC4WFFO8XMTWPGMYrTDVYsfUX55Xx8T45pAH0rxicGDnA2OuAPa+cYnkRVPcHWYYZGWlZkwrvip5IYDsiJpRsQ3E+EWrxLZOz2JrRW25vPavWEWZh3sUWyN9bMivWKEWW3ttvxRiaU0r7l4+68GiaAXMo8aKa1FbFKL0UgDZENvhjFu0UtQo8yyqudZIsZ0t6/coLSfG0tjTeGNr+vD7HtvaXRshltaQuljJGQ8WRVz+6zr4qg5ZFvWYrCpF3SKixlvePz5m+aTSCOGMFcURoXLUQ4x7n8Yi/kIsLfNtVil510MF5HHpPuRdnNZnzKLVoh96Hlt/Mmne+1nUk8rivYlaSYKM4ol7Hh+arMATYmn1roXV1nHEAwXUWqUWx9R7MYD0ipNEjVekQbykeSZbK4rrF2GrVhbnJk6OLXadWac5CrG0eq7Aai8/7mECxhIvyF4MIJ3imHPFYkmLnhXLPZcpGBOK0Ne23L8xc/dGiFFsivlfcsWcOVdLYbQZbCEsb/IgAb6sg22E4PciH4rwshwrxb96b39m7slnbw4Yq+GCWW3layUx2jS3ECZLPUTAZMRefi8GkC7HDj7mpYjUFTH2bLZeUeouZSk07e+7zXgNF8xu6+iSxmjTO4mwlPzHQwRMxu4dfV4MwDZCGFfv5vWezxS48451hRkbos5U2u/HL1+/5vRYEGJpMw6w2pIzHiBgsjq7u7wYQIrEihdjE2nz9PZez2cKxIenIhXM/vnLowq6gxBLy/kKrA88PMBUnTl50MsBeCECB4Gk3IlDTxZqjNjav8nKOMhSTaz2ZK1URpt8Haz25DkPDjAd+3b1ezmAFvvp88O2EZJap07s9ZymQNSxLFK/iyLvX7zzfCrvxW/fHbOVEIRY2rRXYLUn6z00wHTF0dBeDkBxYBgrSIjaP57TdCha2L3shmWVP868kbr78P7ru4zZIMTSZrCN8FcPDTATUUzaywEoDgwj9axY7jlNkTi5r2h98MVnH07dfXhi2z3GbBiprbxBOqNNJsD6twcGmKnD+7Z5OQB1bmCUeFn3nApPWilC/rR9bItw1/gAI1ZilcqbJDTa+HWwSskJDwtQD7festrLAbTI5rtu9jJEan10fI/nNEWOHXysYp7S+tWzsc3W+ABCLG1KAdbcPg8KUC9/SeareQItEkfJG4dIo+ibaaxHVGTffvhCYceLCPDUw4IUK83tk9RotQOsv87p8JAA9fb2kZ1eEKDJYouM8Ye02tq/yXOaMhEqxoenIvbHKGqfhm2Fu3f0Gbehhtnt5QelNdoYdbDKZz0kgJcVUA8LGumzNwc8p4q7p8rG29e2/PrHn8H4AEIsbfIB1iEPCNAICzs7vRxAkx14ZouXIVLpxlU9ntGUKvpKoOODO1p6/RcsWWLchprbCZNHJDba5QFWe7nHwwE00pmTB70ggJPG4P/FKkHPaDpFsf0i983YVvjT54dbcu1//vKoMRvGKuzeXn5caqONWIWVnPNwAI304rMPe0GAJurdvN4LEamzeOlSBd1TzOl4rdtWGFtsjREgxNImtQorecuDATRamo6whiJQWwWrsJiO2O5Z9H56eN+2pl/3OATHGAFjhFiljn9KbrRqm1Uqb/JQAM0QJx799t0xLwjQJHfesc4LEWphMWVPb++tmLPMr3z74QtNve7vv77LmA1jSp6T3mhD2wh/9UAAzXLqxF4vCNAk9/Zu8EJEasQWtS/eed6zmQFWBJ3XdX13Uz++Fb0eGQixNNsIgdTZ+9R9XhCgSbbcv9ELEakRq3s8l9kQBcaLXhdryPaH7lYTC4RYWiq2EbYnaz0IQLOtu2mlFwRokgiNjTukQWd3l+3kGdOzYrnx44LY5teMax7bF11vEGJpTiME1MWCQjo+uMMLEakY9796b79nMmN27+gzflwwb+Giyk+fH27KCjjXG8ZQSgalOIUu5t6x34MAtEosl/eCAI0X9YeMObTasYOPeR6NH5kXJyz/ceaNhl/3CH1dbxBiacPan/86p8NDkJ0vl7GUu3fz+uopMXHUbxTajADgzMmDlbOfDFa/2AyJ//n7j1+qTjriv/fywNbKE9vuqR6xHl+QXFPSYt+ufi8I0ATxwuWFiKLUE6L+44f54+VidVqjr3tsvXWtQYilDQ+xSskpD0F6T0CJyd6JQ09W98TX+2vPD5++Uv1nb+3fVFm8dKkfSFr6NdMLAjRH1KEz7tAKd96xrikrV2ic/r7bjB9Nro8Vz43rDEIsTTH3VLpy/oLq8ecRLJ07/WrTJyaxmmtg5wOVZTcs82NJU7XNu8aLDTRJjPPGHVpxiIf6h9kXc1T9efT8PXY/qEUGQixNMffCbBGM4Cq+4qRpcifQotli26sXBGi8eNky5tDs1bZR5sDzl31xH/9nzlXGkBFivvzL168JDkGIpTU4wNqj87f2xy5qVGVhUheBVhzLbsshjXTgmS1eEKBJblzVYzynKaIWp5W2tiQXQWy1bMT1jvIfri8IsbTzIdbvOn9rltN/dHxPpk+miQmpwp7UWxw44OUAmuPogUeN4TR8pblTCPMpPjrp47XFoUuKu4MQS2tELaxS8q6O3/yl9HnaLhVfVSOMi62QlpVTr5oSvtZDc8T2dR8jaJToW7aI25JcRDEnbsTH6jiEyfUFIVZxTyNsS5bq9M3Ts2J5pldeTXZ1Vvw93W9m6qv39ntBgCZ58dmHjds05KNdKw6nwZbkNH2U+/7jl+p6vaN2rmvL0EcC10GIVbxthO3JaZ3eMvpGrMyKF6I4Zc79Z7qiD3k5gOatxlqwZIkxm7qtQFHbsDiirqt+P7aoI1vPurcxzxZeEOOsQFOIVcRthH/X4RsvXgqK+hUyik8q+Ml0bb7rZi8H0ERvH9lpvGbGFnZ22j5YMDHPVU5i4jq49Tx5fPtDd7veBQ+w4qTKCEddDyFW0VZhfaPDN377YD1/sLK6Kmv3jj6TG6YVAHs5gOaK8Nj4w0xOZMvCScvUX2wd9QyML2pZ1et6f/vhC663QwOq71muhxCrSAHWep298atIih5gDRe1wOYuuM5Ay5TEaj7PDzR3RYVthUzno0Pea34yviib4VmYWD232QoOldsIrokQqzghVltyRmdXB6IV2wuX3bDMYMukxVJpzw40/4COqOVoDGKyq0t++fo1z07BRR8wbkx+G1g9rvmpE3td74L1neODO0b1A9dGiFWQWljlTTp6Y8RKo8/eHDCZmWCSo04Wk/XEtns8N9ACMVE2BjGe+CgVL9GeF4b0bl5v3JhkGFGvlYtWYxXnlMuxxlvXR4hVjFVYpfJZHb3+uq7vrtj6NPlTsO7t3WDQZUKr16zwzECLRM0N4xC1PtjFaXRRi8VzgsMhpidWrdXjAIQzJw+qO1uAd8y4z2P1AddIiJX79qdSebNO3pj6V5bSO1mFxkzyvCiBIIt0rB6JrYNFPXGZyR3mo6be1ALhKNA+0+v+9PZe1zzH27UnqrHsOgmx1MJiyiKIMXERZNE4jmqH1q+uaJt3jbG6wOFVbBMbbyUADNn71H3GiikeijDTnRwRcqg5m79+Mdnaaa6XECvntbCSv+vg9TWw8wETljqII7n1J8YS21Y8J9BasVpg8dKlxuqC2Xj72spX7+33DDBpP31+2Pa2KYqxdaYrHCNk9rEh2+YtXFT9uD/V+squnRAr1+2/N/aUDl4/Rw88arJSx+XnioEylqif5jmBdBzMERNsL6j5X3kVZRKsgmW6ov94lqZ+UMLPXx6d8apZ43P2CrZvuX9jtdD/dMtnuI5CrNy2K+bMuVrnFmClvdh7FPHWv6j1hdIzAukR4YatK/msQRj1V77/+CX9nBmJU9Q8U9MLsma6Iksdw/SLFXPxgTZCx4nqXQmxhFjFXoXV1nFE566PYwcfM0FpkPjhVhCUWhQShnTWyupZsdyYnYPaK1HHyDhLPXV2dxkbWhRkHXhmi2ufwnE2PhLUK7gSYgmxihFi6dgCrAx94Y+vwfobw8WPvucD0im2QcRXZfVYsrVl8M471lXef32XE2BpiBeffdh40MIgK95ZbC1s7Rh746qeStRPbmRdwQjEXO/zZpXK+6U+eTqRsJTs0bFnLr5qmJQ0R5zGoc8x3O4dfZ4NyMC28Bi/47AOReDT+3K8b1f/jE9Dg4lEfSfB9vR1Xd894yArPjDMXXCde9DE+lZR4zcCxGatbI3nzLUfkjwn+clXiPWrTj0zT2/vNSFpsihyqO8xZN1NKz0XkMFTymIVZYTQccqd7eKtEdu6YrtgnF6mX9JMsX3KM9jaICsC65hDuZ71FwFhrGiNVYexk6QVq1qFWEKsXLZZpfImHXpm4oQVE5HWnILlSz7Di2Da8gL5WJ0RRZ9j0h8rtmJlkC0v9d/GEi+tsYL82w9f0O9ombOfDHq+6xBCz3TlZMyfXh7YWomVQq7p9M1buKi60iquZVrG1vhY5N4IsfK3Cqs9Oa1DT1/sZa538T2mVh/L5IchjnuHfIoXrHghOD64oxIrnyOAsWpr6i+6sYI5tnNGUKhfkRYRVntGZ14UvB6hSQQecT/MrSe3NTB+i57Ydk/1tymtp7ZGUOx+CbFy1a4odczRmWeWtjupp/ViG4r+SIgvX54JKNaK3Aiv4wUifgtiZXRsryn6C1j8/eNUyO0P3V3drmmuQprFNlahSX1Clc/eHKjLPYlAJkJv9+W8+Yv/Vt3yHr8zMaZGMJSl1Y7u4VBh945/SoBycSJh8pwOPf0JoiX46SkU7JhmQpx+5pkAYuVWvITFy0ZsmYuXsVg5nccCxvHiGn+3CKyOHni0GupZIU7WRABtHjNzcXp3PU9rjpVZcdBDEebZMZZG+B/bASOsiuLrEQpm/SNAvK96Ni6EWO3lxyVA+Sjo/h8denriq69JR7qOb9cvWdjZ6XkAJly9FZP6eNGL1ZuxPTFeoCMIii05aVx5ECu/4+UqCgTH1pUIq6JumBVW5MVX7+03j6vjh/bD+7bV/R5FoBPjZdQpzGLd1Kiju3rNimpIFaF/hHPxPpeHoEqIJcQqTkH39mStzjw9sVc8T6uYYnCLGhkxmMePU5wUEyta4v+N/zm+Yr//+q7UH7ftKx4hvhp6IQBmIl5o4rcxPpDE1/j4HYwv8/HiE7+Pt96yuhp6xeqEeDGKAD2+4odYCTHy5WnoPwvx348tjxFKRT2V2KIS/8z4Zw/sfKD68hkBW4RUsZrMqiqKIp4r85j6iRNHG3Wv4p0gAqAYtyIYGjnuzTRwGj5mxseFGDeHRIgW/84YOyOQGnpfib9vHAgSIX+818QYGltV48NFkZ8rIZYQK2+rsD7QmadXGDXLE8rYYhGDekzGp/OjEz8e8UORxgLa8YMaP3z6abHVcxk9ANAcsSLGPKa+IuBxcrPnyrMgxMpRPSwdeTrLc7N6+ln8ueNrSWxJqOdJKLGtIb5ypOXvGV9h9NViiz5p0gIA2RMfWM1l6itWLBV9NZIQy3MgxMpDgFVKHtGRpy6W+Wdt1VWsSoktD42+NjHpiGXFrV6lFj/SeSzcy+RFfzdpAQAv3FyaG6mhV0yxA8czcN7s9vKDkqAsbyVsT77Rkac++GdpOW6EV7H1r9nXKQKkWA3185dHW/Z3j9ol+myxT+ZRQwYAnFTI5SVBzn4yqI8VTNQ11v+FWLYSFlDUWYriqlk53SUNS7HjmkXtrFYU2Y4Ao57bJsmerG77BYCiizl3Gk8JzYOYH5sjFUssbND3hVi2EhZQHMGd9gEqgpsIjdL2ox9hVmzDbPZe/DidRN8trrj/Ji4AkE1Rx9V8pnFz8zh5VT8rhij3ot8LsWwlLJg4xjXt2wjj6NT4c6b9y08cedusaxmhWRzLqw8XUxxXb+ICANkU9ZvM4xp7WNWxg4/pawUQ71/6/AVtV/1DGmQrYSFEMby0LxGNLypZuZ49K5ZXtzw249rEyjR9uLh1H0xcACC79u3qN49rsLjG+lq+Hd63zXM0dDphqbxJGmQrodUcLRYFzLNYMyD+zLt39DW8+HbU41JTobicwgMA2RXzxAVLlpjHNdgT2+7R34TBBVmJVd4gEbKVMPf7xX/49BW1Ahq8WqbRxSUjiNSfi0m9BwDIttjyZk7TeFv7N2XqFHYmL2oT6+MXVmK1J2slQrYSWl7bIvHFJE978mNFWaN+OD97c8DA7UAGACCDYn5446oec7km6N28XpCVQ8qrXFbYvUcilLH2p1J5s847ObF0udFb3aZr71P35XIgWnfTyur2v0Zcs87uLoN3AcVqRZMXAMi2qKWqPERzbLx9bWrfgbD4YcYhVltHl1Qoe/WwTui8kxMF8NI4COX9iNT5i/9WXTnViNph+nXx3HrLapMXALCahCl+WI5TvvW7fIitovr1he2EbeVrpUJZq4dVSn7VebO7CuvbD1+o/CWZn/tBKP6OcRRsPa9dFPj2Ba94FnZ2mrwAQA5EqBK1VM1vmiO2cP785VF9LwfUB77kirby1VKhTK3CmrtIx81uHZ344S7alrjYClbPffl33rHOAF4wEVxaEg8A+fD+67vM5Zpo2Q3LGlbqg+aJWmf683lSocwVdE+e03Ent50tjS+9eTiJcDo233Vz3e7HiUNPGsALKFYwmsAAgBdypi4+oqf5tHYmFnXO9GUhVja3ErYn3+i42VyF9cU7zxd6K1zsy6/HcuZYzVaE7Zhc7qPje0xgACAnYmXQlfMXmM81UWzjFGRl1+o1KzwvQqysrsTSaScyd8F1qVuFFdvpelYsL/zAE8uZo66VLYVMVRyGYAIDAPkRtVPNcQRZTE68R+nDQqzsBVht5Q067cTi1JO0DTrHDj5m0Lmg6/ruGQdZeT/dkdFefPZhExgAsLqEOmwtVCMre4pWV1mIlZui7smgTjtxAeiznwwadHL+4xnbEm0pFE4DANkWq4JsKxRkMbGo+azvCrGyVw+rLTmj044vCt6lbcB5+8hOA04DVmRFjS3XsTi23L/RBAYAcsihPa0LsupR5oPmEPYKsdTDyqk4stcy6ey4cVVPtVD7dK7rgWe2uK4FEnXQTGAAIJ/6+24zr8tomQ+aQ389b3Yp+Y9kKDtbCVfptBMXKowC6mkabL7/+CUDziROLZxOIf5vP3zBtS1Y4GkCAwD5FB81Yy5vziPIovbzoa9eDLHOSYcysworeU6nHd++Xf2pG3CsFpqce3s3TOv6zlu4yPUtUEhtEgMA+fXFO89Xor6teU9rThCPmrP6YTpFyKifXgyx/i0dyko9rFLymU47vjQWdO9ZsdyAM0m7d/RZes6YFixZYhIDADm396n7zO0ytjuCxov3XH30QojVlpyRDmUnxPpdp83WViODzdQdH9wxpWt87OBjrnFBxKo7kxgAyLcoDaKebGsPyUpbeRaUUbksxGov/0s6lIE2q618rQ47vheffTh1g00EMu7N1MQS8s/eHFBzjFHiRBaTGAAoxqoTJ7G1Tux00A/TJd6P9M0LSskpCVEG2p9K5c067PjBxw+fvpK6weaJbfcYbKZh/uK/VX76/LC6WAixAKCg3j6y0/yuhZ7e3qsfpsj7r+/yPFxciZW8JSHKxsmEgzrs+Pu30zjYWAo9fXHtJruUefNdN7vOQiwAIGeiXqo5kEOzOF45cehJz8Klwu6vSYiyUO2gftMAAIAASURBVA+rPTmtw47t5YGtqdzP3zbvGoPNDMRKNidAIsQCgOLWx7r1ltXmeS109MCj+mIKHN63zXNwaTvhoIRIUffMi7pIaRto4oha92bmPjq+xx5xFHYHgII6d/rVysLOTnO9FpZtia1s+mJrxao4/XFI8pyEKAvbCXXWMXV2d6VyoBFi1a8+VlzL8a71L1+/VokfWNcr32ICaxIDAMU8mc0Oh9auho97oC+2TtQo0xcvrsR6REKU9gCrrbxBZx3b9ofuFmLlXNS8muh6R5jpWuXbshuWmcQAQIELvfto2ToLliyprorTF1tja/8mff9iiDW3T0qU/q2Ee3TWmW03E2Jl37GDj417ve/t3eB6O8ABALCliga5cVVPdQeEvth8vZvX6/sXzCqVN0mJ0l/U/S2dtba/JPMrv313TIhVALGE/Owng4q7W5EHABSYD5etFddfP2w+Bxxctp1wlZQo/Sux/q2zZm9lhhCr/lavWVE9pabW9Y4Vea6RrcMAQL7FB+x4BzA3ap3dO/r0xSaLVXD63nmz2zq6pESKumfW3qfuE2IVTKy4qnW9f/j0Fde7oPceACiWmGd3Xd9t7tdCxwd36ItNpP7vJVe0la+WEgmx1MMSYmVqW2EEVrWuuVNr8u3EoSdNYgCAix8wo9i4OVLryrp88c7z+mKTzFu4SF+/QEKU+npY5R4dtbY4nSTNhQWFWM2vjWSZbb6ZKAEAw3374QuVK+cvMP9rkYWdndV3Hn2x8SI01OeEWFkJsR7UUWtbdsOy1C9zdp8a5/3Xdyn0KbQGAAouPnJ5wW+djbev1Q8bLObA+poQKzNtVqljv46azSLPQqzGWrx06aiTKR27nF9RB8AkBgAY64Cf+OBlztQaAzsf0A8bKE5o18+EWBkKsZJ3ddTajh18TIilsP9l1zxqJrkujnMGAIrn7SM7BVktXDGf5lrFeVhtqJ9dOJmwlPwqJUr7dsK25IzOms36OEKs5hSUjC8TBvj8e3lgq0kMADCu+MgtyGqNKDw+1uFLzHyloT52McT6UUqU9hCrlPyus9ZO+0duJUub+PO5V4135x3rLl7zc6dfdc1z6vuPXzKJAQAmdPTAo4KsFlm9ZkXljzNv6Id1ZrfJsBCrPflGSpTypqNmuz6OIpPN8dmbAxevedu8a1zzHNY/M4EBAKYSZJlDtcbuHX36YJ29+OzD+vOQUnJKSiTEUh+ngeLl2/1qzlefoWvedX23a+4QBwBAkGVO2KIdM2kv+5I1UQdY3zovaoZLidK8lbC93KOj1han0GVhwOlZsdyA0yTvv76res3jmF/XI78r7QAAbC1M/yr6X75+TR+sk/igq19d0NZxRFKU6pMJy5t01NpiX3AWBhyBSvMsu2FZdQ++QT5fYmWdyQsAMJN6QoIsK+mzrHfzev33UmH3PZKiNIdY7eXHddTavnpvfyYGnC33bzTgNNHxwR2VOMXOtXAqIQDAkLeP7FSrtgXiVD39b+bW3bRS371UE+sRSVG6V2Lt11Fr+/nLo5kYcAZ2PmDAaaKFnZ3VSYprkZ+jmi1FBwDqIQIVBwA1fy6Xlfc2JWqy4U+l8mZJUZqLurd1HNFRR5u74DrHoTImwWF+HN63zcQFAKibqLN55fwF5ooO5MqUBUuW6LND2wnbyz2SolSvxEre1VFHiyQ6KwNOnMzhnjW/kKS6B9nX2d1VrXFm4gIA1FOUJYkVQuZbthVmha2wwwu7J0slRak+nTA5raOOtvmumzMz4MTyWfes+XytcDQzAMBYvv/4JatbmvyR+bfvjul73idnTEqU9hCrlPyoo2b/pIvY/ui+NZdl4oq5AwCM54dPX6nEym9zr+bY+9R9+t00nDl5UB8VYmUqxPpdRx1t365+p0lATvX33WbCAgA0xbnTr1aW3bDMXL0JYktcrIDT76bm1Im9+qcQK0OF3XXSmo4dfCxTA88T2+4x8EAOV1kCAPnYrrV6zQrz9Sa49ZbV+pyDwqZf1L2U/ColEmIpDNgEEbq5bzB+DaysrbAEAPLjl69fq0TAYl7WeBHK6HOTF2U29JuhEKt8VkokxMqkrBV8/vbDFww8MIYbV/VUTwkySQEAWikKj8cBUuZnjS/y7gTqydu9o0+fvLQS6zMpkRArk85+MpipgScGaceiwuXiwIMXn33YJAYASNW8/d7eDebtDvFJja39m/THoRCrPXlLSiTEyqTYt561wcc+e7h0cmScThPL9k1MAIA0Bllx0Ix5W+PMW7jIXHCS7rxjnb54aTvhISlRitsVc+ZcraPWZhkoZE/bvGuqz0EWQ2gAwAoY6is+aupnE4vSG/rLkOQ5SVGK26y28rU6ae1VHFkcfKIYvftHES1YsqRy4JktwisAIHPi5GTzucZ94Dx3+lX9bAILOzv1wYvbCcsPSopS3Ga3dXTpqLVfiLN64kmcwOYeUhQ9K5ZXjg/uUPMKAMi0p7f3msM3yBPb7tHHJqC28iWzSuVNkiIhlhDLUlComwhq41SfUyf2mnQAAE6IY1wR0FiNNba4NvrJMKVklaRIiJXJI1mzOgjFvm/3kDyav/hv1f79w6evmHAAAIIs1Maqg6/e26/PDV+J1Va+VlIkxMqcruu7MzsIffHO8wYhcmXdTSsrbx/ZacsgACDIYlrmLriu8tt3x/SvGt5/fZf+NoyUKO2F3duTtTpqvkKsEMfJZv0eRHFB9b2KvaU3JnDff/ySyQUAoEYWM3b0wKP6Vg1xXfQPIVZm2p/bkqU66mir16zI9EDU33db5geiKNZ99pPB6vax2N6pXxajXsG9vRuqp2xadQUACLIEWfUuGWOOqRzNuCcTlpL/SIlsJxRitUBsvcpDiDX87/TZmwOVrf2bKlfOX2CQzZk4jODwvm2Vn788aiIBACDIaph4T9KvLhfvWPrGhRCrPflGSiTEymwNniwPRLHfO+thz8gQa/jfLf6zuEe2G2a7SHtMys6cPGjyAAAwjie23WPOWye33rJanxph4+1r9a9LK7E+kBKlfTthae4inTWfg1vWtxSOFWINZ7uh7YIAAFbLMFnxEdxJ15dbdsMyfWtIW8cRKVHK2xVz5lyts+ZvO2EeTpmYTIg13KkTe6vBXdu8awzCKXyebBcEAJiZ+Bhobjlz+3b160/D5OFQsHqZVer4p5RIiCXEapFY6RJHyRYlxLLdMF3ii05MEGK1nMkBAEB95veb77rZ/HaGOru79Kdh7076xDCl8v9JidIeYpU65uistQtN2z+fzRDLdsPWnviye0df5dsPXzApAABoUOgQpU/MPWcmDo3Sn86/L+kPw0OsZJWUKAt1sXTWUbqu787FoBRhQpFDLNsNGy+WH29/6O7KF+88byIAANAEv3z9WiV2jpiLTt+W+zfqSxfekfSHYdsJ28rXSoiEWEKsFsvqD1y9Q6zhP/rHDj5WvS62G05PnHwZgaAC7QAArRG1RuOdxdx0+h9izWOPV9+L9IdLpENCLPukU+DogUeFWLYb1uVkwajB8PaRndVl7CaPAACtFafsmcfaUjgTAzsf0H+EWEKsPFiwZEmu9s1nscB7M0Is2w0nDq7uvGNd5cShJ6sr2EwWAQDS5fuPX8r0YU6t9PT23sL3n639m/SdC2aXkv9IhzLS/nuzftdpR2+XytPgFMW2hVhT325YzzAoayuuBFcAANkQtUmzNN9UQiY9HBIwLMRqT76RDmUnxDqn014uaiXlaXD66fPDmav/1KoQa+SXrQgAZ7pMO7anCq4AAGiUqFWq3uvUxXy/yP0m7e8pTS3qXkrelQ5lJsQqn9VpR8vby/y9vRuEWC3abhgh0bqbVlYEVwAANMrhfdsEElP04rMPF7rPKKUyfDth+ZB0KCshVnv5XzrtaFEoMU8D1Ffv7RditXC7Yfx9Wl2vQHAFAJBvUefJu9zkxdy4qH0lTrjUB4avxOr4p3QoO9sJP9BpR/v2wxdyN1BtvH1tRYhV/+2GcRDARH+f7Q/dXT3Zr9nXMb6uxCo8wRUAQDFkac7vQC+LHFKjNLdPOpSV0wlLyQmdthhHrkbRRyFW/f1x5o1qHYLxthvGfvNmnQASK7623L+x8v7ru6qnU5rMAQAUR3y47FmxXEAxSWc/GSxkP2nFB/aU18T6u3QoOyHWoE47WgQATqAQYtVzu2FsUY1Q6cZVPXW/B/MWLqrEaq8I0yJUM4EDACiumHfG/NB73cRix0IR+0jUA3P/L5EMZWk7YVv5KZ12tAgi8jhYxQozIVZrthsePfBo9X9/7vSrMz7xMMQ/I+oe5HHVIAAAM5/3O7FwYvEhuIj9I/7e7r8QK6Mrscr/p9OONrDzAfvkhVh13W44/O8UNdeunL9gyvdh2Q3LKnufuq+6h93kDACA8TixcGKxS0LttKKfTJj8RzKUoTarPVmr4xYrkY8AJe1fZfIUYo3l1Im9lTgxcLzrEPdp3U0rq8t9i7pfHwCA6Yu6rd7vxj8IqYj9ouv6bv1iKMRqL/9LMpSplVhzF+m4xTtuNe0/ZkUIsUKs0BoZZMX/HP0vtrTG1kOTLwAAZlKzNQ4Z8o43tqghVrR+MdHH9GKdTJickAxlLcjScQu3rDQG6jQPXEUJsYZWZEV9qwgW45QQJwoCAFDvnRhCi7HFfLxI/SHeBd334ZLnpEJCrMyLYtx5H7yitpIQCwAA8u/lga2CizFE7bAi9YWsHPbVvJVYc/ukQlk7obCU/K7zjq5FlPfBK1b8LOzsrAixAAAg/1avWSG8cEJh9cAp9/2ymlg9UqHshVg/6ryj/fT54dwPYLF9TYgFAAD59/3HL1WikLl3vcvFSX1F6gdp3pHTCle0la+WCmWuuHtySucdLZZZFmEQS+PxqkIsAACovzj12rve5XpWLC9UH7i3d4M+MIxEKJsrsV7TeUeL0+GKMIid/WQwdV9khFgAAGBboXrI7n9DtxKWkl8lQlkMsdrKT+nAo+3e0VeYgezAM1uEWAAAUABfvPO8EGOYOLmxSPd/7oLr3P+L9bCSbyRCGWyzSuVNOvBovZvXF2Yg++PMG5VYRivEAgAAJUWK5pevXyvEfY+/p/t9yaxS8q5EKJMrsTq6dGB7o7/98IVKfIUQYgEAQP7n/t75Lomi91bhFTHEKu+XCGW1uLsOPMqV8xcU7sfs5YGtQiwAoFB+++5Y9dS2c6dfdT1QG6mgItQrwj0/cehJ93y4tqv+IQ0SYuVKESczt96yuiLEAgDyLg632dq/6bKV6PMWLqo8se2e6n/mGpF3Tios3sn0e5+6zz0fvhKrPVkrDcruCYU/6sSjnTqxt3A/Zj99frjlxf6EWABAo1cjjFdG4X/mXFV92YtVWq4XeRVzbu98xQqx7u3d4J4Pc0Vb+WppUFZXYpU6TurEo8X2uiL+oL19ZKcQCwDI7TwnQqrJzEm6ru+uFKVWDsWTthPKW+n913cV4p6n6TCvNJAEZXolVvmQTjzalvs3FvZHrb/vtooQCwDIkygVMdUV523zrqkGX64feRPbab3zFSvEirrP7vd5s0vJOUlQllditV31Dx3ZCYXDxfGri5curQixAIC82P7Q3dOe28SqFdeQPFl300qBxgWxxbgIIb57PUwpOSUJynCbVUr+riPX/vL2x5k3CvvDFqd0xDUQYgEAefhAN9N5TYRgRZ4bkh/Rj63KKdZKrKj75V4PP5mw44gkyAmFuXTm5MHCFz4VYgEA5jTnbbx9bTUQc00RaDjQK0uOHnjUPb98JdYjUqDsn1D4u85czKWlE3l6e29FiAUAZFmET/UsOREnOruuFHFrrdMJs+mJbfe458PMak/WSoGyHmK1l/+lM48WAY7lxm80dc+8EAsAqPdcpt4lEhZ2dlZLL7i+ZM3PXx61lXCEIjzLt96y2j0f7q9zOqRA2V+J9ZrOPNrqNSv82F0oBBiTNSEWAJA1UR6iEXOWCAKKcqoZVmEpIZNtC5Yscd+HkQDloSZWKXlEZx7tL8l8BTwv+Oq9/ZW4HkIsAECNz/P+Z85VlZcHtrrOZMLbR3YKMmqI1Wl5X33nPl8yu5SckwDlYzthjw5d2xfvPO9Hb9gPX0zWhFgAgPqeTi4kO1tqX3z24aZ8kM7iooW833+F/EcWde84KQFyQmGu+bp2ucP7tgmxAIDM6O+7rSkvcFFzJu8rOsie7z9+qRIlUrzX1bZ46dLc9wEnE446mXBQ+pOfuli/6tSj3du7wQ9gE79oCrEAgHqq58mEE+ns7lLwnVT45evXKrt39Fl9pQayOmgjtxO2lx+U/uSnLtYpnbr26TN+CEeLcE+IBQCk3Y2reirN3p507OBjrj0t2zoYK2/mLVwkuLBgoaqZJ81nZCXWKulPbrYTJs/p1LX98OkrfhRH+O27Yw0ZEIVYAEA9xXahVswfYxtjrIZxD2jW3DzKfjTrRPG8iNVqee8b8xf/TZ9wMmFei7sn63Xq2uJrhh/H2suU6/11U4gFANRTK1/qI0CLosruA40SddgOPLPFyqtpitNL894/3GchluLulpkyYmDsWbG8IsQCANKo6/rulr7ExcnOT2y7p7pSxv2gXr56b39ly/0b1byaoSh8n+d+4mTCEfWwSsmPUh/F3Qshvmz4sRzbudOv1m2CKMQCAPIUYg0v+n7qxF73hBl9PI4dIk4brI+2eddUa4jluc84mXBUiPWB1Edx98Jw0szEQVZMzoRYAIAQa2y9m9dX1FtlKoXa3399VyX6jVVX9RW7SfLef5xMOFLynNRHcffCePHZh/2QTiAmZDMtnirEAgDqqdmnE052Bci+Xf22GDJmkfYIrmK74NwF1wkhGiQCnrz3JScTXm5WqbxJ6qO4e2FsvH2tH9VJ+OnzwzP64inEAgDqafNdN6f2JW7BkiXV7T5539LExOLApCgyHrV4r5y/QPDQBG8f2Zn7fuVkwhEhVlv5WqmP4u6FEct3fS2b/NbC6RZ7F2IBAPW0tX9T6l/iYiX7sYOPCbMKWJw9VuRFjas4AMA7V3MPXIgaY3mvoeZeO5mwKMXdz+ngxU3r6/k1aTpFJ4VYAEA97X3qvsy8yEV90ViZFfMo9y5/4iS8uL+x2ioOjvJ+1TrLbliW+/7mZMJRRd3PSXvyG2Id18lr6++7zQ/wFIOsW29ZXRFiAQCtksXTuWI72RPb7qmc/WTQPcxwQfY4GOrwvm3VouxCq3SJ5yvvfTD6nns9vB5W8q60J7cnFM7t08lrix8fy7ynXpgywj8hFgDQClEgO8tbnqIua/wdzEHTLQ44il0bT2/vrRbTjuL93p/SK1Yp5b1POpnQyYTFCbH+OqdDBy/2gNcIu3f0VYRYAECzxWqmPMxB45S6OK3uo+N7BFopWGEVRdgjsIpdB1ZZZUscqFCEvupkQicTFm1L4a86enGXnjZyOf9ERSuFWABAveVtVUyEJlGwPlZonTl50OFDDdpNMBRWDex8oFrHKuooxWFP3omyLVYoFaEPO+XSyYSFarFfVEcf+/QYP+zTF18P40uiEAsAaJYbV/Xk/mVu/uK/VQ/VibAlitnHaYenTuytbnOzcqu2OFH7i3eerwZVB57ZUt1+FSurYr7vtMD8iueiCIcIuNdOJizWSqz28oM6+tjix84P/8yW9ceXLCEWANAMsQ2vyHPXCGQimImAJq5FhFyxQj4+LsZqo7ydhhirqGK+GWVAok7VywNbq6Utok5r1Bjrur5bzSoLEnItgln328mERSvuvkhntwS1kWKyFCe1CLEAgEZ78dmHvdBN4kTECHeGgq4IfSL8iZfhWLny1Xv7q8FQrF76+cujdRWrxeKfPVx8NI4QKoK2CKLizxGnrcW93Lerv1qPKv6cd96xrroCLf7sUevIdj/GEyvuijDmxfPhfjuZsHhBls7ulMImiB+S4cu1hVgAQL1FIGIOC8UW7xwRwhZhzIsw2j13MmEBV2N1nNTZxxaFNE0K618nS4gFANRbfHy0QgeKLXaBFGXMG68GsZMJNXWxCiqKZpoU1s9Pnx+uHgMrxAIAGsFx86CucVHqD7vfTia0pZBRohhk3opgpuWUGNcBAKi3qPFkDgvFFNvrijLWRQ0599zJhMVdjVVKftTpxxanupgUAgBko3yB+SsUUxxOILAv7MmEP0p2ClUXKxnU8cfWs2K5SSEAQAbECnp1saB44vTKIo11G29fa5wbrpSckOwUqy5Wj45vbzUAgBO7gCz67M2BQo1z8xYuMs5dHmI9ItlRF4thtty/0aQQACADDu/b5uUOCmTzXTcX7rAs933kyYTJ36U6xauL9YHOP36B95+/PGpiCACQcj98+ooXPCiI/5lzVeX7j18q1Bj3/uu7jHGKumuz28sP6vzje/HZh00MAQAyYNkNy7zkQQE8vb23cOPb3qfuM75dXtT9V4mOLYXUsHjp0sofZ94wMQQA8JIHpOD9LA5zKNr4ducd64xvl4dYH0hzirul8N8egvGdOPSkiSEAQMp9++ELXvIg5z46vqeQ49vCzk7j2+Uh1h5pTnFDrD0egvH1rFhuYggAkAE3rurxogc5dW/vhkKOa+dOv2pcG1nUvT1ZK80paLuirXy1h2Bip07sNTEEAEi5lwe2etmDHFqwZElhD92K1Wf6gKLu2mWrscpnPQjju/WW1SaGAAApFy+5f0nme+GDnJ1GWORFBft29RvTLt9K+LsUx5ZCWwon4av39pscAgCk3Oa7bvbCB04jVNQ9ryFWe3JaimNLoS2FkxCDh4khAEC6vX1kpxc+yIl1N60s/Gnx8xYuMqYNr4dV6tgvxdFiNdaPHoiJffHO8yaHAAApFi+8i5cu9dIHOaiDFUXNizyeff/xS8ayEf5UKm+W4Gi2FE7hS4DJIQBAur347MNe/CDDoradci7HK8cHdxjLRoidZBIc7f+7Ys4cWwonKU6HMDkEAEivX75+rXLl/AVe/iCjIrwxlh2vbH/obuOYkwk1WwpnpmfFcgMqAEDKPbHtHi9/kEHx7BrDzlt2wzLj2OVF3b+R3GgX26z28uMejMk5cehJgyoAQIqd/WSw8j9zrvICCBmy8fa1hS/kPnxFqTFshFIyKLnRLmsejMkXGYxBxeAKAJBevZvXewGEjLhxVY93rGGijI1+MfJkwvImqY02ckvhBx6OyXl6e6/BFQAgxb798AUrGSADuq7vrvz85VHj1jADOx8wdo0s6l7qmCO10S4PsdqT9R6OyYkJ0ZmTBw2wAAApdm/vBi+CkGKLly6t/PDpK8arEWJrpf4xrB5WKfldYqONtRrrVw/J5Ky7aaUBFgBAbSxgGuYuuK7y/ccvGatqcMLqqHpYp6Q1Wu0C76WO/R4SRd4BAPJia/8mL4OQwgDrq/f2G6NqiB0/+shIyXPSGq1mu2LOnKs9IFMbfH/6/LDBFgAgpWKu9pdkvpdCSIlYZSTAGtuxg48Zr0YWdW9P1kprtPFqY33jQZnaUbAGWwCA9IpDecxbIR0B1hfvPG9csnp0SqQ02gQhVvlBD8rUHD3wqAEXACCl4uSzeQsXeTEEAVbqxWmN+stlRd3PSWk0Bd7rrG3eNdXCoQZdAIB0Oj64w4shtEiEyAKsyQXuDqMYEWK1J29JaLRJFHgvK/A+RavXrKj8ceYNgy8AQErF6dLmrdBcsbLIB//J+ej4HmPUqHpY5cclNNqkmgdm6p7Ydo/BFwAgxad+KfIOzRPBcawuMv5Mzt6n7jM+jVyJ1dbRJZ3RJrkaK3nXQzN1Jw49aQAGAEip3Tv6vCRCE2x/6G47Vabo1ltWG58UddemvRKrLVnqoZm6+Lr37YcvGIQBAFLot++OVRZ2dnpRhAa+Dx07+JjxZooi8Itay/rQ8FVYyRnJjDbFkwqTbzw8U7d46VLLZgEAUurUib2KJ0MDLFiyRAH3afrszQFj0khtHUekMtoUV2OVN3h4pr//O770GZABANLn6e29XhihjjbevrZy7vSrxhf1sOrmT6XyZqmMNvXVWKXkRw/Q9Ady+8ABANK5rbBnxXIvjVCH7YMvPvuwcWWGnJ6qHpZWrwLv7eXHPUDT1993m0EZACCFnFYIM9PZ3VX56r39xpM6hOrGohH1sErJf6Qx2kxWY/3qQZq+WK5ucAYASJ/D+7Z5cYQpippyT2y7R/mUOtbp069GhFjtyVuSGG36tbHak+c8SDMzsPMBAzQAQApFCQjzVZj8IVZRhNzYoR5WY0Os8oOSGM1qrBazVxwAIH3iVOl4MTdfhYlXX/3y9WvGjTpbvWaF8WeEWW3la6Uw2sxqY5U6/ulhmrmjBx41UAMApLA+1pXzF3iRhBpuXNWj9pV6WIq6a1ZjFfULxolDTxqwAQBS5v3Xd1VirmbOCufNXXBdtW6cE9cb56Pje4w5I5WSU9IXzUmFgiwAACZw4JktXijxvnJh62BstTUuNNbuHX3GnJFbCUsd/5S+aFZjCbIAAJiE/r7bvFRSWHHQwfcfv2QsUA+rhSFW8nfJi2Y1liALAIBJ1qiJGkDmqxSt7tWpE3uNAU0URfJtYVYPS2vOaqz/eLjqF2QdH9xhEAcASJFzp191YiGF0HV9d+XtIzs99+phpcLs9uQbiYtW9/bnUvKIB6y+Xnz2YQM5AECKfPvhC04sJNfhVewKUbS9dZ7e3mt8GbWVsLxf4qI1ajXWvz1k9RWDmMEcACBdKyVs9yFPelYst/IqJWxbrqGtvEHaojWoNlay1kNWf1FI1NcQAID0iBd+QRZZL2ESBdsjlPVMq4elHpZW5G2FpzxojTkRJAY1g3tjxZHBX7zzfHViGkupQ/z/43/nOGEAYLiYJ3jhJGtiO+wT2+5x2mAKvf/6LuPJyHpYpeTfUhatoe2KtvLVHrbGnQ4iSKmvnz4/XDl64NHK5rturixYsmTCH4347/RuXl/9v4nirq4hAAiyBFlkpd5VzGF9GE+v7Q/dbSwZqZQMSlm0ZqzGGvTANUZnd1flh09fMcjPUBwVHGHUTCad8X8b/4zP3hxwTQGg4PMKxd5J65bB+FgbfdSzmn5OP1UPS2ttkfdfPXSNMW/hIsHJDL6WLrthWd1/HOKfGf9s1xgAiumr9/ZX5i/+mxdQUiHmpnHSuY/f2RHbO/Vd9bC0VhZ5L5U3eega5y/J/OpyYAP+5MRx2KvXrGj4D0P8O+Lf5ZoDQPFEYNCM+QaMVfYiTjY3F82mlwe2GjtG1sNqS85IVrTmrsZqT057+Bpra/+mym/fHTPwj3PCR+wtb2ativh3xb9TvQEAKJ44UVpdG5pZpH3L/Rur2wWdZp5tcZCXPn25WaWO/VIVrRXbCn/3ADa+4HsUKDf4Xy5OFGzlvvIonnn2k0H3AgAKWsJg7oLrvJRSd9Gv+vtuq56g7WN2PsR9bJt3jfFidFH3VRIVrfkhVlv5KQ+gOlnN/gK696n7UnFSUHwd++j4HvcFAAooPjLeecc6L6bU5eNobBWM+b4VV/kT7wv6uXpYWrq2FX7jIWxOnazYS13kH4BY+ZS2WhQRpu3b1e8HGgAK6vjgjkp8cDRfZSrzx3U3rawWZ7eyP/+e2HaP8WFkPaz28r8kKVrL2hVt5as9iM1z6y2rC7m9MCaIaT7eOo43VicLAIpbpzNW0qRhpTjpDK3iRMEIM2Kb4M9fHvXcFEistPMcjAixSskeSYrW4tMKO/7pYWzuXvmoxVCEQT9+5O/t3VDJylLwOD7XjzUAFFPMA3o3rxdmUZ0XxiEAQqtii1NNPQ+1ironf5eiaCnYVlj+lweyuaLoY55X/8RJLHGccNZOkXn/9V1+tAGgwL798IXqRzhhVnHKfsRhTBFaxYfmc6df9RxQdfTAo8YA9bA0pxUy3MLOzmrYk7cl+bHcOqsTv/hzR/F5P9wAYGVWBBtpLonA9LYGbrl/Y+Xwvm2Vr97brxg7Y4qSI56bkfWwktOSEy017c+luX0ezNb8mG7t35SLrz4RyC1eujQXg32cWKROFgAQ84EIPCL8MHfNjrZ511R6ViyvxO6HKMIepwf+9t0xfZpJiXBTgF0jxGorPyU50dJ2WuFbHs7W1cqKJatZ/BoUk7sI4vJ2Tzq7uypnTh70Qw4AVMW8YPeOvtx8tMvLdsAIq2ILaJw6HaUhnBrITEXo6fmqoS1ZKjXRUritsHzWA9o68SP8xTvPZ2aAj4lC1mpfTfUrXhT19GMOAIysnRWhyeo1K9TPasJ8LFbCxfauKFsRK+M+Or6nuuXTdkAaIcJqz96oUwl/lZZoqWxXtJWvVh/LFsPJnNYRJ/gU5Z5EnSyTJACgljjBLj56Pb29t1okXKg1tXnv/MV/q163KOcQdcgiHDw+uKP6YVehdVrB9uGapxK+Ky3R0lsfq+2qf3hQ0/HVKSZDafrxjiDnwDNbKvFnK9r92Hj7WscsAwATitpLEcBEqYgIZdbdtDLXK9drzWHj7xs7DG69ZXV1q19ch/go+PLA1mrgF9fnp88P+0hI6kS/9C5aQ6n8f5ISLe2nFb7mYU3PRCCWtLY6QImtg1Enqsj3ImpgxPYBP/AAwHTCrZhHRIgTAVeEOrH6PlYgRdAVoU/MNeYtXFQtKh3qtaor/jlD/8zh4t8V/84Q//4Qf5YQH/BiC1+EUPHnjI+rAzsfqBZKjz//iUNPVrf1Rf2g+HvFSn3F08m66NveQUeTkGgZKfRe/pcHNj1iohFhVqtWZkXhTPfhfBF+QRYAAORPhLfeeUbVw/q3dETL0oqscx7c9J3CEl/Eml0AfmFnpwH9glgiH18b/dADAEA+xKnrPtzXqodV3i8Z0TLTZrWVr/Xgpvs0w2MHH2vK0u0ouOmaXxLXQx0HAADIh9gi6z2nxkqs9nKPZETLVpDVnqz18Ka/blaszooaC40KtKImgmt9uagN4QcfAACyL96nvOOM2kr4u0REy2p9rAc9xNmpndXfd1s10KpnMfg4Vcb1HV0ktdnbOgEAgPqKHRbxHuUdZ+SphB0npSFaZtuf25PnPMjZC1liy2GsGIrTY2ZSFH7frn6D+hjbCv3wAwBAdsW7knebGtqu+ockRMt6offjHuZsm7/4b9VTNyLYenlga3XF1tCxyEMrt2JLYvz/z34yWDlz8mDl/dd32U44jtg/78cfAACyya6T2iQgWk62FiZveaDh8gL7fvwBACCb4vRx7zWj6mGdk35o+dlaWOo46cGGS06d2GsCAAAAGRM1br3P1AqxyockH1rOgqzklIcbztty/0aTAAAAyJjdO/qEWDXMak/WSj00QRbk+FTIONXERAAAALKj6/puIZZ6WJqthVA8n705YCIAAAAZEQdZeY+p4b/v+JIOLddtVil518NO0e3b1W8yAAAAGfHisw8LsWqGWHP7pBxa7ptTCym6jbevNRkAAICMWL1mhRDLVkKt0EFWKTnuoaeoOru7TAYAACADzp1+tfI/c64SYo08lbA9+UayoRUtyHrNw08RxY+g4u4AAJB+Rw88KsCqdSphqeOfUg2tgEFW+ZABgCL6+cujJgUAAJBy625aKcSq4Yo5c66WaGgFLfZe3m8QoGjihBOTAgAAsJUwc1sJS8k5SYZW6PbnUvKIwYAiOXPyoIkBAACk2OF92wRYNU8lTAalGJoVWaXyJgMCRfHDp6+YGAAAQIo5lXCsou7lHgmGpkWNrP8+DLNLye8GBvLul69fMzEAAIBpbvN7eWBr5d7eDQ37d8RHZ1sJa24l/F1yoWnDV2S1la/974PxqwGCvGqbd43JBwAATMFv3x2rnDj0ZGXj7WsvhkuNDLFefPZhAVbNVVjJW1ILTau1KqtUPmuQII+W3bDMRAQAACbwx5k3Kh8d31Pp77utcuX8BaNCpaMHHm3Yv/vGVT1CrBr+VCpvllZo2pjbC5NvDBTkTSO/GAEAQNZ9++ELlae391YWLFlSacVhSXGSuPeW2qQUmjbhiqzkA4MFeRKnnJicAADAJV+883xl946+Stf13ZMKkOYuuK5hf5YDz2wRYtWuh/WZhELTJtHiCE+DBnkRX5ZMVAAAKHqNq/df31XZ2r+pMm/hoimHRnfesa5hf7aeFcuFWLVPJXxQOqFpk95aWH7QwEHWdXZ3mbQAAFBIP395tHJ8cEdl8103V+Kwo5nMq6PweiP+jN9//JIAy1ZCTatbkNXj5EKybO9T95nAAABQGF+9t7+6PW/dTSsvnipYDz98+kpD/rz7dvULsWqfSnhaIqFp02hXlDrmzC4lPxpIyJr40Y4ikSYzAADkVaxkihqwvZvXV6JuVSPm1XFyYKP+/HGSuHcXWwk1rREF3z8zmJAl8UNuYgMAQJ789PnhyolDT1a23L+xsrCzsykBUKzsasTfJU479N5iK6GmNawp+E6WVmHFUmoTHQAAsiyCnmMHH6sWZJ/sSYL11qjdDVH6w7tLza2E30gfNK1ObVapvGl2Kfnd4EKaxZcpkx4AALJWiP2j43uq4c7G29dWrpy/oOUhT5wc2Ki/7+KlS4VYtZSSRyQPmlbPOllt5avVySKt4sf+3OlXTYQAAEitX75+rfLZmwPVelb9fbdVV1nVsxB7vTTqVML4u3t3sZVQ05q8vbDjpEGGtHn7yE4TI4CCiDotT2y7p/r/Hj3waCV+A+LFKAodx4oG1whIS/H1GJ9ihdXmu26urkBKY2A1Utu8axo2lsbOCe8uNbYStiVnJA2a1sA2u5TsMdiQFlErwEQJoFgFjsfbjhIvifMWLqqucIjj5uPQj+0P3V19kXx5YGu1OPKpE3sr3374QvWf9dt3x1xXYFpi/IixJMKqCNYjpIlT/SIIUqJj9LXK8nVpbIhVfkrKoGmNDrLayz2zS8mvBh1a6dZbVnv5ACjoCocIquq58mDBkiWVqAMTvy3Dg6/YVnN8cEfl/dd3Vb545/lKFDuOLUHuAxRnC2AEVTEGxHgQY0OME3FKYBZWVk1V/F0bcR3jA4L3l9qidI+EQdNsLyTn4iuXlwiA4ooXrbkLrmvZS9HwFV+r16yo3HnHuuoqjKe3917c6hgvbVGwOU7PFX5BOgOqOAkwtiRHWL1vV381pIoC6/Fsp6HIerM/EDfqWsc/2ztMjVVYpeTfUgVNa3Kb1V5+3ABEM0VdAS8CAEQ41Moga7rhV/yZO7u7qtuO4sXu3t4N1Rfn3Tv6qis9jh187GKtL9seYfKB1A+fvlJ9ZmLLcDxD8SzFMxXPVoTMEU7FcxcrL/+SzBeqNKnObIxheVy1Vg+zSh3/lChoWiuCrLbytbNL5bMGIhotvnCbqAGQ5SBrptseh6/+ihPOotD90NbHoWL3sQIstj/G1ss4wfePM2/oL7S0dlQUC48ViREyRd+MPhpixWKIvhun9sVKxlgRFcFTzPsi4I0aqBH2Rp+PWnex9Teeg6iPF6ulBCQzF9ezUeNE3FPX2KmEmpbOWlml5LjBiEZ9uY6vaSaCANQKsupZIyvPIVhcp+GrwKL+VwQEERZEcBDF72NbVQRhsZplaCukkx8ZT2zJixA1QtUImaKPRV8r2nY8q7Bqi4DMNa6xlbA9+UaCoGlpqJPVVt4wu5T8x8BEvcQX9thSYZIIwHjF3mOVkt/NxopQIgpaL7thWXU1WARhsc0/tmrFipnhYVh8fBqqCxYrb2IFzlAgZmVYvgirsi2e5Ub1jXj2XeMxlJJHpAealqYthqXkXYMT9VjaHC8mJogATCQCklgB4vczG6ImUYQfsSUsQrFYHRareCIUixU944Vi8XFr6LTIoWBMvUwhFtPTyI/F8Ry7xrYSappVWRRCTGBNSAGYiqj/FIGI39FilyCIUCW2s0VAFsFm1FCK1SYRkkVdpaHVY0NbKYfCsqjdE3WZhk6XHKovFlsrh68mi0LVEZxZVSbEyroodt+ofhHPRlFqFk5jK+FpaYGmWZVFjr7MxgTSyxgA0xHBQoQVflNp1eqy4SHakAjShkT/HMvQFs2xpLHEghAru4FvBLON6hcRArvOY20lnNsnJdC0bKzK+tWgxXiizkZ86fQSBsBMT0OL08z8tpI3UXhfiEUWTv2O0NV1tpVQ07IfZpWSQQMXtcTyfqcfAVBPe5+6z0sUQiwhFiPE6sAI+xu5tTtWernWNbYSlpIPpAKalrXthW3la2e3l/9lEGPoyO+oPeFlC4BGiILgXqYQYgmxuCTqvDWyT0R9Ode5tlml8iaJgKZldovhVf+wxbDY4iQipw8C0GhRnNuLNkIsIRbl/xcHGjS6TzgpdsxVWL9LATQtF2FWxxGDWvEKScYpQE70AaBZooCxFyuEWEKsIluwZEnDT/+OVV6u9VgF3ZMT3v41LSftijlzrv5zqeOkwS3/4ujzr97b74UKgKaLl7c4Ut7vMUIsIVYRPyI34wAlh2qMsxKrPVnvzV/TctZmt5d7ZrclZwxy+ax9Ffvjrb4CIA0F39XJQoglxCqSF599uOF9IQq6/yWZrz/U3kr4q7d9Tctx+1OpvPm/D/qPBrx8uPWW1ZWznwx6cQIgNd4+stPLN0IsIVYhbL7r5qb0BQXdx91KOOgtX9OKUC+rlDwyu5ScM/Bl07yFiyonDj3pZQmAVDpz8qA6WQixhFi5tnjp0srPXx5tSl8wno5zKmFb+Vpv95pWrG2GDwqzsiUmNI0uHAkA9aiTFasU/HYjxBJi5XE+HodaNKMfKOg+3lbC8llv9JpW1JVZbVf9wzbD7Ih98V6QAMiCowceVcsFIZYQK1eF3D86vqdp/UBB93FWYbWXH/cmr2mF32ZY/j8F4NMv6o14MQIgK2LFQpyi6zccIZYQS19R0L1evL1rmjZ8m2HPn0sdJw2O6bR7R5+XIgAy5bfvjlW2P3S3lzGEWEKszNq3q7+pfSBOPnTdxyro3nHSW7umaaPaFaWOOX9u6zgyu5T8brBMj3U3rfRCBEBmTy+cu+A6L2YIsYRYmbK1f1PT+4CC7uNoK2/wtq5p2sRbDdvL/zJopqOY5B9n3vAyBEAm/fDpK5X4IOM3HSGWECsLoi5Vs+feCrqPV9A9+dXbuaZpk1+d1Va+elapvD8GD4No6zTrRBQAaIR4ITzwzBb1XhBiCbFSrb/vtpZ8PFbQfdxTCQ95K9c0bVptVnuydnYpOW67YfMd3rfNSxAAmXfm5MHK6jUrvKwhxBJiCbAu+Onzw5U4BdE9GCPEauvo8iauadqM2+z2ZP2fS8kJgVbzljV7+QEgL6uyXh7YWmmbd42XNoRYQqxCB1ghDnFyD8ZchXXWm7emafVfoVVK/j6r1LE/BhmDbWMsXrrUiw8AuXL2k0G1shBiCbFa7olt97T0JNd5Cxe592OeSpg84m1b07SGtz+3XfWPWaXkXXW06iuWGnvpASBvjh541As8QizPQNPFFr5YFdrK+37s4GPu+zi8WWua1vxA669zOv5cmtt3oZbWOYPx9J049KSXHQBye4LhxtvXeplDiEVTxHbmt4/sbPl9v3FVj/s+1lbC9uQtb9OapqWizW4v98xqLz9+PtiyBXGytj90txcdAHItPtjYWoMQi0aKMeaLd55v+T3/7M0B93wcUbLGm7OmaeletVVKVs1uLz84u5R8YOAerWfFci84AOTeL1+/VokaNU7rQohFvcXKp1j5mYZ73rt5vXs+ZkH35Edvx5qmZSvQMnjX3LcfE3svOAAUwbcfvlBZvWaFlzyEWNRtV0OrTiAcKWrdCurHCbHayk95I9Y0LVtbDtXPqumj43u82ABQuC2GC5Ys8bKHEItp179KW23Z3Tv63G8F3TVNy1WI1Z68ZQAfbe9T93mhAaBw4hj6gZ0PVOJl1HwAIRaT1XV9d3VVZ9rGM7X/xq2F9a63YU3TsredsJQ8YhAfbd1NK73MAFBYsQWnv+8223AQYjFhGY6orReBUdru9bGDj7nX44VY7clab8OapmVvJVZbR5dBfLS/JPNT+WMMAM301Xv7K7festqLIEIsRontx6dO7E3t+BWHNblPYxZ0P+dNWNO07K7GMpDXlOYfZfIlip9GHbaznwy6HkAqxW9inDZmfoAQi3Bv74bKz18eTe2Y9dmbA+7z+CHWHm/BmqZldzVWe/lfBnN1sWhdgBXbV4eW5B/et811AVLr7SM7K1H7xjwBIVYxLezsrLz/+q7Uj1V33rHOfVbQXdO0vLZZpY79BnN1sWiNF599uJKFST/A8PA9as0sXrrUSyJCrALVvnp6e2/ll69fS/0Y9f3HL6nnN/4qrA+8AWualu3thG3lDQZ0dbFojVovgXEqmK2FQBbCrAgpOru7vCwixMqx2EqctpMHx7O1f5N7PF6I1V7u8QasaVr2gywDek2xn96LCo38UjhW31u9ZoVrBGQmzDpx6EnbDBFi5cy8hYsqRw88Wn3GszIenTv9aiU+RLt/Y63CKp/15qtpWi7a7FLyHwO7uli0fivhcC8PbHWdgEyFWVEzy4lgCLGyLVaED+x8IJM7Enbv6HN/x1NKHvHmq2laPkKs9uQtA7u6WDTXxtvXjjvRmrvgulSf/AMw3mmGE41xCLGEWOmre9Xfd1vlp88PZ3LciXpdMXdyL8eshfW7t15N03LTZrWXHze4q4tFc8UJPxP1wSe23eNaAZkVdXS23L/R9h4hlhAr5TbfdXOm6l5NZ4W7ECt5zVuvpmn5WYnV1tFlcFcXi+Zuu5nMyTnx34naWa4ZkGWxsiO2+USNHXMLIZYQKz1ixeRX7+3PxbxqMh8Hi2xWW/lab72apuUryColvxvg1cWiOc78/+zd/a+V9ZX/f/6XngM/Nd17c86+NnDKkZuvIgylgrcUrbRUlMpIxCql1aBUrSlq0ZZo0WhpdZRY50MnTKqtUTslDU1JSm0c04akKcmnQxMSm++QNOQb95e16dHDYZ9z9t5n31w3j5U8M5PpVGFf7+v9fq/XtdZrHXuh5YvWju2b/WYAcmUCH8Mr3DGIWESswYpXv//FM7nZW2Jf8VxnnEj4nmxXCJG7mF+uHrPJmxKH/vDOT55o67KVh6+kQDv89bc/biQl8SEhxqUH39m7o2EcHv+Z3yj7xL4WzzVMpN03iFhErP54Xt2zY0vm2wabsW7DOvvIDHyqXNsu2xVC5FDESh60yTc/8MMoUsKBbvLys3vq7X4x9bsh75z+zaGGaLXm82vrs+3L4d9C3M0HMcAi9sTrb1wvCSViEbF6NG1w7zfvzO0HgBgk4X2b0QvrnExXCJHLiD5pG31z4su/RAPd5NkndrV94eLPhjxXXcVErFZ84qaKWc99d7ffMGdG8DHQgncWEYuINXdWrl7d2CPzPun4y1/aaL+YWcTaL9MVQuQ2Qqm32V9OfL2SXKCbhMFxu+vwli/e4LdD7nj9hW/NuZ3swL77/JY59M6KD0hRhdquuAkiVpFFrHhfQtQJ24J4j4rQluxdmxkZrhAi3yJWJXnDZt/8S5akAt0khNFO1mKUzPv9kBeiQqBbSZtKxXy3Gx5+7qF6CPkELSIWEas5Ub0YvoFFm2gcreXetRmrsI7IcIUQORexat+w4TcnvFokE+gW0Tpl0ACKTAiy3RQk+MYVg7/97uX6i9+7n38WEYuI9U8Bf9vttxSm6qpZ+7H3bBbKoytkuEKIXMeCUm2JDb858RVYAoFuEZfOTtfir47s9xuCh0mTZM7HhuINAghBS4UWEatoIlaIuLH2z558pdB7wI7tm733M1dhnZDdCiGKUY1VTj608V9OHJSSBnSLqBqZy+XVb4ist4f1QnQIrzm/b3HXVPirRWvRXD3WQMRKI6vWrmlMby1au+B0nDr2AvF6Nkq1LTJbIUQhYn45OWrjv5zR8eWFLNVG+iqxVGNBC8j0+/T//vdrfuOC848/vd5or3pg1x318LR0hyFiZVXEWn/dNQ3hKszLvduXcs+OLd7tGauwaqdltUKIAolYtbtt/s35/S+ecXFAKi5fqrGQ9S/ovdqnTSpEs7bDl5/d06jSyvtkOiJWtkWsicmCsV7/+tsfe3+nIarRVGHN5oWVPCirFUIUS8iy+Tfl2Sd2uTwgNV8Qo9LAb4ksElWtvUok458brWV+Z0y39mKSZVS3xKCMTydjEmEi1kCJP09YVhx96dsqSXs8HKdIyGaFEIWL4XJyxgFwOWEe6/KAtIhY0Wbgt4QkhDcW5i5qPffd3Q2vwmhJdd8hYvW62ioE1BBSY0orq4r2KytVYc1ahXVINiuEKKKI9ZpDoPnFwxd+pMnL4eev7vN7IpPE2u3VXh3VNdGy6HdGp55t0c61+96t9XUb1kmYiVhzvjvGR6fv7N1RDz9L1VZzI7zuvFuqsIQQ4vJ2wlJti0OgOVHu7RKBtFzCIsHyeyKr5tu9nCKnchbdXKvhiUnYImK1KqKHb+Xeb97ZEOt9/Owe4RPm3ZvN0D15VyYrhCiukOUgaEq0wLhIYK48uueurl3CVGMhq4TRdi/369df+JbfGT0VtkKkiQqbmDgbkxAl2MUTseK5R3X1i9+7v7EmtAf2jhAGvVezUEpWy2KFEMVtKazU3nMYXM7iZStcJDBnYkhAt9bkqrVrXJqRSaKytZf7dVR6xRQrvzX6KW5FO2Ks7fA8CnEj/I/Gr7yykAJXnkSseH5x3oYJe5zhMVzl7MlXrPs+emEZxDBLFVYlOSmDFUIUOoYqtYcdCM2JL20uFJgLh597qK7iBEUnvGF6nZSEF00IC35vpEHgClE1fJHiDIgBBBMiV4gjeTSVz6KIFWJVVFeF0X9UTcf5+v7bB+0jAyZaeeUgMzNUSTbJYIUQxRaxSrUrHAjNia+rLhRIk6n1slWrVGMhk3z5Sxt7npiEB53fGlmZlhi+PyGaRKVPCCgxOTFaFqOVKiwNog03PN9CoA3xK6q8Bj1xL0siVlTUx+8W4mGIiPHbRitg/N4hMjpL00c8F626s3lh1U7LXoUQYl5jSuGHDobLCcNOlwrMhRir3e11GabDflsUvSrR+wEAJjoXjnLtbpmrEELMiymF1VcdDM1LzfkgYK4j3Lu9LsdWXqXdAZkj9tJ+fGGPf0e0cfnNASBb9yVVWLNOJDwjaxVCiImWwkqyyeHAgwjd52+/e7knF7JoO/H7Qkvh9EbvJ352wG8OABkhJn/KO2YzdK99Q9YqhBCTq7EcDk0JTwqXC8zF96QXXxbDF+XvfzjsN0amiI8C/dq74x0xnAMA0k/s1XKOWauwzslWhRBiSlzYHE84JJonQsw/MRfCjL0XazOmKfl9kSVCeO3n6HRCFgCo0s2JiLVftiqEEFMrscrJgw6J5oQ5t0sGOiWmS/ViXYYYcPo3h/zG0DIyS2shjywAKM4AnBwKWOdlqkII0SQWlGpLHBQqXtB9dt+7tWcXtJjk4zdGljj60rfrgxjSwd8QANLHxi9cR8SadSJhckimKoQQ07cUnnVYXM7K1atdNNAxB/bdV+9lcv7+2wf9zsgM//vfr9WjOmoQe/l39u7QHg4AKeGdnzxBwGoBGaoQQszcUnjIYdGcGP3rwoE0Vp5Eu6LfGVlix/bNA0tc4n05e/IVzwEABjz4Zs3n1xKxZqNUfVWGKoQQM8RQJdnkwGjO0499zaUDqZ26E18z/dbw9b01xq+8sn7iZwc8CwAYEIefe4iApQpLCCG6VI3lwGjKug3rXDrQEVH10ev1uWrtGm1SyNQX+MXLVgw0gYlW3Ggv/MefXvdMAKDPbeXxMUF+Mauh+xGZqRBCtNZSeNzB0RyT4NAp/fAAevF79/utkRliYEZaPlDwlQOA/vHsE7sIWKqwhBCiiyJWadHXHRzNee67u10+0BHX37i+5xe2hWPjvH6QGUI4SsveHlVZe795Z6M6wLMBgN5Wpw9quEfGJhIelZUKIYSWwjkTY4BdQNAJkSD3Y40+sOsOvzcyQ1RBpWmPjxbHGMTg2QBAtu9DmeczI1UZqRBCtBHDldp7DpDmX+v/9ruXXUKQWgPTWKNao5AVogU2jXt9VE4eP/q0ZwQAXeTPv/5hPe4pcopZvLAqyRuyUSGEaDOGKrWHHSLNefnZPS4iSOWEQhWDyGJbSZoTmq23bar/8ZfPe1YA0AW2f/VWAlYLLBgZWSIbFUIILYVd48tf2ugigraJCWj9TNa1REFS0z223X5LQ4j2vACgM0787AABq7WJhO/KQoUQotOWwlJyymHSvF3r73847EKCtlnz+bV9u8CNrbyKSTUywa+O7K9n6SNG/Hk9NwBI34AbVVhCCFH0lsJy9XGHSXOOHHrEhQRtc8+OLX29wIV5qt8daef/O/V/6stWrcpUchOCdLSWE4oBYHbi3ix/mJ2hcvKWDFQIIeYQC0q1JQ6U5kT7i0sJ2uW57+6u97tqUAsUssCzT+zKZIKzcGy8/uieu/hmAcA0hNg/fuWVRCwTCYUQok8theXkjEPlckqLl/oCj0y0Ta2/7ppGpYvfH2kmpr5mfWJVvGtRnaXdHAA+4clHdhKwWqGcHJV5CiFEd1oKDzpYGGeje18jB5Go/+jAA35/MHjvE59OxuphBB9nhI8dAIrM6d8cqseeKG+YHVmnEEJ0KeaXR1c4WKYfve6CgnaJao1BVA7+9bc/9vtDpeIABK0Q58IPRoUWAB8nMM1EwiOyTiGE6G5L4TkHjCmF6A7hnzOI9bpj+2a/P1LPqrVr6nk+M2754g31F793f/3UsRc8bwC55vjRpwlYqrCEEGJQIlbtJQdMcw4/95CLCtrinZ88MbBLXfy7PQOkmdhTi3J+LF62ojGxNP7O0XLj+QPI09TZdRvWEbFaoVR9VbYphBBdjqFycq1DpjnxVd1lBe0Q1XuDMrAeW3mV6kGkmn/86fX66PjyQiY+y1atqu/a+ZVG66H2XwBZJoZcyBNUYQkhxICrsbQUTtceElO1XFjQDoP8OhlJsmeANPOdvTskPxdYuXp1o1Ir2g+jLYdJPICsfKwr6seIdokBWrJMIYTonYh1xGHTnEgwXFqQBV8sbYXIyjSrQVUrpv2jSXiGTQhbJ352gLAFIHXs/ead9u/WzNzPyzCFEKKXIlYl2ezAac71N653aUFb/PzVffVBe/FoK0SaiUEEzpfWhK01n1/b+L2efGRnoxXx9794hrgFYCDE/uMjRMtVWI/LMIUQovfVWOcdOs1hyot2OHvylYFf8qKaw7NAmhMhZ8vcGL/yysY0xAd23dGo3PrVkf2NKrcwXLbGAPTCzH39ddfYu1urwvpQZimEEP0RsbQUTsOBffe5wCAzvlgTREWYZ4G0EgKM86U31VshcG38wnWNCq7wIAuRK/aD998+2BDZrT8AzNx7OZFw0ddllkII0YeYX05udPA0J9o5XGCQNfNqbYVIM1E55HwZDJ9Oxhr+WyF0bf/qrY1qrmhX/NGBB+pHX/p2w2j+j798vjHYRGUXgBC/F46N27NbqsKqnZZVCiFEf6uxTCmchrjQu8igVcKUOQ3rNioxPA+kFa0p2SCS15imGM8rKuhC+IpJqGHwHOLXs0/salRphGdXVHyFCBYto3/+9Q8bLY6RAIeg/o8/vW7dAxkkLArsha16YdXukFEKIURfRazaSw6g5sRF3UUG7XhHpOWr5eHnHvJMYAgCUtXyGPvjhDgWRAt2iGQTRJVYCGbNCBEN2SZETntgNghR2r7VYhVWKTklmxRCiH6LWKXqGodQc5atWuUyg0x+uSwtXlo/dewFzwSpFHujrc0ZAxSLaFW1B2Zjjw5LDWu2RcrJjbJJIYQYSDVWcsZB1Jz4GuVSg1YJb5m0rN2octDKgzQSLWjOF6A4hHBt78sG0SpszbYsYB2XRQohxIBifiX5vsOoOVFZ41KDVgkPmDBQTsv6Df8azwW+9ANwFmE2wtMuTXeYtLOgVFsiixRCiAHFUKl2hcNo+olOpr2hHbbetilVF8DwIPJcoGoRwKCIyaT2vfQT/nPWa6sTCZPXZJBCCDHgiPGwDqXmxAQmlxu0Spiqp2n9jo4vr/MiQRqJlldnDJBvwqNRa7u7S84ErPMyRyGESEM1Vrn6uIOpOdffuN4FBy0To+VjElea1nB8XY0WLs8HaeKdnzwhaQJyTkwmtN+lm/jQlZbpylkgciaZoxBCpCAWlKsjDqbp+eMvn3fRQaZL8p9+7GueDVJHfCRwxgD5JVqH7XXpJoRGa7XlKqwzskYhhEhRDJeSUw6o5jy65y4XHbTM6y98K3UXwqgOi8oXzwdp4sTPDkieAK2EGBDhm2mtts6nyrXtMkYhhEhRDFVqDzugmrN42QrtWGiZ//3v11I54SfaBWL6kGcEVQAAes2unV+xx6X8rjJ+5ZX231arsCrJB7JFIYRIYTikTHlDd9ixfXMqL4ZrPr+2cXH1jJAWTv/mkLHuQA5R/ZtuHth1h323HRGrVF0jUxRCiBTGcCU56aBqztbbNrn0IBcl+ox2kTa+s3eHZArIEVHho4I9vfzqyH57bntVWG/IEoUQIrUiVu0bDqvpPYVigovLD1ohfEBGx5en9pL47BO7PCekqq0l2radNUA+OLDvPntbSvn7Hw5rI2zPzP28DFEIIVIeDiyJP7rD3m/eWU+zKBtfYj0npIXDzz0kqQJ89EOP2X3vVnttGwyVq4/LDoUQIu0iVrl6zKHVnFVr17gAoWX++MvnU31RDKP38CPyrJAGovXo+hvXS66AjBOekPa0dBI+ZdZoW1VYZ2SGQgiRgRiuJJsdXNMTI+FdhNAqaU/Kw+g9Wgs8K6SB998+WI8qDmcNkF2OH33afpbSNsKxlVfZX9upwqokm2SGQgiRFSGrnJxzeDXnnh1bXIaQqxapW754Q8PDy/MCk3cAc2H9ddfYx1LKrp1fsbe2V4V1QkYohBAZivnl5JADrDkxCv7syVdciNCyYXVp8dLUXxxj1LbnhbS8M0yHgWwSk3ntYyYm54EFIyNLZIRCCJGhGCrVrnCATc9z393tUoRcGLwbXAAJF4Bu+YaGt509LF2EyX6apyWnknJySDYohBAZjOFScspB1pyVq1e7qKFl/vzrH2bm8njk0COeGbS+AGib11/4lr0rhXz5Sxvtpe21EX4oCxRCiIzG/HLyoMNsemLCi8sR8naJDFPtXx3Z75khFSbE2gqBbLBs1Sof91LIy8/usYe2a+Zert0hCxRCiCwLWQ6zadl62yYXJLRMCENZWdsLx8brf/zl854bvDcAWiLEEntWujh17IV6+Lhan8zchRCiUDFcSd5wqE1fsXL6N4dclNAy0YaalfUdFTB//e2PPTfwlAMwI2s+v1YVVsqI5xGTIq3PNs3cy9UR2Z8QQmQ8hirJJofa9Dy65y6XJbTMjw48UM9aYhItXZ4dBj2tMAyjnTkAewW0xpOP7LRntt9GeFDmJ4QQeanGKicfOtymb7v6x59ed2FCS8RaWbxsRaYultffuL4hInh+GCTvv31QWwyQQsLv0R6Vvjbs6BawPttqIzwj4xNCiDxVY5WrBx1w03P4uYdcmtAyB/bdl7mL5S1fvIFYi4ETe60zB0iXrQL/xHTxt9+9nLmPZamowqokm2R8QgiRo1gwMrLEATc90ebi4oR2Jq6VFi/N3AUzBhkQsjBo7tmxRXIGpIQHdt1hX0qZD9bGL1xnj2y7jTB5S7YnhBA5jOFK8oGDbnqidNsFCq3ynb07MnnJ3P7VW5n3gj8WgIadQlT92Jf4YGW8jfC8LE8IIXIa80uLvu6w4wmB7pX7Z9XfJyphPEMMemx8JNDOHoCVAvhgzYkL+Y0sTwgh8lyNVU7OO/Cm94X4869/6CKFltn7zTsze9nUQgIJG1BcomXNPsQHK/NVWJXae7I7IYTIezVWOTnq0JPYQzVW8OieuzxHDJQfHXhA0gb0mTi3ohrSHpQeH6wYvmJtts+CUm2J7E4IIfIvYt3o0Ju5GuvsyVdcqtAyIQRlec2H/4bniEESHw+cP0D/ePF799t7UsTTj33NHtgRyfdldkIIUZAYLidnHHyqU9AdQvTM4qRCQhbSVIUQkzOdP0DviYof+4626hyYuZ+R0QkhRIFiqFx93AE4c5l9TM9yuULeJxVOJv4OniUGObHQWHmg99MI//rbH9tz+GDlwMw9WS2jE0KIgoUDUDUWusff/3C4Pjq+PPMX0TCq9zwxyPdozefXSuiAHvHzV/fZa1LCP/70OuG+4yqs2ksyOSGEKGQ1VvKWg3Dmaqy4YLhooVXCYyQPa5+QhUG3565cvVpiB6i2zTW7791qn9NGKIQQok0R61qH4czs2vkVFy205euTl+TblE4MktO/OUTIArpIVPzEGWV/SQcvP7vH/tapiFWqrpHFCSFEgWO4XDvtQJx5UiHvCLTD0Ze+Xc+TiCvpwaCIvXfV2jUSPWCOLFu1ytTlFHH86NOM3DulnBySvQkhRNFFrErtGw7F2b9eunShHfLkcXHPji2ELAzU9JhHFtA5MTn3j7983n6SInE+D/6ZA/LBOi1zE0II8c9qrOS8w3FmYvyxyxda5fe/eCZXX1m3f/VW/nAYqEfWug3rJH1AB9XkjNzTNYF1/XXX2MtMIxRCCNEFEes1h+PMjF95pSQebRGeUnl6B2754g2NC7hni0Elf1/+0kbJH9AG4btk/xgsISJOCIlR2WxddsZQuXpQxiaEEOLjmF8eXeGAnJ1nn9jlQoa2qkfy1jIQX5CjvcvzxaAGJ+RNHAbcWfLLgX33fbxfXX/jentX59MI/yJbE0IIcXk1ViX5wEE5M59OxhoTs1zM0CqHn3sod5fWmBjnPcAgieTcmQRMz6N77rJXDFhwj8Eo1qJphEIIIXpbjbXTQTk7226/xQUNbV1k8/j1dfGyFfX33z7oGWOgLToLx8YlicAU9n7zTnvEgM99bYPaCIUQQvSrGqucnHNgzs47P3nCRQ2FNXmfIASEEz874BljYPz51z80uRAgYKVKwNqxfbM9yTRCIYQQ/Yr42uHQnJ1lq1YxeUdbfGfvjlxeaqPF1uQrDNrwXdUDoIUwDQJWTPK1FrtIeXSF7EwIIcSMMf8zI1WHZms8+chOlza0TIie4SWV1xHu4f3lOWPQ/nOlxUslkCgkz313t32AgJU3M/f9MjMhhBAtxYVD44TDs7UKlGhlcXlDq0TrXZ7fiag285wxSGLgwMYvXCeRRKHuIkdf+rb3n4CVNwHrhIxMCCFE69VYpdoWB2hr3PLFG1zg0BbhV5LndyIu8lptMeiE8sXv3V+P5N45hTwzOr68fvzo0957AlbeBKxzsjEhhBCdVGMxeG8RX0DRrn/P+JVX5vrCu/66a+p/+93LnjcGbvr+5S9tlFwil6zbsK5ReehdJ2DljlJti0xMCCFE+9VYleT7DtLWGFt5VUOYcKFDq8SX8zxOK5xMCHV//OXznjcGTnxoiH3aeYW8EIMMVLwO3ueSgNWTKqzXZGFCCCHmIGQ5TE0EgmmFnRMm2786st/zRioqIGOf1mKIrPtfvfzsHu90CgSsbbffYi/pvoD1F9mXEEKIOcVQOXnLodr6dDZVJ2j3Ehxtd0V4NyRdSJPx+66dX8l9JSTy2aZ96tgL3uMUnN3alHvDUKl2hexLCCHE3CqxSslqh2rrxEQsFzy0QyQkRakMCUP78A/x3JEG4qODSgpk5UPAk4/stH+mpKIzBvpYlz2gnDwo8xJCCNGVGK4kHzhcW+f1F77looe2iCqlIgm9Z0++4rkjNbz/9sH6ju2bVWYhtdVXv//FM95VAlbOBazqMRmXEEKILlZj1bY4YNsbd/33Pxx24UNbFMkcNgzfJWVIY5vhA7vu4JmFVLBwbLzxgUP1VXoErPgIY232xAfrnGxLCCFE96uxyslZB23rRCLk0od2COFz5erVhbkgh1CgahFpJCoFn/vu7kK9j0hX6+Due7eqWE3ZnlAE/8qB+WBVkk0yLSGEEF2PoXL1cQdte5dQlSbopK2paFUgfLKQVmJdxmTNqJLUaoh+3BuirZVxe/oqNAnaPa/EOiLTEkII0atqrPMO2/Z8LCTnaJfDzz1UuMtytGj87Xcve/5IdSXGjw48oJ0IPWHrbZsaHzG8a+kb/jC28irvfH+ErDPDpeoa2ZYQQohui1ivOWjbI/wsXATRLrt2fqVwl+ZIFE787IDnj0xUZjz7xC7tRZhzS3VYD4RQ4r1KH1FNH75k1mqfWwvL1YMyLiGEEF2LBSMjSxyw7Ruz8rVAJwayRUyQI6l78Xv3WwPIDFFBGNWT226/pV5avFTCi1lZvGxF/cC++9wNUky0EXufB1iVFVPRPzNSlXkJIYToSswvJ8cdsO1xz44tLoVom7/+9sf1mOJXxHcmBAETPpE1/vGn1xvJ75OP7Gy0HfLRwmSBPu4C7/zkCTYDKefoS9/27qajvfD8hZzjQZmXEEKIOcdwpbbe4do+x48+7XKIjtoZimb0PkEIeNoLkfWKyglR68tf2qg1qYDCVTz3mMIaa8E7kX6iEpiAlTLKyXHZlxBCiLkLWaXklIO1PdZ8fq2vr+j4q3CRp3WF95B1gLzw51//sPFOP7rnrvotX7yhHq1lzsh8efvtvndr/eev7iNcZWwSafiTWcOprco6N1Su3SEDE0II0XHEQeJQbZ/nvrvbZREdEZUcRX53opqBfwzyPPkwqnVjEMjeb97ZqN5ZuXq1ipAMsGrtmsYgjnh2DNqzWzEZ75z1nAmvrDdkYUIIITqvxionZxyo7REmoeFz5NKITgg/laJXOGjLRdGqQ2ISYqz7aEkLM/AQucIzLgY/RBUXoat/Q1quv3F9Q7CKD1LhbcW3Lx/ek1Epb41nqirrzFA5uVYmJoQQou0Is0WHafts/+qtLo7o2DQ62o+K/P5Ewh5VaVpzgU8IMSXaFMNDL8SVELzC2ydEr+/s3dFokwoRPMSv2EPCdD5EsAmi6muC8KILwWaCPIpkE3+3+LvG3zmqqeJ32HrbpoZIFXtM/H7R9hkCoirQ/HpOaufNtFfWIdmYEEKITqqxzjlI2yfGsbtAotNk1Vfj2keRcJ469oI1AQBom/Asi+p4d9LMV2X9ZahUu0JGJoQQoh0Ra79DtLNqElPXMJf2h6ggMPlrrFEtYU0AAEwgLLCYVao9JisTQgjRcjg8O2N0fHnD68SFEp1OOIs15F2qfRTtUbzmAACzteRHu6hzM7em7ydlZUIIIVqtxmLw3iHRFmYEN+bi56Ed4hOPm/CvsS4AAFOJj4bRhu68zH174fn55dGdsjMhhBBNY6hcfbxxWDg050QYyTKpRqf86sj+erTVeZcusmP7ZhPDAACXnJMql4vFUDl5S6YmhBDiE/GqkmxSfdVdYnKUiybmYlDL3+MTxlZe1fhNrA0AKDYxodP5WNiqrA8jZ5G5CSFE4auvkrccjL3h2Sd2uXCiY6KVzkX98qqssydfsT4AoGCEVcO2229xJuKj+aXqqzI4IYQopHildbAfHDn0iMsnOubwcw+5sDcZoOC9AoDi8MdfPl9fuXq18xCTq7LOzC+PrpDRCSFEEcQrrYN9JSpp3vnJEy6hmNPocO/S5Xz5SxtNAwWAAlQlG3iCGcSs/bI7IYTIdfWV1sFBECbdYULqMopOefqxr7nANyESmx8deMAgBQDIGf/40+v1R/fc5ezD7EJWpfaeLE8IIXInXmkdTIOQdfzo0y6m6Jjv7N3hMj8NG79wXf3UsResEwDIAX/+9Q/r66+7xpmHdiqyzs8vj+6U9QkhRMZjfjm5UetguqpGTvzsgAsqOiamXnqXpm/dDaEvzH+tFQDIJq+/8C3tg5hDVVbyhgxQCCEyGsPl5F2HWfpYODZe//0vnnFRRcfs2vkVl/sZGL/yyoaHirUCANmaPnjPji3ON3SjKuvs/FKyWjYohBAZiWgddIClX8hSkYVOCf8nF/3WjN+jJcWaAYB0E3ci0wfRbYbKtYMyQyGESHFoHcyeR5aphSBk9b7F8MlHdjYMgq0bAEjfWRZ7dOzVziz0qL3wA1miEEKkMLQOZjfB1vaEuVz+d2zf7OLfYovhz1/dZ90AQEr44y+fr6/bsM4Zhj6ZvtfuljEKIUQKQutgPoSsl5/d40KLjoWs7V+9VRLQRothJE7WDgAMjhe/d389KtKdS2D6LoQQBQmtg/nj2Sd2udiCkNUn4Xj3vVvrf/vdy9YPAPSR8Cnc+IXrnFcYqOn7cKW2XjYphBB9DK2D+eXRPXc1BAkXXbRLeD5tu/0WiUEbxAj3A/vu45cFAH342PLcd3ervkKKSL4vqxRCiB6H1sFiEBU1kmp0KmRtvW2TBKEDvyzedADQG95/+2B9/XXXOJvA9F0IIYoSWgeLR1z2tDqhUyErfJ+8R+0TBsPHjz5tHQFAl84jkweRDdP30Z0yTiGE6FJoHSx2dUh8vXQRhoqs/hK/nXcPADrnV0f211etXeMcQmYYKidvyTyFEELrILrg2aPNCZ0KWcze52b+vmP75vqpYy9YTwDQIlFFfs+OLc4eZLUq68xQOblWJiqEEO1UXlVq64fLtdMOEkzmO3t3MHxHR0a6IcR4h+YmZu3a+ZX66d8csqYAYIbz5kcHHqgvHBt35iAHVVnVg7JSIYRoIeaXk6MODkxH+BydPfmKyzLaTix8Fe+OmLX3m3fyqgOAKfz+F88wbgfTdyGEKJR4VVr09eFycs6BgVZ8sk787IBLM9oWsqKayDs0d2I8fFRGEpQBaB18uXG2MG4H03chhChIDJVqV4TK75BAuxUhL37vfhdotM0Du+6QaHTRr+7RPXepzAJQSM/FA/vuq8c+6DxAISgnR2WuQgjVV+XkkEMBc2Hb7bfU//6Hwy7UaItoifP+dLcyK35TnlkAisDPX91XX7l6tXMEBazKqp2OAgRZrBCieNVX5dodw+XkQ4cButVeePzo0y7WaIuoIPL+dL9Ccve9W+t//vUPrTEAufS92viF65wdQDl5UEYrhChS9dVxmz96kTyHR0+U97too1WefuxrkpEevY9hpP/HXz5vnQHIPCHMm3ILXOaV9a7MVgiR67iw0e1vGAPa9NFD1m1YJ3FGW4S3mnend2y9bZNKSQCZNW0PH0Wm7cC0QtbZ+aVktUxXCJEv8apSW39hgztjo0c//Xme++7uxjQ6l3C0wusvfEuS0mNi9PzRl77tvQSQesJr88lHdjJtB1oXs/bLeoUQORGwkjds7BgU19+4XlUW2jLqDQHUu9N7D7sQmQ1kAJA2/ve/X6s/+8Su+uj4cmcB0K6QVUlOyn6FEJmNMPsbLifnbOhIQ1VWjMBW/YFW+NWR/b6894n4nU00BJAW8SruCsQrYM4VWeeGKskm2bAQIkPi1eiK4UrygU0cafTKiqlCLuuYjRM/O1BfODYukemjCfy2229pCIjWH4B+i1cx4MOeD3R9euEhmbEQIgvVV4ds2kh7shyVH9qYMBvRhrp42QpJTZ9ZtXZNw2jfOwqg155XxCug5+2FH8iQhRCpjAsb1ObGZAqbNTJCiBNHDj3iIo9ZR6ovW7VKgjOgNuBdO7+iehJAV/nrb39cf3TPXdrGgf61F57/VLm2XcYshEiPgFVO3rVBI6vc8sUb6qeOveBijxnHq0crqvdlsFMNDz/3UP0ff3rdmgTQcXVtCOOm0AIDE7OOyJyFEINuHXzQhoy8tBjGV1ntS5jJMyUET+/LYIm2n2gHVp0FoFWOH326vvW2TfZvIB1C1l8WjIwskUkLIfosXjFuRz6JiUQ/OvCAKYZoSlQB7di+WSKUEtZ8fm3DO+vsyVesTwCX7ddhGRBVnPZLIH3thVEMIasWQvSr+opxOwphLP3OT56QCKApUbXnPUnfZMOfv7qPAA3wu6o/+chOQzmAbJi+vyG7FkL0Trwq1bYwbkcR/bK0LaEZUQHkHUnnwIYQGd9/+6B1ChSsZXD7V2/ldwVoLxRCiKi+qh6zyaLIRJVHGMJKFDCZoy99W8KU8orKpx/7WmPCpPUK5I/wsXz52T31eNfteUDW2wtrd8u6hRDdaB1k3A5Malm6Z8cWCTEu4VdH9hvTnpHphs99d3ej1ci6BbJfdRVTBj+djNl7AdMLhRDin8btpeSUzRRoLmY9sOuO+unfHJJMoEG0ro1feaVkKiPv78YvXNeo3mAID2TL6+rAvvvqK1evttcCuRayaqdl40KItuLCxvGSDRRoLRmOL8Gnjr0gwUAjwTIFK3vvcPjehb8ZURpI54TBaNv+8pc2at0GCtZeOFSu3SEzF0LMXH3FuB3oOBEOM1lG0vjf/36tMSXPe5HdlsOo9OB/BwyOmDAabdq7791aXzg2bj8Fikyp+qosXQgxTfsg43agG2y9bVP9xM8OSEQKnoDFdDzvQ7aJlqXv7N3ReJ/jmVrbQG+Jd23vN++sx4RRexCAj6uyKskHsnUhxCetg5XaNxrTIGyQQFe5/sb1jRYIyW9xCc8l7S/5IJLqaB2OdzqmoVnfQPf8BEMs5ikIYJb2wnNDlWST7F2IAseCUm3JcKX2nk0R6C1xMX/2iV0S34Lyzk+eMLkwh+3DIVI//djX6r//xTOEaqDNStWYLBjVqgzaAbTLULl2UCYvRAEjXn6bINBfYgx4TDRkAl88wl9JlUExqrRMOwSaewX+/NV9jfdkdHy5vRDAXNsLT8rohShO6+D64XJyxuYHDJaYhhYJb0xdkuAUg7/97uVG9Y71n3/WfH5tw9cnknYVmCjynnf4uYfq4RMZH3HsDQC63F74YeS2Mnwh8ixglZMjNjwgXcQX6WipUJ1VnFHxUYlg7Rer9TAmHsZ7Hq2lUZHiXUBe97eYKBj+Vus2rLPPAeiXmLVfpi9EzuJT5dr2UKptckC62fiF6+pHDj2iOqsAvPi9+xm+F9xPK0StqNSKahXvBLLcKv3cd3fXv/yljaqtAAyOcvWYrF+I/FRfvWtjA7LFwrHx+u57tzaMbxlG55eoWIhnbc0jzK2jQi+mWYYo4P1AWvnzr39Yf/2FbzXWa3jBeX8BpKgi68z8z4xUKQBCZDTml5MHbWZAPiYbRmuGxDa/CWH4J1nrmCpkh49QTD+MFkTVWhjUFMGYvhmVo9u/eivRCkAWhKzz80u1LdQAITIUC0ZGlgxXkg9sYkD+CI+RaNv4629/LMHKkYdMtJBKDtGKoL3t9ls+FrZMQUQvJghGBXCssWgPLC1eal8CkEmGytWDlAEhMhDxstq0gOJ46oSgdfo3hyRfGa3Aiul12gkxV2ErKmRCdIhpp7GutCCjVcHqxM8ONKqs7tmxpb5q7Ro+fQBy5pOVHKcQCJFa8Sq5drhcO22zAopboRVJrJbDbPhgRYWDZBG9Isy1Yxpi+OqFQBFrTtUWwYpgBaCg7YVnh0q1KygGQqQoLryYR2xQACYbRIeHViQsKjLS4ysTRsi8rzBIRseX12MCahhyP/vErsZkxBC+TUPND3//w+GGh9Xh5x5qTL8MwXzZqlX2HQB8ssqjOykHQgw4PlWubb/wQp6zMQGYyRx6x/bNDQGFMfRgxKvwu4qqB+sRaW5PDvE7BI9ocY1qnQmBKyp4vMvp21fCFzG8q2KaZTyzeHbRWmo9A8AMlKqvUhGEGFDML1eP2YgAdNJ2GFVakfyo0uot4U9EvEJeKriiPTG8t6K650cHHmiIXFHxE+K4vaT7RPtn/L6xj0TV3AO77mgIVSE2agMEgDlUZVWSk9QEIfoqXiUPNsohbUAAulClFZPOouri/bcPSkS7RCSeYbpvjaFIlVxjK69qCF1bb9vUEFzCoy9a2kLsitbmU8deaLS68aZ6rfFbxIeEEKhi/40PC+FTFSJVtBybCAgAvffJml8eXUFdEKKX4tVnRqrDldp7Nh0AvRS1IgGNiYchxBC12iMqUsJrSJUEMLPgtXjZikaVYvhzhZAeBvRR4RXCV+w/IX6FwBOG9CGARVtjTGENEWyQQlh4h8W/P1r54s8T4n/8+d75yRONP2+09sWf/8lHdjZa/EKYir9f/D2jgioM960BAEhTVVbtG5QGIXoQQ+Xq46qvAPSbqAaIyoAD++5rVA3wxpmeSF5VTwD9F96D8IIKkSiqmKIabCq3fPGGaYmqyan///HPCsIQPf753m0APlDluirrNYqDEF1rHRxdMVxKTtlcAKTlAhdJYlRNhGijBfFI/c+//mGjysL6AAAg33x6yXLnfX6FrBPUByHmXH1VO2hDAZD6C10y1hBxonUmpvCFqFMUYSvahrQHAQBQnI95i1ZvcO7nVsiqnV5Qro5QIoRoM4YrtfXD5eSMjQRAloWtaMkJf6gQesLXJvyi8iJehS/Oju2bXWIBACigkPX/bNxSV5WV24qsc/PLyY1UCSFabR8sVV+1eQDIK6PjyxseNFG1FcbN4bOVNXErDJ1DoPM8AQAoblvhNdu+piorz5STB6kTQszUOlhJNjXGfNowABSQME1et2FdfftXb22Mmk+rwBUeYDFVzTMDAKDYVK9aV9+w/esXq7JYC+STUvVVSoUQTdsHkzdsEgAws8AVY+qjgivaE8N7K0Su8N+K1r5+CFjx7zOhDAAATHDFtbc0hKx1t++sV5Zf7Y6Qz4qs4xQLIT4xbr+j0XNrcwCAObcphtC19bZN9Qd23VF/+rGvNaq5fv7qvob49MdfPl8/e/KVjg3nj770bV9ZAQDAZazefGdDyApC1ArPLL9L3nyyaqepF0L1VTl514YAAP1n4dh4feXq1fXrb1zfEL3CfP7RPXfVn31iV/3F793fEL9CtHrnJ080BLAnH9npQgoAAGb0x5oQsv5ly11M33MpZCXnYgAbJUMU0Lh90dcvvADnbQQAAAAAkB9/rMmMfe4GQlYufbIWfZ2qIYrkfXXSiw8AAAAA+SIM3qcKWdFqyI4glz5Zh6gbIt/eV5Xaw6qvAAAAACCnbYXJWMPgfaqQFa2GUanlN8pZe2EleYPSIXIXC0q1JcOV2ntecgAAAAAoXlvhBFGpxWMzdz5ZJ6geQvUVAAAAACA3bYUTRKVWZfnVhKw8CVml5BT1Q2TbuP0zI9XhSvKBFxozEYfXotUbHGAAAABAztoKJ08rbMbSazbKA/JVkXU2urCoISJ71Vfl6uNeYsxElBBPfJ0Jo0e/CQAAAJAvYjLhTCIW0/dcClnnhkvVNVQRkSHvK9VXmL1HfqrZ46eXLHdwAQAAADn7cP0vW+6aVciKii3thbkSss4PV5LNFBKR6riwUPd7YTFjSfGS5fXpeuPjK43fCAAAAMiffchsItYEV1x7C9P3PFFOHqSUiPS1DpZqV4SJm5cUMxG+VzP1xGspBAAAAPLJTCbvTdsLdWnkiOT7VBORHvP2CwvSS4nZqq/iIGrlwHJYAQAAAPnMCVoVsSbaC8OCxG+XE0rVV6knYrDiVXl0xXC5dtoLiZn632PaSDuHlZZCAAAAQDXWBPHf0V6YG5+sI5QUofoKqe17b8XAcSrx3/H7AQAAAKqxJucIOjZyImRVkjcoKqJ/4lUpWa36CrNVX4UZYyeHk5ZCAAAAIN/MJVfQtZEPhsrJW9QV0Xvz9nLtoBcOs1Vfrbt955wErImJJH5PAAAAQDVWs/bCTydj8oWsU64eo7II1VcYzEF04RDppL99JhNHfe8AAAAAb6xmxIfz+IDut8y6kJUcp7iILldfVVVfYUYWrd7QEJ26JWBNYBIJAAAAoBprJmKIlN8z8x5ZJykvokuTB5O/eKkw08GzevOdXRevJpcJ+50BAAAA1VgzETmJ9sKMC1nl5AQVRnQcFxbQfi8SpiPa/MJQsVfi1SUG7w4jAAAAIJdEO2A37Ui0FxKyRMFiQam2ZLiUnPICYaaDppfVV6aPAAAAAMWh27lFDIjirZtpIetdyoxorfqqVHvMS4OZqq/mMgp3LoaNfn8AAAAgn4QPbrdziEZ74ZLl8ojsCllHKDRiZgGrUnvPy4KZqq9CTOq3gMXgHQAAAMj/x/Je5RryiAxTTg5RakQT8/bkweFyct5LgmaEH1W3zBbn+iXF8wAAAADySUwY7FUuob0wuwyVq49TbcRk8/YTXgxMx6LVGxrmiIMWsD42eFcODAAAgB6xYiSpb0uS+n21i/8zuLma1G+6wNWjSX3Rwlr905XEfbRXH88v3PV7/VFcPpHR1sJK7RvUG62D31B9hZkOkH4at7fzBcXzAQAAQLda2DZXk/qhsWr9/13eHr8dr9Z/+tlqfd/ii2JXiFx+07nT6xwkPtBrL8wopdoWSk5x2wePewkwHTEJMG3i1eRDRxkwAAAA5tS2NpI0xKd2hatWCGFrz6Kkvmyk5s7aYSeIj+OY3iNrdAVFp1DiVe3u4XJyzuJHlqqvphIim+cFAACAdomKqTeXVnsiXk1XrRWCVrQh+v1br47rl51Jo70wGfNsstRWWE7OUnaK4331rkWP6Q6K+BKRdvFqgphaohoLAAAALX2orVz0uApBqV/iVTOiZVF1Vmv0c6hUCGYxhd3vnil/rPcoPHmuvirVtgyXkw8tdjQjNux/2XJXZgQsY3IBAADQjng1SOFqOjFr4UL+WbPlKP3OL2Iyot8+UxVZr1F78ul9ddQCx3TVV/38wtGL0l/PEQAAAM3Eq4cXpU+8mkq0Nnpeg28p1F6YXT5Vrm2n+uQkhirJpugVtbDRjKhiipa8rApYEyj7BQAAwGThI42VV7NVZYXo5vkNtqVwqnWJPCM7LCjVllCAMt8+WH3VYkbTr1LJWKarr1RjAQAAoBlR1TRoz6u5mL8zfk9HS6FhUln0x0o+oAJltnVwdMVwuXbaQkYzYlTtIEpyVWMBAACgV9xUza54NVXI4pOVjpbCyUQBgPbCLJB8nyKUtfbBcvVxCxdNq6+WLG9ULOVNvJp8sHjOc2Pl5zb4DQEAQKZYMZLUf/rZ7ItXhKx0thRqL8xgW+HIiLbCrESMl7Ro0Ywogc2reKUaq3u881/H6n94/4P61h33+B0BAEC6P9BWkvpTS/IlXk3mzaXVelQgedYXCS/ftOQc0dnimaS5rbD2HnUo/e2DO4fLyXkLFkWrvlKN1X0R66OPPmoQYtbdux9weQIAAKkja6btnbJvsWqsj/OaZCx1eYd7coopLfo6pSit1Vfl5F2LFM36xq+49pbCiFeTGR1f7jDpgog1wf/9n/+p79qzlwcAAAAYOBtGa7nwvWqH+Dt79hdJ28f5f9lyVz2KBjybFFZjlZMPqUVp876qJJsuPJhzFiimEi11saEWUcBSjTU3oo1wqog1Wcx67MmniIQAAKDvhD/U4bFiiVeT/bGiddI6qH209JqNqcs9wnA+Wh09n/QRfuGUo7S0D5aqr1qUUH3FG6sXRAvhdELWBC++9EqdCTwAANA62B/2LCJiTXysT2v+EXmYZ5S6aqxz1KPBe1+tGC7XTluQaLahx7QMAtZFotTYuuicx58+MKuQFfz87XfrN9+2zW8NAAC6ztrRpHCtgzNhWuHFj/Zpz0FYcKSMcvIgJWlQ7YPl6uMWIZoZHKZh3KxqrPzxb6+93pKQNdkE3qENAAC60Tr4gyVEKybv2fDFmkoUFvDJSlU11hlq0iDM2yu19yxATCVGu0YPNsFqeqNF62RuX7qaGb3PRPhmHfzhj7QaojBJ1tWjSf3malLfliT1aHeZzMOLLv7P+M+C+P8Lc9747/iaDgDNif2SYDU9vLFqH4197oZM5CJ8slIkZJWqa6hK/Wsf3DlcTs5beLik+mrJ8nrav0A4PPJBafHStoWsCeK/96/37ladhVyIVZurF0Wpn3622tXWlvhnBWFW/NSSakP0CqGLyAWgcB9nF9YaeyyhambinGCjcnVmchE+WalpKTxEXepL+2DylgWHrH55SFM5b1QUWTudE9MIo12wEyFLdRayytKRpGGiO2gvlvj3Hxr7RNzyBR5AHmHc3t65oFtgUea8en3UHXhL4VkKUy/Fq0qyKVz0LTaovuoOIfxZQ3Nj8bIVcxKyJntn7dqzt75wbNwzQSqJVr+0j3CfLGzFn9dzA5BVVowwbu+E+N34Yt2ZuQ/r/HoHC6WpV+2DpeqrFhimfmlYes1GYtQcCN8wXz+6UJmyam2jqmquQtYE//4f/1nfuuMelXJITctg2sWrmYgWnKgc2zCaeKcAZOJ+Gy3aBCkG750SbXpZzEvC09geMBiiWIji1MVYUKotGS4lpywuTO33DnNyQtTciQmO1lT6hKyJdsMXX3qlvu7Gmz0jDIQY4Z63BOfNpRdFLV/rAaSx4lX1lZbCuRK+t1nOS3xwGkhL4X7KU9eqrxZ9nXk7pn6dyurXhTRj1G13CG+rbgtZk9sNn3rmYH3tNb5SoX/JVBGSnRhVH9MReWoBGJg1xoX9JyqIiFDdYWnBP1LEvT7LeUnDJ0tu0t9KrHLyFvWpCzFcSd6woDC1+ip6polOvTksrLH0C1lTBa3V197kuaFnLYRFTHyiSiv8tExABNAvNqi+MqWwB4RlSNYtT/hk9bESq5KcpEDNqfoqWT1cTs5YTPj4a0Iy1igtJTb1lig9tt66ZKh57U09F7KmClpaDtFNjHInaAHoffVVVIISnbpP+Dgyd8/H0Cs+WX1rJ/wLJarT6YPl6uMWEab2dGf9S0KWJoPoQc9WRVYzD62DP/xR/ebbtnmW6JjNVS0tBC0AvSRamFVf9Rbm7rfkyr/XvbbnItaH1KhO2gfLyQkLCJN7uVVf9Z+Y9mj9pdvsvR3+881f1O/e/UB98bIVnitaRmI1+xf+SECtFQCdtGpnedprllg2Uiv0Pp1lc/dpfbJMVO+liHWeItWe99XmCz/aOYsHE0TZqOorJu95YWzlVY2Wv0EJWZPbDh9/+oC2Q8xaHSD5aW+UuymHAFS5po9tCXP3PHaNyFN6B2Wq5eqr2ksWDCZvtnnp32byjsmMji9PhZA1ue3w3//jP+u79uytR7WYZwReWHOfchjthiYcAmhWfXVI9dVAPjIUed1F+10e85QodODjS8QajHn7Z0aqw6XklMWCiU127HM3EJCYvOf7Ejs2nioha6qo9W+vvV7/13t310Nw87yKazIs8Zk7Ty0x3h3ARW5SfTVQL8Oir7885yqRO9pjiFj9E7DKozstEqi+Sv9XDgaKPVjvyVj952+/m0oha2rrYRjEb91xDz+tAhGtFxKf7hFVbTfxzgIK+1HA5EHm7kQshu9ErFxMH0zeskAwUX2Vp6kZeSSej7Xam7X/4kuvpF7ImipqTbQfxtRFzzGfMBvWagigC8LBqMmDaaHoE2WLYoPC8J2I1avqqxXD5eSMxYGgsvzq+r9suYtQlAHiWVmzveGxJ5/KlJA1tf3wnf86Vo+/w/W3bqmXFi+1TnKAhKf3PLwoKXxSBeS5+uop1VepYu0oEasIMHwnYvWg+qr6uEUB1VfZJMRGZbq94+7dD2RWyJquWuvBb+8jbGWQRQtrEp4+Gw4Ts4D8sFb1lQmFRKyBW6H4+E7E6tL0weSEBYGJ6qtQyQlD2gpxKTfftq1R2ZQXMWsmYctXshSvQ+bDA+EHTOCBzH+gDVHafmZCIRErHSxazfaCiNWpeFWprR8uJ+csBkSPcpjuEYO0FWJ6Vl97U26FrOlaEZ95/sV6VKKtu/FmXgYpQBI2WA6NEbOArHG16qtM7K1ELB/gQcRqpfpqv0WAoHrVukZpJxFIWyFmJ6YARuVSEYSs6cSt/3zzF/WnnjlY/9d7dzfErYVj49ZcnzjE1D0VhJ+ONkMg/YS/nT2LiEXEMrmQiJULA/fkuAUA1Ve+aqDztoR/e+31wgpZ04lbE22Jjz99gMDVI95cKtlJmwG8aYZA+lgxovqKiEXEytLkQkIWEWv66qtSdc1wOTnr4SP6kFVfaSvE3Lj/W48SsNoUuA7+8EcN762tO+5piFxR2WYttY6kLJ3cV0tcwIGUEO+jfYmIRcTKXjcJT1YiVhMBq/aYh47YHELttlkqzUV3CCP0ovhk9cODK4SuaFUMgTDM9K2xS5HspJcQGIs+YQsYJNHi+9PP2ouIWBn0XJWbNYjhYoQsItak9sHqMQ8cY5+7wQZZgLG1IWAFpn70j5Wf21Bon6xeClvW16UJmmQnG2JWTJG0ZoH+sdnkViJWhgkrEHnMJ7mMjpKCi1jaB6H6qlhluBMC1gQOgf56zPHJImL1kpiKJ9nJDuFftmG0Zg0DvTx7K0ndwAsiVh5sXuQyrFFaYbicfJh38/YHPWjm00uv2WgjLFD1VTO0FfaXu3c/QIDqElHdZk19QoyJl+xkj2hvCpNpaxhg3g4i1nQFB3Kay6letc7ZebmI9Zc8C1hHPeRiMzqu+qqo1VdTiTZS70SfvQ2uvUl7IRGr+8avRKzMJ2mLFqrMAropYtlbiFh5KTyQ1zSHPcoUEauSnMxnC2G5dtoDLvYmqK9a9ZW2whT4F42NN0zKiVFErG5xM8+XXPDUkmo9/M2sacAkQhCxmLsTstoUsd7Il3hVSTYPl5PzHm5xCaEiKnNsdqqvmmHax2DYtWcvQYqIxbgYl/HwoqQefj7WNjA3TCQkYuWBuKvLc3hkzd5OWHspNwLWULl20ENVfWWDU301E7FG+GOZXkjEImIhXUQlib0ZMPSiyBwmYn3Ex3hmfIy/yFC5+nhO2geTEx5osauv1t2+0+am+qol+GMNVmx+5vkXiVOmExKxcBlhTr0tUZUFdMqeRfbHrA/AKPoaDhNzOc/0+NjzT0qLvp5x8/bRFcPl5IyHWdApFslYXdmp6qtOUI47WK6/dUtDnCFSEbGIWGgmZt1UJWYBnXwoMqkwu7y5lIgV93O5T3OiYMM+97En1uYMC1i1u/lfFVupD3HDpqb6qlOU5DJ9zwrWyydEpY5kpzgJ3dpRYhbQDmtNcCViZbxAQf7TnMhd7HETlVjJ6qxOH3zJA1R9BdVX/LGyz9Yd96jKImIRsTCjT8yKEWIW0CphEG7vyGYVqvVb+0ge1JzIW6yPi/C/QqaI0aKqr1RfdRPjatPB6PhyVVkzEOK9dULEMrmrWl+0sOZdAGa7L194T+wZRKysYsp8c+QsGRWxhkq1K4bLyVkProDVV0uW11dvvtMGpvqqJ/DHUpWVdhYvW2GN/pObeGIVnqeWVOsLF6rMAmbiYSbvmcTarX0k52uOfOWffljl5Cz/K6SemCRn41J9RcgqVlXWv732OvFqEmuv8fXt448aFYkZLhJJeqwH7wXQfK9k8k7EyiJsY5qjKv9jU/eTGRGwkkMemOorqL7qNYze08XNt22r/+H9D4hYF4hpjtbEJ0jMMJn7agl/Q6AJ8W7YI7IFYb72UXg/yZFMJpyhEutIBgSs6jEPq3jjgZdes9GGpfqq78Sh6StH+gY5PP70gcKLWNFmaT0wLcbMXjLhl+b9AFRjZZmlhlg0PJDlSZcShR32tIsMlauPp9vAvZSc8qBUX0H1Vb+FLF/008fKz22ov/NfxworYu3as9eaVF2AFsWs8E3zngD2yyyyYdT+Vb1qnXzJZMJp+VS5tj2l4lV1zXA5+dBDUn0F1VeDIHzYvJfp5F/v3V1I4/eoRvP8P2HtqKQMM/Pm0mp9rWQQUI2VMW5TUfpR+NTKmS4lhD372T/bCUvVNak0cPdwirdRGaWq+iptGGObXhaOjdefef7FQolYYXTv2TN3R/scHqvWV2jPQcHZY1Jhpjz+dOYslztNNXXn2/sxqROwhsrVgx5MsaqvGPepvkozJhamm6Wr1tb//T/+sxAiVrRSeuaXItlBO4SP2qKFNe8RCP9INU8tMaEwckT506XYxz42dT+frhbCcvKuB6P6CqqvCFlol5jcl/cphvH386wvJdrFJDzoJEFcuFClA4pHrH17QDYEd+u19lFM45NLMXW/TMSqJB+kR8C68IfxUFRfQfVVWlHCm429JczP8+qXFX8vz/lSfiAhwxyI9iqj7FGo6uUR1VhZ8fOzXmsfGfTF1L0p5eTowMWrBaXakuFycsYDKU71FVVd9RUhCz1tmUjG6o89+VQuxSzP18Qt9MZ/xkRaFIWfftY7n4UJq9Zq7aO4e8urmLpPZahSe3jA1Ve19cPl5JyHUYwKCRuR6itCFvrJ6Pjy3Jm/e66XsrlKxEL3kkYTwVAEbrZvZgJrtfaRzh2m7s1FrGTTAA3ca3d4CKqvoPoqa8SBGpU+3u1smb/HZL88iFgxldEz/YS1o5IxqH4ADMXIH1qdL9zfrtkox2Lqnp7JhEPl6uMeQDFaelRfqb4iZCEtrPzchsxPMozqMs/yE8KcW7KDbrFvsaQRxSDWunc+3awYsR8tWr1BnsXUPR0i1nA5ec2Pn3+ibzcqc2w8qq/yLGTxUCFm9ZuoKvMMVRSgNyyVNKIgLBupeedTzk1V+1F088i3mLpfMpmwlJwaxATCN/z4qq+g+iovRJkzIYuY1U/iz+zZXUq0gEl4oJUQsHfmiW08+j4KHyg519frUZFmz/qniFVOjvRVwJpfTo774VVfQfVV3hj73A2ErByIWVnxzLr+1i3WmkQMPZpQ6H3qk8/NSFIPP7swGA8z/UjW43/fMHrx/x5twn6n3rNnkZbCNPPwIu9BFEfIvZi6X1qJVXusn1MI3/Oj51slV32l+oqQRcjKOmMrr0r9NMOtO+6xzirGxaP7LFpY8271gKtHk4ZAeHjsYrVbu9Vx8d8LsSUELkbX3RcTvfvp5QdLVIcG8i+m7gOZTDhcrp32g+fbcE/1leorELJyZRY+Nl5//OkD9f/7P/+TOhFr15691tgUDo1JdqCVMFVJ52jSSMB78axC1IrKLYKWSta8Ex9orNHaR2FqztTdOuirqftwOTnjx85v9VXRNxXVVyBk5b+MPUSjP7z/QWpErMeefMr6mkKvkmUUhz3adua+X1YuVlz1UxSJd98Et7nxsJZC4nraKwav2djIOdfdvpOpO3orYi0oV0eGy8mHfmjVV1B9xewdeeDm27bVf/72uwMXsV586RVry6h4GGWfGuK8C/Fq0BUr0bboeXTW7mkPSC/WaO2j+EA8cccOMatoOShT90l+WJXkg94ZuH9mpDpcTs75oVVfQfUVIcu+kUcT+BCSBtVq+J9v/sK6msKgE2hIFIvK5mp/K69aqcxiCt8+9gB7U9oHh029ZxcpH2Xq3ofJhASsfKvgxB3VVyBk4SKlxUsH0moY/z6//6WEP45kB50SnmreozZ9AxdeNGpP6zO9qUrI4ito4EReqCy/etq7dt7FrMjL7FGTKCcPdr+FsFRbooVQ9RVUX4GQVTSuv3VL/d9ee70vIlZUgPnNiVjoHrF+vEetEwJRFp7rU0uqzl97aOZZq012RhFrgshh8pibxd/NHjVpMmE5uZaABdVXUH1FyEIXGR1fXr//W4/2vDorDOf93pe2NEl20Cnaz/LbuhteWaYYtlZZZy9IJ5tVFTYKKlq9c+dNzIpc3B7VI1N3ApbqK2R7bCuhqffEZBFCVsFGQl97U8+8s8KXy288yXSfiAXTv3rOU0uy+4wJlbOTJm8zfEIIxyZFj7V9787LJMOoQrM/feyHdaarItaFf+BZP2x+JsxE1QhxR/UVeiNkqaAp5r66dcc9DUP2bolYMSnRb/sJG0Zrkh3ww+KZNKOQpSKLL1YWiem71mfto07u3XmYZOgD+CWthG91U8D6ix81P/3Gee0nhuqrVAlZpowUusr17t0P1N/5r2NzErHCUN7v+QlrjYiHKoee8YMl+XjW0VooITTlNWvE+2d91j6K+3Ond++silnx5/bsJ1VilWqPdUfAqtTe84Pmo0ogNgbijuor9A9CFsI/K8SoTgStp545aP1M4moiFjrkaqbJMxJVIHl63k8RBHwMyBiHVYt+7NM817t31sSsyM89+y6bus8vJ8f9mPlIolRfqb7CYFg4Nu5wwsXL2cqr6g9+e1/LhvAxCdHv9gnLRrQTojO8IaQwOwAAGulJREFUP8UbmHATo+xpP2rbE9JZQWh91j6qXrWua/fvrPg+x9/Zs++iqftwOTnih1R9BdVXmDsMGzGVpavWNiYczlShFf+Z32rSbzaiggBM3QnDJlIyd7dP5dn2ptt38LQXcujauMTU/ezcBKxS7TE/pOorZIN4zoQiQhayS2nx0oYpfFReTZ5yGBVbfh/j4cHUnZjBZ4i5OxGrKJ6ivbqHpzEvjumKnvskEauSvDEXD6z1fkTVV1B9he6zaPUGhxVm5fpbtzT8sIhYUy63FSIW2mfPItU4RTb4XjHi+U/l4UX2Um3P6c1je30XD+EoLblc/Hk890l+WJXaw3NpIzznR1R9BdVX6A1Lr9lochLQIRIdtMvNvJEKXdXIa6g4PmhELBMKs2b+Hkb2nnkXTN2HS8kpP6DqK6i+Qm+J9/XTyZiDCyBioccsVYlzGTG9r0hrQDUWf0EiVrEmFGZFzGI10gVTd0bu2TXAU32l+grZhJkjQMSCxLCfLFpYvCmfvLFMKLRXFXNCYdonGerMmKOp+1Al2eTHy94BFG1JxB3VV2D4DhCxAGbJqrCmJzz1PH8TColYxZxQmEbz9xDOPO9LWgnf6qQK66wfj/cV0kdscISe/BNfnextABELRCzDEXrDtoSIRcQiYhGx0iNmhbWI5z2pEqtUe0wboeorqL5CxggPAGXFABEL3ePQmMRwMrclxRWxDlsLlxC/hz2CiEXEGtwkQ50YUyglq1tvIywn1/rRVF9B9RUYvgNELOSNfYtV30wmJvUVeT34UPQJ8W7YI4hYRKzBiVn2ozmYuptGqPoKqq+QPkK0tv8BRCzMjT2LiFhaCT9h7aj1MEG8G/YIIhYRazCTDPlhTW0lTE61LGDNL9W2+NFUX0H1FfhkAUQs8EHKNxtGa4VfD/fVrIcJ4rewRxCxiFiDEbP4YU2dTFh7qfUqrErygR9N9RVUX4FPFkDEQh65uUq00D7GF6sZm6vWAxGLiDVXMavT/M+H6qmTCWt3tCRgLRgZWeIHU30F1VfIiE/WEu2FABEL7bJB+xg/LNMqVeYRsYhYKZtkyP/2UhaUqyOtTiTc7wdTfQXVV8gOppgAxsKjPVaMELG8O4SCZsS7YT1Ym0Ss/otZ8f/nOU9uJUzOtdNKeNKPliKzzSWqr1RfAbOzaPUG7YWQiEt20CJLiVhM3aewcKE1ESwlYhGxiFgDmWTID2sK5eqx1kWscnLOj6b6CqqvoL0Q0BIFgoWqm6JwtRbTBvFuWA9ErDQSflFZv6tH0cJ0YhY/rKmTCWuPtT6Z0A+m+gqqr6C9EMgYh8YkOiBi8T/ik0bE4tdGxMqGmDV1kiE/rCkiVqW2noil+gqqr2B6IZBbnloi2UHrRBud96b20U0m0ZlYqcWUiJURwjojb/f1iUmG/LAuZ1474QcbXPXVXMZxQvUVoL0QRWbPIokXtOe0y22J92aC+C2sCdNeiVjpJT7Q5vXOHoUsnvFkU/faaSKW6iuovkKB0WOPIrBNMg4iFhGLiEXEyhnh92hN5l/EYgUy1dQ9OUTEUn0F1VcoOCGW67WHtihAO+FkbvbeaCfUTphqDo8RsT6enHnhLpvXe7o7+qUMlWt3ELFSqiQTd1RfAb70AN0hJotJeMDYnbE7Y3fG7nniEBHrY8ImI6/2H57vpSwoV0eIWKqvoPoKuKQqi+k7JF4gYnlviL+fcDURy16aQmJoiXWZbxErDOs938l+WMm5ee2GH663ExWIO6qvAFVZAB8XDJalIwQLggVhs2nL1og1kSYeXmRdTuA+XhARq5K8QcRSfQXVV8C0RGuzqiwQsVA0VhCxvDfM/puygoiVKrYZOPDxMDR+WIUxdX+QiJWC6quozCHwqL4CfAUCekuMIpf0gP+R96Zd4jewFvikpZGbDBy4WBSSjPHDKoqpe6l2BRFrwC8agUf1FZClqixfg5Bl3lwq4YFJdO0S089MgCNiTbDZxEqtzyntbOKHVQg/rPPzOgk/3typXrWuvu72nQQe1VeAqiygjxySjEOLTtvsWUS0uK9mPUwQv4U9Ij18umJtBqPjy925iyFivUvEGlCvLoFH9RWQh/Lm+Oplb0eWiClOkh60wh5myZPax4gWa7WXEjV5taWaEHv4YRVAxCrVHiNi9fnFUn2l+grIG1FZyvgdki/kjX2LiRaTP8IWfT045z4h3g17BK+2NHY68cMqAKVkNRGrTwd/LEACj+orQFUWMFiiRUzig1Y4xAOJLxY/LGvBPpWpYWn8sPLPvE4jzLT8gK0bzIWwQeBRfQUwfgdM1YIKBwIwfzTTKqHtufvEHZQfVu79sE7MRcT60I/Y2otE4FF9BWgxBNJDTHGS+ICI1cGH2Upx3x3G2UQsU1QzcL5fszF392l36ctErP1ELNVXUH0F9LTF0BckSMTBMDk//KCAgxHi7+zZ80dLKwsXErEm4IeVf4bKybWdi1il5JQfcXpDuRA3iDyqrwBoMUQ6kfigVaJyzzvzCSsKWMm4whpQzapaNBPiah67GjzbLvlhNYzdy8lxP+LlMG9XfQVAiyG0wkCrTp756WeL8/zj7+qZX8rmKhGLqXs6O6Hydm9eODbu+U5uJawkH8xJxBouJ0f8kM1LGAk9qq8AMKlEunlzqeQHTJNVY6nC6oSHFxGxDBxIH3G35IeV91bC2sE5iVjxD/BDXs7o+HJij+orAPyykHIOGQ8PlQ68sXhhdcRh+yc/rJRa+uTpnhwm9Z7rFBGrkmyaYzth7W4/ZHMYuqu+AtDeIR0l4M4P9JN9i1USgOfMXIjkmUCgHRv2prSwaPUGflj8sGYRsT4zUvVDTv8CEX9UXwFg/o70cl+NiIXW0dLRnJty7I10Ey80kwlTTpxj1uSkgQPXbMzVvdgH3i77YU3yxTrvB22+uZtOqPoKQGfEhwAJI3rNzYyJ0QZrRyWL0/FUDtsKn9JGOC3xLtgTVAqm1Zs6T3imU/2wqge7I2JVkpN+UAbvqq8AELPAmBoqHor78TZP0wrj7+LsUcWadg7z6rt0MmEylrvuBM91aiVWbX1XRKxQw/ygDN5VXwHotSeAhAJdv/BWJGJg7t7N9ykPPknxd4i/i2fK1D3tXK069NI9aMlyU7z5YbVYiVWqrvGDMnhXfQWAmIUsIhECA+XuGr1nWciKP7v2LKbuWakWtBbzPZmQH9ZlVVjvzetmDJeTc35YBu+qrwAQsyAZA/8ZFVlZbC2MP7MKrBZym4U1e0EKWDpirU4l2u/4YeVYxCon+7stYh3xwzJ4V30FgJiFrJEnHx/0nm2JxLHV+2+WzN7jz+osaY14B+wF/PnSyBXX3sIPix9WG75YlWSTH5bBu+orAIMUs8LQ05kDU9XAFys93JSBCaDxZ/Ss+GHZg7IvnPPD4ofVdvhhZzaZIxypvgLQn2mGxCyYsoVe4r1p3yfrBykUi+PPpD20feJ304ZtaiZT9x77YbnLTm0lPNETEevCP/hdPzCDd9VXANJShs0QE62wuUrEgolg/WDFSDq8suLPsIKfUFe8z9ZeeBfiQ0BUtMbvStzqbcurdTc9UbmUlztstEV6ppcyVK4+3ptKrFJtix+YwbvqKwBpYuk1G+uj48QsTE8IEhIktMOeRQSQuYpZg6jMin/nspGaZ9cHcSv21fDO2rc4qUf7IXGr89bB+B1VDBbL1D10A890SiVWqbpmXq/ClEIG76qvAKT1q1Z8pVOGj2YJl2QJ7RAJuXenO+9eJOi99Fg6/E8RwNTBdAlcUQEbFVw/UMH18Z4Sv0OIfrFeVQp25kHNDyu3rYTn5/UyhsrVg35oBu+qrwCkWcxiAo+pEGbQLosWqujp9sfeaE2LKrdOK3fivxP/3fhnxD/LR4uMdq9ceLcmC10h7ITYFc/2zaUXn3NWRK+JP2sIVPHnj7/Hw4suClUbLvwdl45Yp/ywLseamEI5OT6v1+GHZvBOwALANwtZQqsLtBSm1xQ+BI0No7X6zdWLyf9tF4j/Pf5v8Z9ptSKAxhqIVtGoYAoBc+3oRZEo1skEsXbaYfJ/dzIb/vnPj7UX/84QouLfbx3yw+qWDYZnOsUPq1J7uOciVjjH+7EZvA8aCToArYZolUNGxkNLIQDwwxow0S3gmU6hlKzufSUWg3cG7yngX7bcJTkH0NHlQXVW8YiqGsIM2mUp3xoA4IfVRdxB++yHxeCdwbtqLAB5KudWnVUcwnuFKIN2Ca8e7w8A8MPqFp7plFbCcvJW30QsBu8M3k0mBKA6C1khfFSIMtBSCADZIu5oefJq9UynVGJVat/om4i1oFwd8aMzeB80627fKQEHoDoLLVVJE2XQCWH07B0CgMEQvqZ5uWfGHdMzvZR5/Q4G7wzetRQCMNkQJhQiz/z0s6qxAGAghSHJWK7ulvH38Vwv8cM603cRi8E7g3cG7wCKMNlQu2E+CDGCKAMG7wCQDaJyKU/3Sc/0MhHrtXmDCAbvDN5VYwEonKDlS1omeWoJMQYM3gEgK4TNQ17ukFHg4plOoVTbMhARi8E7g3cG7wD4ZznvssC2hLk7OufTFUIWAPSzICRXrYQq+gfvh8XgncE7g3cAIGiZUIiicF+NiAUAWgk7wx1x6lTC5IN5gwwG7wzetRQCAA+tLECMQafEYABJCABoJezkY6dneilD5drBgYpYF/4Ad3gQDN4ZvAMAQcuEQqjGAgDMtZspT/fBqCrzXKdWYtXWzxt0MHhn8K4aCwBmN/UcHV+ummOA/IC5O1RjAUDqi0D4YfHDYvDO4J3BOwCkiLHP3dD4MmfSYX+JShpiDFRjAQBD937huU6hnBxPhYg1/zMjVQ+EwTuDdwDorO0wvjrGWaHKo7dcPUrEwtyrsUwqBACG7q1W4Xuul4lYD85LSwxXkpMeCoN3LYUAMHcDUF5avfvCS4jBXHl4ERELABi688PqhAUjI0tSI2IxeGfwzuAdALQeMndHEVi4kJAFAAzdZ0aF/RRD93Jybl7agsE7g3fVWADQJ1FL+2FH7FuspRCqsQCAoXvv7SI818tErCOpE7GGyjUG7wzeGbwDwIDaD4las3NTlYiFuRFCqHcNALpYhZWM5e5+Fnczz/ZSonsvdSIWg3cG7wzeASAdRvF8GKY5iytELHRu6h7DAbxHAKAKazZ4m17OvLQGg3cG71oKAYAXA18s5K190PsEAKqwWsWzndJKWEk+SK2I9alybbuHxOCdwTsA+ArIFwt5qL5aMaL6CgBUYbXnX+rZXuaHtX9emoPBO4N31VgAYLQzXyxkmftqxCsAUIXl/tUVEatUXZNqEYvBO4N3Bu8AMHji66Zzly8W2uPNpdX6UtVXAKAKi51Dt6qwzs9LezB4Z/DO4B0A0jG50LnbnMNjxBqovgKAQebE7l5FmUqYvDUvCzFcTk54YAzetRQCAGPRNLItUY2FTzg0Vq0vXEjAAoB+EdOU83jvql61zlkylfLozkyIWAzeGbwzeAeAFJi7J2MuU1oKMYNx+4bRmncEAPpIeEYZqlMc5mUpGLwzeFeNBQDMRdPKTz9LxNE66D0AgH7nwXm9c0V1mWd8mR/WmUyJWEPlKoN3Bu8M3gFAWbuWQmgdBADk1szdQJ3p/LCqBzMlYi0o1ZZ4cAzeGbwDwOAY+9wNLlRaCvHPqYNXjxKvAEAboer3vlViVWrr52UtGLwzeNdSCABK29PKIVMKC+F7tblKvAIAbYS9Jf6OnnWG/bAYvDN4Z/AOAMzd005U5hB68u17JakAgMETleF5vmstvWajs+ayqYTJ8XlZDQbvDN5VYwGA8va0EpU6BJ988fCipB7totY3AAye8Od01ypkK+E3MitiMXhn8M7gHQCYu6eVm6uqsfLCU0uYtgNA2nygC1H1fuHv6XnnoJWQwTuDdwbvAKDEXTUWes0PllTrixbWrHMASFOem4zxHy1qFVY5OTMv6zFcSU56mAzetRQCALPRNHKTaiziFQCgq7Y5Ie4U4Y4VPtee+aVEN17mRayhcu0OD5PBO4N3AFDmnlZ++lmiEPEKANANASuqwItyx1o4Nu48utwPa/28PASDdwbvqrEAgOFoWlkxohor7exbnPC8AgCTCFW7p7uV8Py8vASDdwbvDN4BYDDEhdJZOzt7FhGy0kb4ld1XM20QALLSYeR+VfRWwuSt3IhYDN4ZvDN4B4DB4axtrTKayXt6xKttSeILNwAQsFS6Z4ny6M55eQoG7wzetRQCAF+sVF/CF9aISAPk0Fi1vnZU1RUAaCHMwN0qGXNeTWFe3oLBO4N3Bu8AMBiqV61z0WqRDaOErH5XXT28iN8VADBxzw4xfdEamOKHVUpOzctjMHhn8K4aCwD6T1wynbWtc1OVP1avOTxWrd9cJVwBQFZz1xByfBzEJFP3/bkUsRi8M3hn8A4AJuhkgZsJWT2putqj6goAMu/nXGQBi03DtH5YK3IpYjF4Z/DO4B0AGJBqLSwWTy3hdQUAeSDuEu5UBuY0qcI6Ny/PMVypvedBM3jXUggA/SW8F52z7RNVQ28uJUR1YtK+gXAFALlpHyyqgbv7VEsi1pFci1gM3hm8M3gHAF8Os8Z9Ne2Fs7UK/mBJtR5+YlpXASA/jI5rH5xM/B7WxRRKtS3z8h4M3hm8q8YCAB4OWazKCqGGaPWJcLVvcVK/WsUVAKi+4jFaWOYVIRi8M3hn8A4Apulktmp6Ya0h3hRRtIo2wW0Jc3YA4H1VPELUsz4uayU8UQgRa8HICIN3Bu8M3gGgz0Q7gHO2i+d1JanfliT1n342v6LV4bFqPVopl44QrQBA66AhOdbJ1KmEyYPzihIM3hm8aykEAC2FeWq7CCPzqNAK8SeLolWIcfHnv7mq0goACtUuPzZeX3rNRvek2e5QyZizcSqfGakWRsRi8M7gncE7AGgpzHOV1obRWqOKKVrw0iRsTbQFxp/tJoIVABS6bZB41RrxO1kzl7USnp1XtGDwzuBdNRYAaCksmp9WVGyFr9SeRReN4qMCKoSluQpdE/+MN5debAOMqqoQqjZXL5qvE6sAAJFnhnilbdBHwC60Eh4qnIgVf2kPn8E7g3cA0FKIyyu5QnRaNlKblhDE4v/P7wUAIF65O/W9EqtSW184EYvBO4N3Bu8A0H+iZd05CwBAcdoGiVeq2LvcSnh+XlGDwTuDdy2FANB/nLEAABCvoJWwQxHr3cKKWAzeGbwzeAcAY6IBAIC2Qa2EmWkl/Ma8IgeDdwbvqrEAwJQdAADQoRVNMtaoGCJeqV7vB/OKHgzeGbwzeAeAAXxZvHDhdc4CAJBtH+Xo3nGv4SPax1bCvxRexFpQqjF4Z/DO4B0AeDwAAABVV+wXUk3y/XmCwTuDdy2FADAIom3dOQsAQPqFqxBUwg7A/cU9aaCVWKXqGgoWg3cG7wzeAcAXRgAAcElHDuFqcIx97gZ3pMtbCc9Rrxi8M3hXjQUAAyNaEZyzAACkp9oqChi0CvrQl1IR6wjlisE7g3cG7wAwUEbHjY4GAKDfRQoTlVZR8UO0MgAnE5RqWyhXDN4ZvDN4B4CBEm0KzlkAAHonVE1UWBGsVKpnGaoVg3cG71oKASAdXxuXqMYCAKSH629cX//ylzbW43+uv+6aBms+v7a+cvXqBuNXXllfODb+Md1u65v45y5bterjf+fEn+OWL95Q3/7VW+u7791a/87eHfUD++6rv/zsnvrNt20jUpngnOdWwncpVk3iU+XadgsEAAAAAAAgLa2Ei75OsWLwDgAAAAAAoJWQwTsAAAAAAAA6biWsJB9Qqhi8AwAAAAAApFvEKtUeo1QxeAcAAAAAAEg1UWhEpZq1pbB2t8UCAAAAAAAwoCqscnKGQsXgHQAAAAAAINUMlasHqVMM3gEAAAAAANJNKVlNnWLwDgAAAAAAkOZWwnOUKQbvAAAAAAAAaRexjlClGLwDAAAAAACkmqFKsokqxeAdAAAAAAAg1VCjGLwDAAAAAACkvZXwXWoUg3cAAAAAAIB0Ux7dSY1i8A4AAAAAAKCVMN8thaM7LSQAAAAAAIAethJWau9RoRi8AwAAAAAApJqhSu1hChSDdwAAAAAAgFQTvuQUqG4YvI+MMHgHAAAAAADoRSthOTlDfWLwDgAAAAAAkO5WwnL1IOWJwTsAAAAAAEC6KSWrKU8M3gEAAAAAANLcSvghxaknIlbtJQsMAAAAAACgS5STQxQnBu8AAAAAAACpZqicXEtxYvAOAAAAAACQ5lbCc/9/e3fIG0UQBmD4z+wddmYT9psG0wQHf+EMSU1tXYNCVqLPkVRcgjmBqDiJqEA0mDM1eBJMTRW3JAgSRHvQdnb3meT5B9+aNzPfKk0PuuC9nBg0AAAAgH+OWGulyYJ3AAAAgLqfEraxUJkseAcAAACo+RbWrcJkwTsAAABA3XJ8UpgebcF7bA0dAAAAwB5SOVKXLHgHAAAA8JTQseAdAAAAYF9Njo2q9Ni3sVK3MnwAAAAA94lY5VhVsuAdAAAAoGqKkgXvAAAAAHXL3Wc1yYJ3AAAAgMojVjlRk552wfutQQQAAADwlNCCdwAAAIABm+X4oiJZ8A4AAABQt3RwqiJZ8A4AAADgKaFjwTsAAADA3k8JU1yrRxa8AwAAANQtxwflyIJ3AAAAgKo1bSyUo4pOk8qhwQQAAAD4k2pkwTsAAABA3bewcmwUIwveAQAAACqPWOVYMbLgHQAAAKBasxw3SlHdTwovDCoAAADgFla3VIo8KQQAAAComko0hJBlUAEAAIBJPyUs5wrRIPZilXMDCwAAALiF5biNBQAAAFDjLaxUzpShIUWs1K0MLgAAADCtgBXXqtAgnxXGjQEGAAAApqJJ5VARGuRtrHJkgAEAAIBJ3MJqy1s1aNi3sdYGGQAAABh1wMqxVoHGcCMrx6WBBgAAAEYpx6X6M6YbWW1sDTYAAAAwrieEsVV9RhmyylcDDgAAAIwkYF2pPXZkAQAAAFSrybFReSbx18KDUwMPAAAADPIGVipn6s709mRdGX4AAABgEPEqx7d5ileKzkRP08bi1xD4GAAAAIA649XtznsVx/l9K+uNxe8AAABAZQHro2rj/PU8S+VFk7vlbki++1gAAACAJwhXP9y8cu4dtOY53s3auOgHyIcEAAAAPEi4amPb5LK088r5f382zM9f7obquI9b/XD1t7bmqVsBAAAA3EXfE/o/DPZ9YZa612rL3c9PdlXiLEtvhAYAAAAASUVORK5CYII=;" vertex="1" parent="cU3eEYtOXW0r3D3nBDdk-80">
          <mxGeometry x="36.037679425837325" y="16.009743589743586" width="93.57833333333333" height="104.02" as="geometry" />
        </mxCell>
        <mxCell id="cU3eEYtOXW0r3D3nBDdk-22" value="" style="group" vertex="1" connectable="0" parent="1">
          <mxGeometry x="195" y="40" width="220" height="710" as="geometry" />
        </mxCell>
        <mxCell id="cU3eEYtOXW0r3D3nBDdk-1" value="" style="rounded=1;whiteSpace=wrap;html=1;fillColor=#ffe6cc;strokeColor=#d79b00;" vertex="1" parent="cU3eEYtOXW0r3D3nBDdk-22">
          <mxGeometry x="5" width="200" height="170" as="geometry" />
        </mxCell>
        <mxCell id="cU3eEYtOXW0r3D3nBDdk-2" value="" style="rounded=1;whiteSpace=wrap;html=1;fillColor=#f8cecc;strokeColor=#b85450;" vertex="1" parent="cU3eEYtOXW0r3D3nBDdk-22">
          <mxGeometry x="5" y="360" width="200" height="170" as="geometry" />
        </mxCell>
        <mxCell id="cU3eEYtOXW0r3D3nBDdk-3" value="" style="rounded=1;whiteSpace=wrap;html=1;fillColor=#dae8fc;strokeColor=#6c8ebf;" vertex="1" parent="cU3eEYtOXW0r3D3nBDdk-22">
          <mxGeometry x="5" y="180" width="200" height="170" as="geometry" />
        </mxCell>
        <mxCell id="cU3eEYtOXW0r3D3nBDdk-4" value="" style="rounded=1;whiteSpace=wrap;html=1;fillColor=#d5e8d4;strokeColor=#82b366;" vertex="1" parent="cU3eEYtOXW0r3D3nBDdk-22">
          <mxGeometry x="5" y="540" width="200" height="170" as="geometry" />
        </mxCell>
        <mxCell id="cU3eEYtOXW0r3D3nBDdk-71" style="edgeStyle=orthogonalEdgeStyle;rounded=0;orthogonalLoop=1;jettySize=auto;html=1;entryX=1;entryY=0.75;entryDx=0;entryDy=0;entryPerimeter=0;exitX=1;exitY=0.5;exitDx=0;exitDy=0;exitPerimeter=0;" edge="1" parent="cU3eEYtOXW0r3D3nBDdk-22" source="cU3eEYtOXW0r3D3nBDdk-13" target="cU3eEYtOXW0r3D3nBDdk-14">
          <mxGeometry relative="1" as="geometry">
            <Array as="points">
              <mxPoint x="225" y="465" />
              <mxPoint x="225" y="313" />
            </Array>
          </mxGeometry>
        </mxCell>
        <mxCell id="cU3eEYtOXW0r3D3nBDdk-13" value="ContentsMS" style="html=1;whiteSpace=wrap;strokeColor=none;fillColor=#0079D6;labelPosition=center;verticalLabelPosition=middle;verticalAlign=top;align=center;fontSize=12;outlineConnect=0;spacingTop=-6;fontColor=#FFFFFF;sketch=0;shape=mxgraph.sitemap.services;" vertex="1" parent="cU3eEYtOXW0r3D3nBDdk-22">
          <mxGeometry x="45" y="430" width="120" height="70" as="geometry" />
        </mxCell>
        <mxCell id="cU3eEYtOXW0r3D3nBDdk-35" style="edgeStyle=orthogonalEdgeStyle;rounded=0;orthogonalLoop=1;jettySize=auto;html=1;" edge="1" parent="cU3eEYtOXW0r3D3nBDdk-22" source="cU3eEYtOXW0r3D3nBDdk-89">
          <mxGeometry relative="1" as="geometry">
            <mxPoint x="-85" y="360" as="targetPoint" />
            <Array as="points">
              <mxPoint x="-15" y="295" />
              <mxPoint x="-15" y="360" />
            </Array>
          </mxGeometry>
        </mxCell>
        <mxCell id="cU3eEYtOXW0r3D3nBDdk-72" style="edgeStyle=orthogonalEdgeStyle;rounded=0;orthogonalLoop=1;jettySize=auto;html=1;" edge="1" parent="cU3eEYtOXW0r3D3nBDdk-22" source="cU3eEYtOXW0r3D3nBDdk-14" target="cU3eEYtOXW0r3D3nBDdk-15">
          <mxGeometry relative="1" as="geometry">
            <Array as="points">
              <mxPoint x="245" y="335" />
              <mxPoint x="245" y="695" />
            </Array>
          </mxGeometry>
        </mxCell>
        <mxCell id="cU3eEYtOXW0r3D3nBDdk-14" value="ServicesMS" style="html=1;whiteSpace=wrap;strokeColor=none;fillColor=#0079D6;labelPosition=center;verticalLabelPosition=middle;verticalAlign=top;align=center;fontSize=12;outlineConnect=0;spacingTop=-6;fontColor=#FFFFFF;sketch=0;shape=mxgraph.sitemap.services;" vertex="1" parent="cU3eEYtOXW0r3D3nBDdk-22">
          <mxGeometry x="45" y="260" width="120" height="70" as="geometry" />
        </mxCell>
        <mxCell id="cU3eEYtOXW0r3D3nBDdk-15" value="AuthMS" style="html=1;whiteSpace=wrap;strokeColor=none;fillColor=#0079D6;labelPosition=center;verticalLabelPosition=middle;verticalAlign=top;align=center;fontSize=12;outlineConnect=0;spacingTop=-6;fontColor=#FFFFFF;sketch=0;shape=mxgraph.sitemap.services;" vertex="1" parent="cU3eEYtOXW0r3D3nBDdk-22">
          <mxGeometry x="45" y="620" width="120" height="70" as="geometry" />
        </mxCell>
        <mxCell id="cU3eEYtOXW0r3D3nBDdk-42" style="edgeStyle=orthogonalEdgeStyle;rounded=0;orthogonalLoop=1;jettySize=auto;html=1;" edge="1" parent="cU3eEYtOXW0r3D3nBDdk-22" source="cU3eEYtOXW0r3D3nBDdk-16">
          <mxGeometry relative="1" as="geometry">
            <mxPoint x="105" y="190" as="targetPoint" />
          </mxGeometry>
        </mxCell>
        <mxCell id="cU3eEYtOXW0r3D3nBDdk-43" style="edgeStyle=orthogonalEdgeStyle;rounded=0;orthogonalLoop=1;jettySize=auto;html=1;entryX=1;entryY=0.75;entryDx=0;entryDy=0;entryPerimeter=0;" edge="1" parent="cU3eEYtOXW0r3D3nBDdk-22" source="cU3eEYtOXW0r3D3nBDdk-91" target="cU3eEYtOXW0r3D3nBDdk-15">
          <mxGeometry relative="1" as="geometry">
            <Array as="points">
              <mxPoint x="265" y="155" />
              <mxPoint x="265" y="673" />
            </Array>
          </mxGeometry>
        </mxCell>
        <mxCell id="cU3eEYtOXW0r3D3nBDdk-16" value="ReserveMS" style="html=1;whiteSpace=wrap;strokeColor=none;fillColor=#0079D6;labelPosition=center;verticalLabelPosition=middle;verticalAlign=top;align=center;fontSize=12;outlineConnect=0;spacingTop=-6;fontColor=#FFFFFF;sketch=0;shape=mxgraph.sitemap.services;" vertex="1" parent="cU3eEYtOXW0r3D3nBDdk-22">
          <mxGeometry x="45" y="80" width="120" height="70" as="geometry" />
        </mxCell>
        <mxCell id="cU3eEYtOXW0r3D3nBDdk-17" value="&lt;font style=&quot;font-size: 20px;&quot;&gt;Teo VM&lt;br&gt;IP: 10.43.101.154&lt;br&gt;&lt;/font&gt;" style="text;html=1;strokeColor=none;fillColor=none;align=center;verticalAlign=middle;whiteSpace=wrap;rounded=0;" vertex="1" parent="cU3eEYtOXW0r3D3nBDdk-22">
          <mxGeometry x="5" y="380" width="210" height="30" as="geometry" />
        </mxCell>
        <mxCell id="cU3eEYtOXW0r3D3nBDdk-18" value="&lt;font style=&quot;font-size: 20px;&quot;&gt;Natalia VM&lt;br&gt;IP: 10.43.101.168&lt;br&gt;&lt;/font&gt;" style="text;html=1;strokeColor=none;fillColor=none;align=center;verticalAlign=middle;whiteSpace=wrap;rounded=0;" vertex="1" parent="cU3eEYtOXW0r3D3nBDdk-22">
          <mxGeometry x="5" y="40" width="210" height="30" as="geometry" />
        </mxCell>
        <mxCell id="cU3eEYtOXW0r3D3nBDdk-19" value="&lt;font style=&quot;font-size: 20px;&quot;&gt;Herrera VM&lt;br&gt;IP: 10.43.101.158&lt;br&gt;&lt;/font&gt;" style="text;html=1;strokeColor=none;fillColor=none;align=center;verticalAlign=middle;whiteSpace=wrap;rounded=0;" vertex="1" parent="cU3eEYtOXW0r3D3nBDdk-22">
          <mxGeometry x="10" y="210" width="210" height="30" as="geometry" />
        </mxCell>
        <mxCell id="cU3eEYtOXW0r3D3nBDdk-20" value="&lt;font style=&quot;font-size: 20px;&quot;&gt;Fabio VM&lt;br&gt;IP: 10.43.101.159&lt;br&gt;&lt;/font&gt;" style="text;html=1;strokeColor=none;fillColor=none;align=center;verticalAlign=middle;whiteSpace=wrap;rounded=0;" vertex="1" parent="cU3eEYtOXW0r3D3nBDdk-22">
          <mxGeometry y="560" width="210" height="30" as="geometry" />
        </mxCell>
        <mxCell id="cU3eEYtOXW0r3D3nBDdk-46" value="" style="shape=image;html=1;verticalAlign=top;verticalLabelPosition=bottom;labelBackgroundColor=#ffffff;imageAspect=0;aspect=fixed;image=https://cdn1.iconfinder.com/data/icons/unicons-line-vol-3/24/docker-128.png" vertex="1" parent="cU3eEYtOXW0r3D3nBDdk-22">
          <mxGeometry x="35" y="465" width="45" height="45" as="geometry" />
        </mxCell>
        <mxCell id="cU3eEYtOXW0r3D3nBDdk-47" value="" style="shape=image;html=1;verticalAlign=top;verticalLabelPosition=bottom;labelBackgroundColor=#ffffff;imageAspect=0;aspect=fixed;image=https://cdn1.iconfinder.com/data/icons/unicons-line-vol-3/24/docker-128.png" vertex="1" parent="cU3eEYtOXW0r3D3nBDdk-22">
          <mxGeometry x="35" y="660" width="45" height="45" as="geometry" />
        </mxCell>
        <mxCell id="cU3eEYtOXW0r3D3nBDdk-48" value="" style="shape=image;html=1;verticalAlign=top;verticalLabelPosition=bottom;labelBackgroundColor=#ffffff;imageAspect=0;aspect=fixed;image=https://cdn1.iconfinder.com/data/icons/unicons-line-vol-3/24/docker-128.png" vertex="1" parent="cU3eEYtOXW0r3D3nBDdk-22">
          <mxGeometry x="35" y="300" width="45" height="45" as="geometry" />
        </mxCell>
        <mxCell id="cU3eEYtOXW0r3D3nBDdk-68" value="" style="shape=image;html=1;verticalAlign=top;verticalLabelPosition=bottom;labelBackgroundColor=#ffffff;imageAspect=0;aspect=fixed;image=https://cdn1.iconfinder.com/data/icons/unicons-line-vol-3/24/docker-128.png" vertex="1" parent="cU3eEYtOXW0r3D3nBDdk-22">
          <mxGeometry x="35" y="120" width="45" height="45" as="geometry" />
        </mxCell>
        <mxCell id="cU3eEYtOXW0r3D3nBDdk-86" value="" style="shape=image;verticalLabelPosition=bottom;labelBackgroundColor=default;verticalAlign=top;aspect=fixed;imageAspect=0;image=data:image/png,iVBORw0KGgoAAAANSUhEUgAAAD4AAABTCAIAAABIySOXAAAAA3NCSVQICAjb4U/gAAAgAElEQVRoQ617CXhV1bn2nveZT3IyzwkZyUQCYRaEIlwVJ9TrbR2qt1qnqu3T2//+ar0W6/Rrbe2116FSxSIOoCAgIAgKiIQpECCEAAESSMg8nZMz7vF/194BQgbA226PJ+fsvc/a7/rW+73f9621oPv7+xVFoUY5LMYxysWhp8PGMfgsx3Gqquq6fv7k8uXLn3rqSZy8/vr5zz//fHZ29tBWRv/e19c3+CKDVvCA0e//h67AKCzL0jRtttLW1vbXv75jnpSkiKZp/0jrHExior+E7X/QAyKRiNfrxWDig6bpFosYFRXldDp5nt+9e3dxccn8+TekpaWlp6fb7fYf1PKQm+ne3l6cgmFgnuHor5Aw+CFGc//+/Rs3bty3b8+Z040+rzcUDoEsPC84XdHp6WmTJk2aNWtWcXExeiIIgokDn68c/RDCDEAfDf1loWPQ6+vrV6xYsX79+sOHa0NB35QSbsZ4MSXJqlNcIMT0+tTGs1LdycCpZkWnrSD37Nmzb7rppqKiIozDPwc60DPGMdj2l4YeCoWWLl368ssvWZn2O6+lu7x05QGp4ayalsg9cJvttrluh9OlC2kaEx8JBw7WNH60qv6LzT5/iHG5XPfff/+jjz6amZn5T7C62cQQ9KNBh4c0Njb+v5df3rLpk5tm0vff6khP5sG6iKTXn5ZWbA6u3x5OiWMf/Ynr6kkO0eqhrfmMmKmq0pHa2g+W1aza1NrRS0+fPmPhwt9NnDjxCkVsCGHYJ598cnC/TSED7033h/gM1x/cs3fvXpits+mbF35hvXO+IzaaZ1gLw3sEW1JScuL0Cdw1U5mWTunNj31dvfK4fNnKtOlqH2vNSsqaNnN68fRyS0d7y9Ydxzd+vTkSkcrLy0VRvKz5hyjvUOj4/WD0I0I/duzYww89GPbuf/sZd0WRVbC4GMdY1jWFsRfTtmzwmbNkxLiFmRNVj0t6Y6m/vUu+aiIrMD49fJriYkVXQdqYaXOnxwX6GrbvPbtl6/aGhlNTp051OBznZXTEbgyFvnDhQhPf4HdY3dRj2B4H2H/+OHPmzC9/+Tgd3PvXZ925WdGcs4h1T2PtBbSQyIgxjBDN8HZacDFCHMvpxbnB0jxp2bpw7XF5crlgFSO6dIaibYwl2erKnz4pO9beUnus82T9kQMHawsLifgMftaQz0Nwsi+88MJw6OYZ8B6SL0nS+Sag1s8888z+XV++9mtXcZ6D98xkHSWMmERbEhk+iqYNyaM1mtaI3HI2hpczkvty0tSX3wlJsja1QmAZSY8002ws+iZYM8pKSl388W27OympYc/+E7Nm/cjU6BE7gGG5yL6w+oijg5OAbpLH5D0+Q7bffuu/f3knN3+WR4y9mrHm0kIcIybSDJiKaA/EivmiGZXEUBqhVE1LDeSm63/7NJyZSudm8ZQe0SOttJBM806Wjx1bkKQEjtQe9wW9jbXHOqZOmzaa1w45z14COtCbvTe9FlR7/vnfZ8acfOqBGEfcOEISMY4RYinT2IBOcMsUreKdZpAX4Z2mOI2mAjkZwaBf+XBleN5M0WGnKS1AKSGGT0bXOEt8eZHnVH2NpkknT9ZzlsTS0lJYbbhBh0Af4Y4hv4HJzUxh165dtQd3PHKH3RXlYa1jKNZJ81Gw64C9idUBWsU7TE7QswrFUjQTS3MprMV59x1WlqNf/1tQQepC65Rcr4WOanK3rnkdsRMe/vfZff3s/GnKys8Wt7e3D8c9/MzloeM3oIrf73/nnXdKc5XCbJG15dJcNCN4kD0QklAwMBAjZ5QJbloyzhgjwCg0p9OcleZj4hIt/+dRy9ffhw7USjSj6XpQD1brUrse6dTlrsyciXfdkr69Womznli6dAmMNRzrkDNXBB2/QbSvrNyBCO92uxgxBTSlWZHSVUpXKB2IpfNUIR8IbnIGRKeoEMVZKcaOIbp6pjD3Kv7Lb8LIg2lGp5QmPXySUroAneOZW28YH+1iUuK0lZ8tgY79c6DD6lVVVZoamlwicJY4irVRjIXghsnJuwHdgIt4atAmQqCbQ0ErNF5sNMWInGC5/x6xrl5BYgPO6LSkhY/rcocuE8M7o5J+fkcylMlt6dywYYOpDZfowBVZXZbl2tra5Fg6M4WnhXjoiUEVgFYoBqyAgYmw0KQD4DHeTdySMSCG4+I5+BXrzMxg0lLo7bvCFKxO6YzWpUututxOKZ2UHhpXmu20s7Mr2O++2waKXgI3Ll0RdGhLS0tLdirtcnA0A5ODKpSuqRhyk98UHaZBDLqfonwU1UPRSKS7KaqTor0U7SdX2TARUIbkRLOv4pevDSsKOgkvkoBbl7vVSIccaLVY7ckJlpJsurP1RGtr66WhX1F9BOg9PT0Ts3iOg04zUA1d9VNqmJIjFAvEIZoN6ANOKVFMyKC+MRTk0HTSR0WHsOgq4tTE8shrb4Ubm9XsVDxdo1SvpkKEOY0RUZpkp/G9vUxSVPeRI0fy8/Mvgf6KrA7CIL+NjSJ6okVa9HCjFq7TpZO60qBLLTCzrvkpLULpYfIiRAdJgBtfA5TeT+k+45LhBjqTEC9MKmOra8Als2sypfRSSocWbpEDp5JjwqEwVZ4Xqa6uunRKc0VWxxPgqRy6qSma1MKIoDsLxhgklon56ZDOAKVf10K0Bqf0U5B2wngcCEAYKJbWOU1lKFVgaP2meZbN25Rb5upQTtI2uKerkAFKU90Oymal8jOoJVv2QSIRDc2IPtz8VwQdv0dJFoKZjAcBH/pAU/2U7NW5AMXC58AcSLgh8BqqId1IY0yjEugAhgGDyQ3Ds6UF/PpNEmYPHMRrSJMEnzFvwDF6godSNd3XcxoOlpGRMZrGXyl05NOtnbKiqCwT0EP1NBXUWJliYU8FzzT0G1GGpF66xgIslI+ETCQBOIixGdxFXsCvUW4nGxNF+wOqQ+QAnNxjwjcsnBKv+wKIWn0nTpxITU2F4UZEf3muw0fffvvtrpZD43KQjcF2ii77YHkDCp7IEHzogkoDn2580BUDq8KS8wqr4zO6ZHYAZwhJ6IQ4LhAEYrMRgpg0Zhw8z4i87nHJdXV1+GrSZjhhLgMdv0TJ/NGHi6aXSNmpFFoxWyfhH4gNQ8LAuoke70APxOT93MtArKvoBnpoGh73M/GxrBQhv8UA4TDfz9ueZbSZ49m1q5fu3LnTTKJg+yHouSEF35DLuPree+95HKGKQoFnqWBI5QXEEY0mCTH4DFtCBsANkAN/YAgy+sT2DOGKQYVziEkfCGhyVaM8LlYjI4abIYkD8M990jmOmT+TKxjT9M7rv1Ief/W66+Zj+gDVwmDmXIbrR48eRfk8tYhJjoPrUL1e1eHQOMDGQ0guDukwHA8AYXvDquYXeCQ6Y5DYYIVhcvST+ADxB8ZugUZdMDnBjx4Y3YBZRIH4wIRCThC63nzjsdbWtp/+9F6TOefRXwZ6d3c3yt6sZMbt1CSZ6ehRYqIkzsUQU8PSDEMMj6ycQAaHwGN8w18DtmFzA73JKILY7AClMHaRjcgQQxVoNbxBUwyb43ZEPhhFURWOoScUCc95Qr/5838hDN988y2D0V+G6263GyPlC1ACpztteiSiN7XJ4YhkPJCEyQG/NF2QeCrxUdBdlw1PNahveq3hpqazEnvzHAMGmrCJwQly0gXgFgTekHoKjxZ4LjNFfPbn+oqlz2KqFZOBJnoY7jJWz83NS05Orj52vKefz0iUQmG+q1cT+Uh6CsPaWFSKxFBEwck4Gy5rKDoGAB8HbG5qyABniOZoNJwFGoJTsDWxwoAldBmm1hi32wpkLKfY7JB9MqalefTj/xp66i/PoMnbbrsN76Tsf+qppwYeMdIfjycaWcDqtVtwZ0kub7Ogz7QXsRKpqYO3WC1AT5hj+qRBdUIb4DPYb1DF+IrPRCIHcJuc5uCoxO4GfFWLyGqvV/cHaY9H4HjUVbA/oSVDs2B/chwzNlP6nw/2ZeeVp6SkwEbs008/PRLmgXMYsrKyssrKXVt2nIjIbHqSEBsFduuBIHwzKEthNI17OJRu0BQggdExBsQ1TaAEq/EZPyJnMEQG14hLAjcsgdwCuEMR2euH1bmkVCE6iRbsOioZc3Lb0AIUuUxiLKfJ3neW7BtXPikuLo5MV6BPQDBaB8g1PJaL+nBt6M1lkWNNNruDczkxOSNjLvrs2Zbm5tZAIAjrkAyRcB0xCPw+98JnQ9chL4QYhgxCWwl8gy7IGv2hcJ9PFy1s8UQhtYji3DJjkxlBYXiFFpBs4qWxqBRE/vZ5jgzPsRdffBGqTWa/iPGHCb7ZE4TS9WvXrV3zZXRUdDgsN7Soh0+EMH/riRJtVgwkQQJGBYNBm90GEAYwIpWG4ckL32Bf4hYch/EhB9yQ5yORcCQiSxElLMu0QCdkMalFjCVGZnhSdBNDGuNnCpVhWEIegWNz09k3P2zIyCoYcFPTbY1xPC9pVCQcXvTuu6tWfgFwGJn58+fn5OZ8/fXXH67bU31Unj1RmDbOGgetpGX8rqe7l2VRSoggpsFQDDE5SIMgFZxX02VVVsh/iiwrWNUAQEsUFR3DWmM1zqqSGQTST/wc6FkoLApygyskGJCmoMYUExPNq3I3Jg8vKIyJHk9CB8xHrlm9+qMPlwJ3UlLS/Q/cP2nypOamZoEXWJbbf7D6aEPgaINw3Qx7YZYqUkGvzw+woihY4bsgP/pqzKWQIaBppPttbR2E2WC4ccQm2z0ZLGNVaEgNZ1SAOGBmViNgSZVi2h4xAvmceRXOoC/7ytfjF5CWXSSOJno8Euibm5oWv78YuPML8h966CFBFL9cs669owP1DBZVGJqpq6s93GA5frp95gR+VoUtPYniMUctyeg8x7LEd4Hf6AL+B2dMh2Y5BsU/pMMRLRCUkB1iXTJJRshxDiLIbfbEIJ/Rf1LmUGu3BN74yD9t2jVYXxiq6+cFf9fOnR3t7TExMY899gu0snXrtmAQlZvRIDgnCLlZ6a/89sF1mys/WfXVhh09103nZ020picLtIaEEJmw0QfcjYhuoE9MjIOrGdMyGghNwBGCGJY2wcH2g9ET6Ry4hAFQFWrV+vB/vhKISSyBm4IIQ6GjKaCHaevqjgLiuLJxdrtjw8avz+PGDcAkSeGM1MT8MaljH/6322+YtWL9tg1bd27d31qS7Zs6TizI4uKikZ9AcZBeGd2Fk2IpT4NjkwcQrRuAiczHoIZGMiHSHzJTYBwko9ONnELr6qI+WCK9uihSPmEWcOfk5JAmB+67+E8wEIDJAT0zM/PgoRq/PzD4OugEeRhfMh5+ifNZaYm/euD2u265Zl/N8U3b97z9+X6b0DephJ9SwqNGjnHrVgIf40D6zFEcrSN9PZenmXYFm8zkWTVGg/SPYEeXUI3VVuuv/iWyZTd/6+33PvbYY6ibTDDciAtRSBWCwQCgw+2GTyoY3qZWlOad7w8smpQQc0PC1PlzprS0da3c+P3yNd8s/7qlJCcws5yfUGRJTRCjo3SLSGb5WEgxggCxqZlIQrYH8jMiQySjHrC9HKa/Wk3/50uhvqAHUf+JJ54YLOIjWB1Grdqzp621Df0OhYjnXTwklKrIdquYkRo/5DwxFE2nJMU9du8tdy+Ye6D2RGVVzfdHjq/dcTrW1VOcw5XmiTkZbLxHwDwRAhBrGJsMiZH6E/EzcmNMlsiy1niK+ni5/MEKpdsrPPvsr+++++4hwWcodLB81cqVf3jlVUy84NYI1HeQ0ptYFVWLxuKc3TocunkGHcANs6eVXT21PKwLjWdaKndVfbDsi8VrWhM8alEOPz6fLcy2pCYLTgdns2hII8gUA1RGo0JIrbuoyr2Bj9fJdQ3s9IqJDU3tWPGDswx53EXfDdxfvPTCi36fD1oK0LIkkfxTRZhEsoZgYUi1pjlsJPEyI8BoHcB5ECnK5iwvKSgvLUDW8cW6zUW5Gccbzny0qVFZ77Nb+j1OxWnVEADgunBqZPBeP9PezYZlm6qxs6cVPn7fLf/3pUUrP/s8Py9v9pw5MMr5x12ADhwbv/rqz6//qd/nm2UVfZpeLStY1e/s7MLSM7phtWF5LskdFY1AafrcJUCbl1CDy8E+ZAH4OrU898sNW/sDoZeffBAkbO3oaW7rhGN8tWXPidPNN8+b7nTYeJY7Un+Gt/rdLmeft7/pbEdbZy8iAyq1P732x/iExOKS4qHQgayysvLpp54O+v3TLeJTnqg3+nz7ItKO73fgkhnU4UJnm5uKikujoqM7OgLhiEzKsEse3b2+P7zzWVpyXGFuBgoUfzBUWXXkvjuuHZOemJwYO6E0D4OZmZ78+z8tKc7P/vHNs+H/v33l/UN1DdTZThQZ182Zkp2ZjCgGAqDU/NXjjy9a/H5WVpb5zIFnY9rgtVdfBe6rrOLTnqhWRa2OSBibtOSEebOnlBXnCwJ36Ej98lWbag/XlJaVhSJKQ1NrQXbaJZFT8Irmlo6tOw8AE+60WoRrZ09KiL2wLwDjP72iaGpF8aert+RkpU4al/fzO6/PG5MK3MUFWaVjx7R19MBtp1qEs4p6+vTpP/7htYW/fy42NhatkbUkJBjPP/fc3t17UljmtzFRaRy3wu//LhTxeNwvPfP49XOvQqqXmpw4bVIZIsnuqhoizzxvEZjxxbmXhg4hmjqhcFxhdmFe5lUTi++4cdZN86babRdtsBEFvigva9N3+6pr62dMLk1PxtJS9rii7JSEGMRgry+wZvOuGbQ+1SLuDkuNZ84gQcJOCZJfoNT427vvLvvkUzelL4yJLhEF8HiR199B6b959J7JFaV/fOvDl/+8eO3GbVaRqxg3dvuuAz29XrJhRNX+5eqKwX4zvBu4CgZnpSeWFWaXFGSlJMbCnMNvc7vssR73hi17Dh87PXFcvsNOCjzztq5e35pNlZNperpVtNDUwVDkUE1NXn4eaMPs2b37wyUfCpp2n9NRYRGBu1dVkOMlJ8ZfO3dGV1dPSW4q7ARxeWPR8rqjx3OzUsOhkKbKWWkJxsTFFR0YKByj3YpLoM1dC+bsO3Ts3Y/W+YMXtjKFwxGUUXYjg55ns0y3COFg8O033wJ5WJHjaw8fLhf5R9wuAAzrWqcirw9E0nMy/vXmeVEOK4rKvQeOvv67R5ByHTl++t47/uVH08vuvX3e3KsroJajofmh55HiFBeM6fX2r9qwAySZVF4AYUUjDU1tm7btvU7gPUhDaTqRY6oiclNnlwtLWpU7dtho6j6Xw80ySPZ8KubdKBuDia4woj1m/ILBcEJctCfadfv8GXEx7tSk2MnlYyEa/yBsxkh/B/cQCfKjP715+qTilV9t/2zdd+Yo9Xr9gqa7zy2jpnPczXarriorPvucQaa1wGGbIIookLwI8XBBmk5i2bOtnd0o0FXF7bRFuR2IR1Eu+x03zLQIFz3vh1r3/P2saOMsLjPGnT/psFsmlRVAi0maSUpivaOr16HrjnN2QkScYxOLBb61pYVJ59kfO3CJDuga2GK2kifwfX2+bdt3g81J8R54GElSaTo+NtrMFv/XiM0fdnT3YcuAKoUGewuA+vzBxqY2m9UyZfxY3IlI0tzalYg6cFAQhQvfZLeAKcyPrNY4lsFKTwAZ87mjgOdgkKWfb2jv7AUL584YyG//QcTmzwFo0cdfHT9er8khUnUbRuns9q7aWPnbVxYfOnLqgZ9cl5IYg/OYzj/d3JbDnyvwzj0+j+cLUIXNtlkwNphCJWnKuSOVY3MEbl9jy4q1W37+42st4sAus38SdK2to3vjlt1pSdfD0ds7+76trIZ3dnb3QWf+48mfZaQkkMlMTevrD7Se7cAk7xBtcjL0NIvA5fC8pGvBQSYHPojRXJtYE5GXf7kVGSL0O8ptx5zazuq6tZt2/vqRn6TEuS8hdsN7aEwLDJw2hnHC/3ywqrKqFrYLhSOIspPLC66ZMb68KAcoT51p2XPgWEVp/snTLWp/IMk9wp7C8RaeQ7kIIR/g+KBnlgv8T5y2T/oDb/199abt+8akJ4VC4X019ZnpKdEe7MZAPXaBYMOxmmfMyEK8rbvvZGNLYV4GnB6B8NpZFShNoNmAHu12eqKdUU475j9A9LWbd22pPABnRdXyl8Wr4indNdIujSiG4WR450i7PNGlG+0WPHVVIFxbd6qm7hTQjMlMfe7JR7FNQAl6MdM1GuIB3NA/iwOflbA/Jtr5zpKqV99elpYcPyYjMTHWgygrijySHFnpQ5T9eNUWDELt8UZkaYW56chkOrp7q2uOXy/w4kgyjCHkLrE9FUo0324tEPl9Yak6Ip+Qlcy0pPg4jzErdUXBiGa4SNBXtf9Iekr8L+675cvNOzdu3Vt18KgkY+MAWRlBK3a79b+f+8XKDduR4lot4ryZEx66+waMw4r125WIlGdzDl2IOWcwDlXQJYzH0xTUJo/nsnjpld7+nt4+rBTYrCIpagYd4CtceWg+gyFDUFPlY6ea136z+5lf3okYvODa6TVHG3fsrT168kxXdx8mAwUs4lF6cX4WiH7trInjxo6xWkUkjNv31ESxTO7oeTVdO2XCcKIP70yTov6my+v0uBe9/l+52ZnQNTmEHQEDBxIEuNT1cyYj1xv8W4bldU0JhiJgrc0iLLhuRmJ8tBnhYXhww5hyoqABUEhEUzMMoYVla7a+8d7K2zA/SjKRkQ/2kdTkka9cfBaB4LCkNIXCuWPSigvzkHepUOVzB7LiN977IjkhJjkhdjCVyLIBWWBhEdRWbvh+1cbvm1q60BPsbcDUNCn+yd06kg6kHJh9MNs729b16lvLPIHQ/S479oCMBm+EFHTEW8GGBXbrsT7fV99ULrhhLplUZLFwbm5goKJcjjsXzFny+abM1MT4QZXE+aZcTtvDd9/4uz998PGqzUtXYoGOQ/aLlzmZC84/8bNb58+ZBBcKhiNvvP9FW0vHI1EO6PeIYMyT7KNXZnXcjaCLUuVAZ8/4srEpyQloVVPMXQCkqbSUuLoTTfsPHS8rykVJNfyREJkJJfke7Ad32Jw2C1QyJtqVkZowvjTn1utmIBuF3iOPQqmKiimBom532Mxcd3hT5pkRnjHarZDLOTbL/r7+lV9+M644X+QtjIzEfcDwYPA9t13z7Gt/f/Pvq5/42QJEmSHtgBsoSTN+fC1mqFHvQRxwBvTGD3GYvIB3Ll2xORSWZI4N45bRxMVo+gdYHXd7Nb0yLLX19U8YNzYxIY7MaygXJphQ3RTmZ67aUIl0D3X0iAURPBHWNdmCdzIbTObjyTLa6bMdL77x0ZH605hCCmpam6ohVyGJ4Si2vFLocLejkrLMH4TUgI5Im2ZdNRESCe0zfdFs3+N2oChetXFH9eETuVkpbucIMXw4EgzCtl2H/vy3lQePnBTcsa7MsRFvd6skHZUVFMqxo1Q0l4eOke3VtGX9oXd9AXAde06h16cam9PTksdkpTHYcz2I8YAV53HnZ6d/uvrbTd9VIdonxnuIWUeyHVoG6Mbm9tcXrVj00TqwRXDHJU6c407LZa32YFdLtywdluQxPA83G277y0DvUbWtocji/sCesKQLFntiRlRuGStYQ31dO/ccBGFAG6fDbuwaHAht+IusDvMcmHD7fO222mONsqxioQYCaqo+VBHjBgXcXV33yeotKEYPHjmBPBHRlXe4sWwguqMtrhhWsIS62/yKfFCSkd+kkFXCi/DTNVMmDB9BnIGToMcf+4OnsAKEvWqJGZ68ctEdw3CcEgm3V28LnD0JskILK8oLJ5XmZqbFgy2I5PWNLW99sBrIEHRQOmDdCIIN9UT2ghFAB/r9wdb2bviDtx/zUBc0yoSBqs9TNCV6DJnl6m9t6Kz+To0Ewfh/s9tudFw0CzKCwsB6zYq6LhD+FouZNMO7YuJzy5yp2RBys3VOtMYWTZZ8PVJ/r6IzEm1fsno7Zicx245Xa2u74gukcawfm3Q1bP6igK+ts6ezpw/5M3algDzQHxS7mCTyB0LVh+tFVZsoCrMw70BR7/n8TfUHGLvLEZPkSh4D4e+q3eXv7/3EHwTpp1iF85YfCj2k69+HIsB9BrQWLOg9nEawOc/nWyC6HPJHQkFbekGwuT4YCmH38IMPP2SsJ0YOHTz48sKF/+603+KwBTT9jKIcwOxfKIzUDUqSNybt6injUpJi42Pwj2S4r7dVrVz3XRHL3ON2jreIIk3WD04rCvgZ7unAkqotKsaRlMnbnRjkYE/7F4EQ0vTz8fUCdGgI5us+6g/uCksI0GJUbPz42daouAtJIqyISRBvtxQiixw0qJ9ZKHWdffUPfywuGnvnXXeWlZdhndWiaVOsImpYN6Mnc+wUi/hTl2NTMLTY27+nuu7wsYas9OTk+Nj2rp7j9Y03WiwPYfaIYXqxgEzWr6kkhGlMRURCWAr3drbY3bG26BhPfkXb3q+DyBwGkXsAep+mrfKHwBBM8DK84ErLA7MFu4vciQkNRZaC/nDAB5YPlkKKYYX4dNYVU9fS/szvno+NcuJOZJWoeTsViSzBkLhDAss1VrFMENYFglURqfvEmcKz7chjMEsxxSIENA0UxkZU082hR0g6sLRqPjro7VKhYBrZMZTBsoNTmgHoe8Py+iD+eYvO2V2xxVMdiRnmJIkqId/ulUJ+hJ7RKjrWYrcmIZdM7u3tiPR2I0MAiAt3GyWJpKselrvKaoHOpnL6I1HOBklq6e1f7g/cBYXCNo1z5sQUEML2QIg2lp/Cfq/c14Eae7IdFy8cBDqI36uS0AIQiRXX2GIT8XA5HIoEvGG/73yoH/SrYR8hbIJFTEiHHuunawdWDQfdhUe0GbxvlBXU9z2wKtnfoCNelgo8JiOQOZq3k72r2NxxThKMk7Qa8MUwVJl48ZQTruBH8YZqYiKds9hwK6b0Az0dUviihbtheEc4wVodCsuHdQpZ9nlDmo9wM/R8u6VU5F7o8b3rDfRqKpQgTZHkwf4AAAGqSURBVFGOSBGUFJhpAWL0sB8ehc/ioNUeEDboGyvwQ4rUAcKkcyx2RfWEA8GOZsHhJrXXKBseRsA76BTNCbJob1MVz8VlFG5B0IJWVoakHobZyfHTpl19T0rymtVrKju7Yzk2hWUTOCaKZppVNUwW62HBgUOTJTocLLIPzecGoMezLNB3R+RAR5MrPQ9ER1CjfrDRiVeqLs8hX0uRse9scD87VG2FP7RN0e574IEZV02PjYsTsat69ux169Z9+823p3hLIKcQex46Tx1XfX06dtpYBvIfxd/n0NWs0ZbBkBmPE4T9ETnc0y6HAqIzih08ZJc29cVXaburqrt5gbnKblxCDyDw7/tCTQ631u/DHgks1jqczp07drjc7gcfeujUyVNUQmb+j26A+nnbzu5a9p6vtcGaXoBNVOi/4u3KZJlEbmgGPOCyIFmFhUcH1HAg0H4a1uOI9l9UaF4hfkawnmHFWmyH0rF7Vm+W1U/7gwt9kWDZlNmPPV0wc962rdtqag5DOrZs3Vq1twrmR4CFsUBR7IrwpGakFI0H8cyna3IEETDfyH6HAPj/mpPhdDsA/c8AAAAASUVORK5CYII=;" vertex="1" parent="cU3eEYtOXW0r3D3nBDdk-22">
          <mxGeometry x="173" y="470" width="32" height="42.84" as="geometry" />
        </mxCell>
        <mxCell id="cU3eEYtOXW0r3D3nBDdk-87" value="" style="shape=image;verticalLabelPosition=bottom;labelBackgroundColor=default;verticalAlign=top;aspect=fixed;imageAspect=0;image=data:image/png,iVBORw0KGgoAAAANSUhEUgAAAD4AAABTCAIAAABIySOXAAAAA3NCSVQICAjb4U/gAAAgAElEQVRoQ617CXhV1bn2nveZT3IyzwkZyUQCYRaEIlwVJ9TrbR2qt1qnqu3T2//+ar0W6/Rrbe2116FSxSIOoCAgIAgKiIQpECCEAAESSMg8nZMz7vF/194BQgbA226PJ+fsvc/a7/rW+73f9621oPv7+xVFoUY5LMYxysWhp8PGMfgsx3Gqquq6fv7k8uXLn3rqSZy8/vr5zz//fHZ29tBWRv/e19c3+CKDVvCA0e//h67AKCzL0jRtttLW1vbXv75jnpSkiKZp/0jrHExior+E7X/QAyKRiNfrxWDig6bpFosYFRXldDp5nt+9e3dxccn8+TekpaWlp6fb7fYf1PKQm+ne3l6cgmFgnuHor5Aw+CFGc//+/Rs3bty3b8+Z040+rzcUDoEsPC84XdHp6WmTJk2aNWtWcXExeiIIgokDn68c/RDCDEAfDf1loWPQ6+vrV6xYsX79+sOHa0NB35QSbsZ4MSXJqlNcIMT0+tTGs1LdycCpZkWnrSD37Nmzb7rppqKiIozDPwc60DPGMdj2l4YeCoWWLl368ssvWZn2O6+lu7x05QGp4ayalsg9cJvttrluh9OlC2kaEx8JBw7WNH60qv6LzT5/iHG5XPfff/+jjz6amZn5T7C62cQQ9KNBh4c0Njb+v5df3rLpk5tm0vff6khP5sG6iKTXn5ZWbA6u3x5OiWMf/Ynr6kkO0eqhrfmMmKmq0pHa2g+W1aza1NrRS0+fPmPhwt9NnDjxCkVsCGHYJ598cnC/TSED7033h/gM1x/cs3fvXpits+mbF35hvXO+IzaaZ1gLw3sEW1JScuL0Cdw1U5mWTunNj31dvfK4fNnKtOlqH2vNSsqaNnN68fRyS0d7y9Ydxzd+vTkSkcrLy0VRvKz5hyjvUOj4/WD0I0I/duzYww89GPbuf/sZd0WRVbC4GMdY1jWFsRfTtmzwmbNkxLiFmRNVj0t6Y6m/vUu+aiIrMD49fJriYkVXQdqYaXOnxwX6GrbvPbtl6/aGhlNTp051OBznZXTEbgyFvnDhQhPf4HdY3dRj2B4H2H/+OHPmzC9/+Tgd3PvXZ925WdGcs4h1T2PtBbSQyIgxjBDN8HZacDFCHMvpxbnB0jxp2bpw7XF5crlgFSO6dIaibYwl2erKnz4pO9beUnus82T9kQMHawsLifgMftaQz0Nwsi+88MJw6OYZ8B6SL0nS+Sag1s8888z+XV++9mtXcZ6D98xkHSWMmERbEhk+iqYNyaM1mtaI3HI2hpczkvty0tSX3wlJsja1QmAZSY8002ws+iZYM8pKSl388W27OympYc/+E7Nm/cjU6BE7gGG5yL6w+oijg5OAbpLH5D0+Q7bffuu/f3knN3+WR4y9mrHm0kIcIybSDJiKaA/EivmiGZXEUBqhVE1LDeSm63/7NJyZSudm8ZQe0SOttJBM806Wjx1bkKQEjtQe9wW9jbXHOqZOmzaa1w45z14COtCbvTe9FlR7/vnfZ8acfOqBGEfcOEISMY4RYinT2IBOcMsUreKdZpAX4Z2mOI2mAjkZwaBf+XBleN5M0WGnKS1AKSGGT0bXOEt8eZHnVH2NpkknT9ZzlsTS0lJYbbhBh0Af4Y4hv4HJzUxh165dtQd3PHKH3RXlYa1jKNZJ81Gw64C9idUBWsU7TE7QswrFUjQTS3MprMV59x1WlqNf/1tQQepC65Rcr4WOanK3rnkdsRMe/vfZff3s/GnKys8Wt7e3D8c9/MzloeM3oIrf73/nnXdKc5XCbJG15dJcNCN4kD0QklAwMBAjZ5QJbloyzhgjwCg0p9OcleZj4hIt/+dRy9ffhw7USjSj6XpQD1brUrse6dTlrsyciXfdkr69Womznli6dAmMNRzrkDNXBB2/QbSvrNyBCO92uxgxBTSlWZHSVUpXKB2IpfNUIR8IbnIGRKeoEMVZKcaOIbp6pjD3Kv7Lb8LIg2lGp5QmPXySUroAneOZW28YH+1iUuK0lZ8tgY79c6DD6lVVVZoamlwicJY4irVRjIXghsnJuwHdgIt4atAmQqCbQ0ErNF5sNMWInGC5/x6xrl5BYgPO6LSkhY/rcocuE8M7o5J+fkcylMlt6dywYYOpDZfowBVZXZbl2tra5Fg6M4WnhXjoiUEVgFYoBqyAgYmw0KQD4DHeTdySMSCG4+I5+BXrzMxg0lLo7bvCFKxO6YzWpUututxOKZ2UHhpXmu20s7Mr2O++2waKXgI3Ll0RdGhLS0tLdirtcnA0A5ODKpSuqRhyk98UHaZBDLqfonwU1UPRSKS7KaqTor0U7SdX2TARUIbkRLOv4pevDSsKOgkvkoBbl7vVSIccaLVY7ckJlpJsurP1RGtr66WhX1F9BOg9PT0Ts3iOg04zUA1d9VNqmJIjFAvEIZoN6ANOKVFMyKC+MRTk0HTSR0WHsOgq4tTE8shrb4Ubm9XsVDxdo1SvpkKEOY0RUZpkp/G9vUxSVPeRI0fy8/Mvgf6KrA7CIL+NjSJ6okVa9HCjFq7TpZO60qBLLTCzrvkpLULpYfIiRAdJgBtfA5TeT+k+45LhBjqTEC9MKmOra8Als2sypfRSSocWbpEDp5JjwqEwVZ4Xqa6uunRKc0VWxxPgqRy6qSma1MKIoDsLxhgklon56ZDOAKVf10K0Bqf0U5B2wngcCEAYKJbWOU1lKFVgaP2meZbN25Rb5upQTtI2uKerkAFKU90Oymal8jOoJVv2QSIRDc2IPtz8VwQdv0dJFoKZjAcBH/pAU/2U7NW5AMXC58AcSLgh8BqqId1IY0yjEugAhgGDyQ3Ds6UF/PpNEmYPHMRrSJMEnzFvwDF6godSNd3XcxoOlpGRMZrGXyl05NOtnbKiqCwT0EP1NBXUWJliYU8FzzT0G1GGpF66xgIslI+ETCQBOIixGdxFXsCvUW4nGxNF+wOqQ+QAnNxjwjcsnBKv+wKIWn0nTpxITU2F4UZEf3muw0fffvvtrpZD43KQjcF2ii77YHkDCp7IEHzogkoDn2580BUDq8KS8wqr4zO6ZHYAZwhJ6IQ4LhAEYrMRgpg0Zhw8z4i87nHJdXV1+GrSZjhhLgMdv0TJ/NGHi6aXSNmpFFoxWyfhH4gNQ8LAuoke70APxOT93MtArKvoBnpoGh73M/GxrBQhv8UA4TDfz9ueZbSZ49m1q5fu3LnTTKJg+yHouSEF35DLuPree+95HKGKQoFnqWBI5QXEEY0mCTH4DFtCBsANkAN/YAgy+sT2DOGKQYVziEkfCGhyVaM8LlYjI4abIYkD8M990jmOmT+TKxjT9M7rv1Ief/W66+Zj+gDVwmDmXIbrR48eRfk8tYhJjoPrUL1e1eHQOMDGQ0guDukwHA8AYXvDquYXeCQ6Y5DYYIVhcvST+ADxB8ZugUZdMDnBjx4Y3YBZRIH4wIRCThC63nzjsdbWtp/+9F6TOefRXwZ6d3c3yt6sZMbt1CSZ6ehRYqIkzsUQU8PSDEMMj6ycQAaHwGN8w18DtmFzA73JKILY7AClMHaRjcgQQxVoNbxBUwyb43ZEPhhFURWOoScUCc95Qr/5838hDN988y2D0V+G6263GyPlC1ACpztteiSiN7XJ4YhkPJCEyQG/NF2QeCrxUdBdlw1PNahveq3hpqazEnvzHAMGmrCJwQly0gXgFgTekHoKjxZ4LjNFfPbn+oqlz2KqFZOBJnoY7jJWz83NS05Orj52vKefz0iUQmG+q1cT+Uh6CsPaWFSKxFBEwck4Gy5rKDoGAB8HbG5qyABniOZoNJwFGoJTsDWxwoAldBmm1hi32wpkLKfY7JB9MqalefTj/xp66i/PoMnbbrsN76Tsf+qppwYeMdIfjycaWcDqtVtwZ0kub7Ogz7QXsRKpqYO3WC1AT5hj+qRBdUIb4DPYb1DF+IrPRCIHcJuc5uCoxO4GfFWLyGqvV/cHaY9H4HjUVbA/oSVDs2B/chwzNlP6nw/2ZeeVp6SkwEbs008/PRLmgXMYsrKyssrKXVt2nIjIbHqSEBsFduuBIHwzKEthNI17OJRu0BQggdExBsQ1TaAEq/EZPyJnMEQG14hLAjcsgdwCuEMR2euH1bmkVCE6iRbsOioZc3Lb0AIUuUxiLKfJ3neW7BtXPikuLo5MV6BPQDBaB8g1PJaL+nBt6M1lkWNNNruDczkxOSNjLvrs2Zbm5tZAIAjrkAyRcB0xCPw+98JnQ9chL4QYhgxCWwl8gy7IGv2hcJ9PFy1s8UQhtYji3DJjkxlBYXiFFpBs4qWxqBRE/vZ5jgzPsRdffBGqTWa/iPGHCb7ZE4TS9WvXrV3zZXRUdDgsN7Soh0+EMH/riRJtVgwkQQJGBYNBm90GEAYwIpWG4ckL32Bf4hYch/EhB9yQ5yORcCQiSxElLMu0QCdkMalFjCVGZnhSdBNDGuNnCpVhWEIegWNz09k3P2zIyCoYcFPTbY1xPC9pVCQcXvTuu6tWfgFwGJn58+fn5OZ8/fXXH67bU31Unj1RmDbOGgetpGX8rqe7l2VRSoggpsFQDDE5SIMgFZxX02VVVsh/iiwrWNUAQEsUFR3DWmM1zqqSGQTST/wc6FkoLApygyskGJCmoMYUExPNq3I3Jg8vKIyJHk9CB8xHrlm9+qMPlwJ3UlLS/Q/cP2nypOamZoEXWJbbf7D6aEPgaINw3Qx7YZYqUkGvzw+woihY4bsgP/pqzKWQIaBppPttbR2E2WC4ccQm2z0ZLGNVaEgNZ1SAOGBmViNgSZVi2h4xAvmceRXOoC/7ytfjF5CWXSSOJno8Euibm5oWv78YuPML8h966CFBFL9cs669owP1DBZVGJqpq6s93GA5frp95gR+VoUtPYniMUctyeg8x7LEd4Hf6AL+B2dMh2Y5BsU/pMMRLRCUkB1iXTJJRshxDiLIbfbEIJ/Rf1LmUGu3BN74yD9t2jVYXxiq6+cFf9fOnR3t7TExMY899gu0snXrtmAQlZvRIDgnCLlZ6a/89sF1mys/WfXVhh09103nZ020picLtIaEEJmw0QfcjYhuoE9MjIOrGdMyGghNwBGCGJY2wcH2g9ET6Ry4hAFQFWrV+vB/vhKISSyBm4IIQ6GjKaCHaevqjgLiuLJxdrtjw8avz+PGDcAkSeGM1MT8MaljH/6322+YtWL9tg1bd27d31qS7Zs6TizI4uKikZ9AcZBeGd2Fk2IpT4NjkwcQrRuAiczHoIZGMiHSHzJTYBwko9ONnELr6qI+WCK9uihSPmEWcOfk5JAmB+67+E8wEIDJAT0zM/PgoRq/PzD4OugEeRhfMh5+ifNZaYm/euD2u265Zl/N8U3b97z9+X6b0DephJ9SwqNGjnHrVgIf40D6zFEcrSN9PZenmXYFm8zkWTVGg/SPYEeXUI3VVuuv/iWyZTd/6+33PvbYY6ibTDDciAtRSBWCwQCgw+2GTyoY3qZWlOad7w8smpQQc0PC1PlzprS0da3c+P3yNd8s/7qlJCcws5yfUGRJTRCjo3SLSGb5WEgxggCxqZlIQrYH8jMiQySjHrC9HKa/Wk3/50uhvqAHUf+JJ54YLOIjWB1Grdqzp621Df0OhYjnXTwklKrIdquYkRo/5DwxFE2nJMU9du8tdy+Ye6D2RGVVzfdHjq/dcTrW1VOcw5XmiTkZbLxHwDwRAhBrGJsMiZH6E/EzcmNMlsiy1niK+ni5/MEKpdsrPPvsr+++++4hwWcodLB81cqVf3jlVUy84NYI1HeQ0ptYFVWLxuKc3TocunkGHcANs6eVXT21PKwLjWdaKndVfbDsi8VrWhM8alEOPz6fLcy2pCYLTgdns2hII8gUA1RGo0JIrbuoyr2Bj9fJdQ3s9IqJDU3tWPGDswx53EXfDdxfvPTCi36fD1oK0LIkkfxTRZhEsoZgYUi1pjlsJPEyI8BoHcB5ECnK5iwvKSgvLUDW8cW6zUW5Gccbzny0qVFZ77Nb+j1OxWnVEADgunBqZPBeP9PezYZlm6qxs6cVPn7fLf/3pUUrP/s8Py9v9pw5MMr5x12ADhwbv/rqz6//qd/nm2UVfZpeLStY1e/s7MLSM7phtWF5LskdFY1AafrcJUCbl1CDy8E+ZAH4OrU898sNW/sDoZeffBAkbO3oaW7rhGN8tWXPidPNN8+b7nTYeJY7Un+Gt/rdLmeft7/pbEdbZy8iAyq1P732x/iExOKS4qHQgayysvLpp54O+v3TLeJTnqg3+nz7ItKO73fgkhnU4UJnm5uKikujoqM7OgLhiEzKsEse3b2+P7zzWVpyXGFuBgoUfzBUWXXkvjuuHZOemJwYO6E0D4OZmZ78+z8tKc7P/vHNs+H/v33l/UN1DdTZThQZ182Zkp2ZjCgGAqDU/NXjjy9a/H5WVpb5zIFnY9rgtVdfBe6rrOLTnqhWRa2OSBibtOSEebOnlBXnCwJ36Ej98lWbag/XlJaVhSJKQ1NrQXbaJZFT8Irmlo6tOw8AE+60WoRrZ09KiL2wLwDjP72iaGpF8aert+RkpU4al/fzO6/PG5MK3MUFWaVjx7R19MBtp1qEs4p6+vTpP/7htYW/fy42NhatkbUkJBjPP/fc3t17UljmtzFRaRy3wu//LhTxeNwvPfP49XOvQqqXmpw4bVIZIsnuqhoizzxvEZjxxbmXhg4hmjqhcFxhdmFe5lUTi++4cdZN86babRdtsBEFvigva9N3+6pr62dMLk1PxtJS9rii7JSEGMRgry+wZvOuGbQ+1SLuDkuNZ84gQcJOCZJfoNT427vvLvvkUzelL4yJLhEF8HiR199B6b959J7JFaV/fOvDl/+8eO3GbVaRqxg3dvuuAz29XrJhRNX+5eqKwX4zvBu4CgZnpSeWFWaXFGSlJMbCnMNvc7vssR73hi17Dh87PXFcvsNOCjzztq5e35pNlZNperpVtNDUwVDkUE1NXn4eaMPs2b37wyUfCpp2n9NRYRGBu1dVkOMlJ8ZfO3dGV1dPSW4q7ARxeWPR8rqjx3OzUsOhkKbKWWkJxsTFFR0YKByj3YpLoM1dC+bsO3Ts3Y/W+YMXtjKFwxGUUXYjg55ns0y3COFg8O033wJ5WJHjaw8fLhf5R9wuAAzrWqcirw9E0nMy/vXmeVEOK4rKvQeOvv67R5ByHTl++t47/uVH08vuvX3e3KsroJajofmh55HiFBeM6fX2r9qwAySZVF4AYUUjDU1tm7btvU7gPUhDaTqRY6oiclNnlwtLWpU7dtho6j6Xw80ySPZ8KubdKBuDia4woj1m/ILBcEJctCfadfv8GXEx7tSk2MnlYyEa/yBsxkh/B/cQCfKjP715+qTilV9t/2zdd+Yo9Xr9gqa7zy2jpnPczXarriorPvucQaa1wGGbIIookLwI8XBBmk5i2bOtnd0o0FXF7bRFuR2IR1Eu+x03zLQIFz3vh1r3/P2saOMsLjPGnT/psFsmlRVAi0maSUpivaOr16HrjnN2QkScYxOLBb61pYVJ59kfO3CJDuga2GK2kifwfX2+bdt3g81J8R54GElSaTo+NtrMFv/XiM0fdnT3YcuAKoUGewuA+vzBxqY2m9UyZfxY3IlI0tzalYg6cFAQhQvfZLeAKcyPrNY4lsFKTwAZ87mjgOdgkKWfb2jv7AUL584YyG//QcTmzwFo0cdfHT9er8khUnUbRuns9q7aWPnbVxYfOnLqgZ9cl5IYg/OYzj/d3JbDnyvwzj0+j+cLUIXNtlkwNphCJWnKuSOVY3MEbl9jy4q1W37+42st4sAus38SdK2to3vjlt1pSdfD0ds7+76trIZ3dnb3QWf+48mfZaQkkMlMTevrD7Se7cAk7xBtcjL0NIvA5fC8pGvBQSYHPojRXJtYE5GXf7kVGSL0O8ptx5zazuq6tZt2/vqRn6TEuS8hdsN7aEwLDJw2hnHC/3ywqrKqFrYLhSOIspPLC66ZMb68KAcoT51p2XPgWEVp/snTLWp/IMk9wp7C8RaeQ7kIIR/g+KBnlgv8T5y2T/oDb/199abt+8akJ4VC4X019ZnpKdEe7MZAPXaBYMOxmmfMyEK8rbvvZGNLYV4GnB6B8NpZFShNoNmAHu12eqKdUU475j9A9LWbd22pPABnRdXyl8Wr4indNdIujSiG4WR450i7PNGlG+0WPHVVIFxbd6qm7hTQjMlMfe7JR7FNQAl6MdM1GuIB3NA/iwOflbA/Jtr5zpKqV99elpYcPyYjMTHWgygrijySHFnpQ5T9eNUWDELt8UZkaYW56chkOrp7q2uOXy/w4kgyjCHkLrE9FUo0324tEPl9Yak6Ip+Qlcy0pPg4jzErdUXBiGa4SNBXtf9Iekr8L+675cvNOzdu3Vt18KgkY+MAWRlBK3a79b+f+8XKDduR4lot4ryZEx66+waMw4r125WIlGdzDl2IOWcwDlXQJYzH0xTUJo/nsnjpld7+nt4+rBTYrCIpagYd4CtceWg+gyFDUFPlY6ea136z+5lf3okYvODa6TVHG3fsrT168kxXdx8mAwUs4lF6cX4WiH7trInjxo6xWkUkjNv31ESxTO7oeTVdO2XCcKIP70yTov6my+v0uBe9/l+52ZnQNTmEHQEDBxIEuNT1cyYj1xv8W4bldU0JhiJgrc0iLLhuRmJ8tBnhYXhww5hyoqABUEhEUzMMoYVla7a+8d7K2zA/SjKRkQ/2kdTkka9cfBaB4LCkNIXCuWPSigvzkHepUOVzB7LiN977IjkhJjkhdjCVyLIBWWBhEdRWbvh+1cbvm1q60BPsbcDUNCn+yd06kg6kHJh9MNs729b16lvLPIHQ/S479oCMBm+EFHTEW8GGBXbrsT7fV99ULrhhLplUZLFwbm5goKJcjjsXzFny+abM1MT4QZXE+aZcTtvDd9/4uz998PGqzUtXYoGOQ/aLlzmZC84/8bNb58+ZBBcKhiNvvP9FW0vHI1EO6PeIYMyT7KNXZnXcjaCLUuVAZ8/4srEpyQloVVPMXQCkqbSUuLoTTfsPHS8rykVJNfyREJkJJfke7Ad32Jw2C1QyJtqVkZowvjTn1utmIBuF3iOPQqmKiimBom532Mxcd3hT5pkRnjHarZDLOTbL/r7+lV9+M644X+QtjIzEfcDwYPA9t13z7Gt/f/Pvq5/42QJEmSHtgBsoSTN+fC1mqFHvQRxwBvTGD3GYvIB3Ll2xORSWZI4N45bRxMVo+gdYHXd7Nb0yLLX19U8YNzYxIY7MaygXJphQ3RTmZ67aUIl0D3X0iAURPBHWNdmCdzIbTObjyTLa6bMdL77x0ZH605hCCmpam6ohVyGJ4Si2vFLocLejkrLMH4TUgI5Im2ZdNRESCe0zfdFs3+N2oChetXFH9eETuVkpbucIMXw4EgzCtl2H/vy3lQePnBTcsa7MsRFvd6skHZUVFMqxo1Q0l4eOke3VtGX9oXd9AXAde06h16cam9PTksdkpTHYcz2I8YAV53HnZ6d/uvrbTd9VIdonxnuIWUeyHVoG6Mbm9tcXrVj00TqwRXDHJU6c407LZa32YFdLtywdluQxPA83G277y0DvUbWtocji/sCesKQLFntiRlRuGStYQ31dO/ccBGFAG6fDbuwaHAht+IusDvMcmHD7fO222mONsqxioQYCaqo+VBHjBgXcXV33yeotKEYPHjmBPBHRlXe4sWwguqMtrhhWsIS62/yKfFCSkd+kkFXCi/DTNVMmDB9BnIGToMcf+4OnsAKEvWqJGZ68ctEdw3CcEgm3V28LnD0JskILK8oLJ5XmZqbFgy2I5PWNLW99sBrIEHRQOmDdCIIN9UT2ghFAB/r9wdb2bviDtx/zUBc0yoSBqs9TNCV6DJnl6m9t6Kz+To0Ewfh/s9tudFw0CzKCwsB6zYq6LhD+FouZNMO7YuJzy5yp2RBys3VOtMYWTZZ8PVJ/r6IzEm1fsno7Zicx245Xa2u74gukcawfm3Q1bP6igK+ts6ezpw/5M3algDzQHxS7mCTyB0LVh+tFVZsoCrMw70BR7/n8TfUHGLvLEZPkSh4D4e+q3eXv7/3EHwTpp1iF85YfCj2k69+HIsB9BrQWLOg9nEawOc/nWyC6HPJHQkFbekGwuT4YCmH38IMPP2SsJ0YOHTz48sKF/+603+KwBTT9jKIcwOxfKIzUDUqSNybt6injUpJi42Pwj2S4r7dVrVz3XRHL3ON2jreIIk3WD04rCvgZ7unAkqotKsaRlMnbnRjkYE/7F4EQ0vTz8fUCdGgI5us+6g/uCksI0GJUbPz42daouAtJIqyISRBvtxQiixw0qJ9ZKHWdffUPfywuGnvnXXeWlZdhndWiaVOsImpYN6Mnc+wUi/hTl2NTMLTY27+nuu7wsYas9OTk+Nj2rp7j9Y03WiwPYfaIYXqxgEzWr6kkhGlMRURCWAr3drbY3bG26BhPfkXb3q+DyBwGkXsAep+mrfKHwBBM8DK84ErLA7MFu4vciQkNRZaC/nDAB5YPlkKKYYX4dNYVU9fS/szvno+NcuJOZJWoeTsViSzBkLhDAss1VrFMENYFglURqfvEmcKz7chjMEsxxSIENA0UxkZU082hR0g6sLRqPjro7VKhYBrZMZTBsoNTmgHoe8Py+iD+eYvO2V2xxVMdiRnmJIkqId/ulUJ+hJ7RKjrWYrcmIZdM7u3tiPR2I0MAiAt3GyWJpKselrvKaoHOpnL6I1HOBklq6e1f7g/cBYXCNo1z5sQUEML2QIg2lp/Cfq/c14Eae7IdFy8cBDqI36uS0AIQiRXX2GIT8XA5HIoEvGG/73yoH/SrYR8hbIJFTEiHHuunawdWDQfdhUe0GbxvlBXU9z2wKtnfoCNelgo8JiOQOZq3k72r2NxxThKMk7Qa8MUwVJl48ZQTruBH8YZqYiKds9hwK6b0Az0dUviihbtheEc4wVodCsuHdQpZ9nlDmo9wM/R8u6VU5F7o8b3rDfRqKpQgTZHkwf4AAAGqSURBVFGOSBGUFJhpAWL0sB8ehc/ioNUeEDboGyvwQ4rUAcKkcyx2RfWEA8GOZsHhJrXXKBseRsA76BTNCbJob1MVz8VlFG5B0IJWVoakHobZyfHTpl19T0rymtVrKju7Yzk2hWUTOCaKZppVNUwW62HBgUOTJTocLLIPzecGoMezLNB3R+RAR5MrPQ9ER1CjfrDRiVeqLs8hX0uRse9scD87VG2FP7RN0e574IEZV02PjYsTsat69ux169Z9+823p3hLIKcQex46Tx1XfX06dtpYBvIfxd/n0NWs0ZbBkBmPE4T9ETnc0y6HAqIzih08ZJc29cVXaburqrt5gbnKblxCDyDw7/tCTQ631u/DHgks1jqczp07drjc7gcfeujUyVNUQmb+j26A+nnbzu5a9p6vtcGaXoBNVOi/4u3KZJlEbmgGPOCyIFmFhUcH1HAg0H4a1uOI9l9UaF4hfkawnmHFWmyH0rF7Vm+W1U/7gwt9kWDZlNmPPV0wc962rdtqag5DOrZs3Vq1twrmR4CFsUBR7IrwpGakFI0H8cyna3IEETDfyH6HAPj/mpPhdDsA/c8AAAAASUVORK5CYII=;" vertex="1" parent="cU3eEYtOXW0r3D3nBDdk-22">
          <mxGeometry x="173" y="603.58" width="32" height="42.84" as="geometry" />
        </mxCell>
        <mxCell id="cU3eEYtOXW0r3D3nBDdk-89" value="" style="shape=image;verticalLabelPosition=bottom;labelBackgroundColor=default;verticalAlign=top;aspect=fixed;imageAspect=0;image=data:image/png,iVBORw0KGgoAAAANSUhEUgAAAD4AAABTCAIAAABIySOXAAAAA3NCSVQICAjb4U/gAAAgAElEQVRoQ617CXhV1bn2nveZT3IyzwkZyUQCYRaEIlwVJ9TrbR2qt1qnqu3T2//+ar0W6/Rrbe2116FSxSIOoCAgIAgKiIQpECCEAAESSMg8nZMz7vF/194BQgbA226PJ+fsvc/a7/rW+73f9621oPv7+xVFoUY5LMYxysWhp8PGMfgsx3Gqquq6fv7k8uXLn3rqSZy8/vr5zz//fHZ29tBWRv/e19c3+CKDVvCA0e//h67AKCzL0jRtttLW1vbXv75jnpSkiKZp/0jrHExior+E7X/QAyKRiNfrxWDig6bpFosYFRXldDp5nt+9e3dxccn8+TekpaWlp6fb7fYf1PKQm+ne3l6cgmFgnuHor5Aw+CFGc//+/Rs3bty3b8+Z040+rzcUDoEsPC84XdHp6WmTJk2aNWtWcXExeiIIgokDn68c/RDCDEAfDf1loWPQ6+vrV6xYsX79+sOHa0NB35QSbsZ4MSXJqlNcIMT0+tTGs1LdycCpZkWnrSD37Nmzb7rppqKiIozDPwc60DPGMdj2l4YeCoWWLl368ssvWZn2O6+lu7x05QGp4ayalsg9cJvttrluh9OlC2kaEx8JBw7WNH60qv6LzT5/iHG5XPfff/+jjz6amZn5T7C62cQQ9KNBh4c0Njb+v5df3rLpk5tm0vff6khP5sG6iKTXn5ZWbA6u3x5OiWMf/Ynr6kkO0eqhrfmMmKmq0pHa2g+W1aza1NrRS0+fPmPhwt9NnDjxCkVsCGHYJ598cnC/TSED7033h/gM1x/cs3fvXpits+mbF35hvXO+IzaaZ1gLw3sEW1JScuL0Cdw1U5mWTunNj31dvfK4fNnKtOlqH2vNSsqaNnN68fRyS0d7y9Ydxzd+vTkSkcrLy0VRvKz5hyjvUOj4/WD0I0I/duzYww89GPbuf/sZd0WRVbC4GMdY1jWFsRfTtmzwmbNkxLiFmRNVj0t6Y6m/vUu+aiIrMD49fJriYkVXQdqYaXOnxwX6GrbvPbtl6/aGhlNTp051OBznZXTEbgyFvnDhQhPf4HdY3dRj2B4H2H/+OHPmzC9/+Tgd3PvXZ925WdGcs4h1T2PtBbSQyIgxjBDN8HZacDFCHMvpxbnB0jxp2bpw7XF5crlgFSO6dIaibYwl2erKnz4pO9beUnus82T9kQMHawsLifgMftaQz0Nwsi+88MJw6OYZ8B6SL0nS+Sag1s8888z+XV++9mtXcZ6D98xkHSWMmERbEhk+iqYNyaM1mtaI3HI2hpczkvty0tSX3wlJsja1QmAZSY8002ws+iZYM8pKSl388W27OympYc/+E7Nm/cjU6BE7gGG5yL6w+oijg5OAbpLH5D0+Q7bffuu/f3knN3+WR4y9mrHm0kIcIybSDJiKaA/EivmiGZXEUBqhVE1LDeSm63/7NJyZSudm8ZQe0SOttJBM806Wjx1bkKQEjtQe9wW9jbXHOqZOmzaa1w45z14COtCbvTe9FlR7/vnfZ8acfOqBGEfcOEISMY4RYinT2IBOcMsUreKdZpAX4Z2mOI2mAjkZwaBf+XBleN5M0WGnKS1AKSGGT0bXOEt8eZHnVH2NpkknT9ZzlsTS0lJYbbhBh0Af4Y4hv4HJzUxh165dtQd3PHKH3RXlYa1jKNZJ81Gw64C9idUBWsU7TE7QswrFUjQTS3MprMV59x1WlqNf/1tQQepC65Rcr4WOanK3rnkdsRMe/vfZff3s/GnKys8Wt7e3D8c9/MzloeM3oIrf73/nnXdKc5XCbJG15dJcNCN4kD0QklAwMBAjZ5QJbloyzhgjwCg0p9OcleZj4hIt/+dRy9ffhw7USjSj6XpQD1brUrse6dTlrsyciXfdkr69Womznli6dAmMNRzrkDNXBB2/QbSvrNyBCO92uxgxBTSlWZHSVUpXKB2IpfNUIR8IbnIGRKeoEMVZKcaOIbp6pjD3Kv7Lb8LIg2lGp5QmPXySUroAneOZW28YH+1iUuK0lZ8tgY79c6DD6lVVVZoamlwicJY4irVRjIXghsnJuwHdgIt4atAmQqCbQ0ErNF5sNMWInGC5/x6xrl5BYgPO6LSkhY/rcocuE8M7o5J+fkcylMlt6dywYYOpDZfowBVZXZbl2tra5Fg6M4WnhXjoiUEVgFYoBqyAgYmw0KQD4DHeTdySMSCG4+I5+BXrzMxg0lLo7bvCFKxO6YzWpUututxOKZ2UHhpXmu20s7Mr2O++2waKXgI3Ll0RdGhLS0tLdirtcnA0A5ODKpSuqRhyk98UHaZBDLqfonwU1UPRSKS7KaqTor0U7SdX2TARUIbkRLOv4pevDSsKOgkvkoBbl7vVSIccaLVY7ckJlpJsurP1RGtr66WhX1F9BOg9PT0Ts3iOg04zUA1d9VNqmJIjFAvEIZoN6ANOKVFMyKC+MRTk0HTSR0WHsOgq4tTE8shrb4Ubm9XsVDxdo1SvpkKEOY0RUZpkp/G9vUxSVPeRI0fy8/Mvgf6KrA7CIL+NjSJ6okVa9HCjFq7TpZO60qBLLTCzrvkpLULpYfIiRAdJgBtfA5TeT+k+45LhBjqTEC9MKmOra8Als2sypfRSSocWbpEDp5JjwqEwVZ4Xqa6uunRKc0VWxxPgqRy6qSma1MKIoDsLxhgklon56ZDOAKVf10K0Bqf0U5B2wngcCEAYKJbWOU1lKFVgaP2meZbN25Rb5upQTtI2uKerkAFKU90Oymal8jOoJVv2QSIRDc2IPtz8VwQdv0dJFoKZjAcBH/pAU/2U7NW5AMXC58AcSLgh8BqqId1IY0yjEugAhgGDyQ3Ds6UF/PpNEmYPHMRrSJMEnzFvwDF6godSNd3XcxoOlpGRMZrGXyl05NOtnbKiqCwT0EP1NBXUWJliYU8FzzT0G1GGpF66xgIslI+ETCQBOIixGdxFXsCvUW4nGxNF+wOqQ+QAnNxjwjcsnBKv+wKIWn0nTpxITU2F4UZEf3muw0fffvvtrpZD43KQjcF2ii77YHkDCp7IEHzogkoDn2580BUDq8KS8wqr4zO6ZHYAZwhJ6IQ4LhAEYrMRgpg0Zhw8z4i87nHJdXV1+GrSZjhhLgMdv0TJ/NGHi6aXSNmpFFoxWyfhH4gNQ8LAuoke70APxOT93MtArKvoBnpoGh73M/GxrBQhv8UA4TDfz9ueZbSZ49m1q5fu3LnTTKJg+yHouSEF35DLuPree+95HKGKQoFnqWBI5QXEEY0mCTH4DFtCBsANkAN/YAgy+sT2DOGKQYVziEkfCGhyVaM8LlYjI4abIYkD8M990jmOmT+TKxjT9M7rv1Ief/W66+Zj+gDVwmDmXIbrR48eRfk8tYhJjoPrUL1e1eHQOMDGQ0guDukwHA8AYXvDquYXeCQ6Y5DYYIVhcvST+ADxB8ZugUZdMDnBjx4Y3YBZRIH4wIRCThC63nzjsdbWtp/+9F6TOefRXwZ6d3c3yt6sZMbt1CSZ6ehRYqIkzsUQU8PSDEMMj6ycQAaHwGN8w18DtmFzA73JKILY7AClMHaRjcgQQxVoNbxBUwyb43ZEPhhFURWOoScUCc95Qr/5838hDN988y2D0V+G6263GyPlC1ACpztteiSiN7XJ4YhkPJCEyQG/NF2QeCrxUdBdlw1PNahveq3hpqazEnvzHAMGmrCJwQly0gXgFgTekHoKjxZ4LjNFfPbn+oqlz2KqFZOBJnoY7jJWz83NS05Orj52vKefz0iUQmG+q1cT+Uh6CsPaWFSKxFBEwck4Gy5rKDoGAB8HbG5qyABniOZoNJwFGoJTsDWxwoAldBmm1hi32wpkLKfY7JB9MqalefTj/xp66i/PoMnbbrsN76Tsf+qppwYeMdIfjycaWcDqtVtwZ0kub7Ogz7QXsRKpqYO3WC1AT5hj+qRBdUIb4DPYb1DF+IrPRCIHcJuc5uCoxO4GfFWLyGqvV/cHaY9H4HjUVbA/oSVDs2B/chwzNlP6nw/2ZeeVp6SkwEbs008/PRLmgXMYsrKyssrKXVt2nIjIbHqSEBsFduuBIHwzKEthNI17OJRu0BQggdExBsQ1TaAEq/EZPyJnMEQG14hLAjcsgdwCuEMR2euH1bmkVCE6iRbsOioZc3Lb0AIUuUxiLKfJ3neW7BtXPikuLo5MV6BPQDBaB8g1PJaL+nBt6M1lkWNNNruDczkxOSNjLvrs2Zbm5tZAIAjrkAyRcB0xCPw+98JnQ9chL4QYhgxCWwl8gy7IGv2hcJ9PFy1s8UQhtYji3DJjkxlBYXiFFpBs4qWxqBRE/vZ5jgzPsRdffBGqTWa/iPGHCb7ZE4TS9WvXrV3zZXRUdDgsN7Soh0+EMH/riRJtVgwkQQJGBYNBm90GEAYwIpWG4ckL32Bf4hYch/EhB9yQ5yORcCQiSxElLMu0QCdkMalFjCVGZnhSdBNDGuNnCpVhWEIegWNz09k3P2zIyCoYcFPTbY1xPC9pVCQcXvTuu6tWfgFwGJn58+fn5OZ8/fXXH67bU31Unj1RmDbOGgetpGX8rqe7l2VRSoggpsFQDDE5SIMgFZxX02VVVsh/iiwrWNUAQEsUFR3DWmM1zqqSGQTST/wc6FkoLApygyskGJCmoMYUExPNq3I3Jg8vKIyJHk9CB8xHrlm9+qMPlwJ3UlLS/Q/cP2nypOamZoEXWJbbf7D6aEPgaINw3Qx7YZYqUkGvzw+woihY4bsgP/pqzKWQIaBppPttbR2E2WC4ccQm2z0ZLGNVaEgNZ1SAOGBmViNgSZVi2h4xAvmceRXOoC/7ytfjF5CWXSSOJno8Euibm5oWv78YuPML8h966CFBFL9cs669owP1DBZVGJqpq6s93GA5frp95gR+VoUtPYniMUctyeg8x7LEd4Hf6AL+B2dMh2Y5BsU/pMMRLRCUkB1iXTJJRshxDiLIbfbEIJ/Rf1LmUGu3BN74yD9t2jVYXxiq6+cFf9fOnR3t7TExMY899gu0snXrtmAQlZvRIDgnCLlZ6a/89sF1mys/WfXVhh09103nZ020picLtIaEEJmw0QfcjYhuoE9MjIOrGdMyGghNwBGCGJY2wcH2g9ET6Ry4hAFQFWrV+vB/vhKISSyBm4IIQ6GjKaCHaevqjgLiuLJxdrtjw8avz+PGDcAkSeGM1MT8MaljH/6322+YtWL9tg1bd27d31qS7Zs6TizI4uKikZ9AcZBeGd2Fk2IpT4NjkwcQrRuAiczHoIZGMiHSHzJTYBwko9ONnELr6qI+WCK9uihSPmEWcOfk5JAmB+67+E8wEIDJAT0zM/PgoRq/PzD4OugEeRhfMh5+ifNZaYm/euD2u265Zl/N8U3b97z9+X6b0DephJ9SwqNGjnHrVgIf40D6zFEcrSN9PZenmXYFm8zkWTVGg/SPYEeXUI3VVuuv/iWyZTd/6+33PvbYY6ibTDDciAtRSBWCwQCgw+2GTyoY3qZWlOad7w8smpQQc0PC1PlzprS0da3c+P3yNd8s/7qlJCcws5yfUGRJTRCjo3SLSGb5WEgxggCxqZlIQrYH8jMiQySjHrC9HKa/Wk3/50uhvqAHUf+JJ54YLOIjWB1Grdqzp621Df0OhYjnXTwklKrIdquYkRo/5DwxFE2nJMU9du8tdy+Ye6D2RGVVzfdHjq/dcTrW1VOcw5XmiTkZbLxHwDwRAhBrGJsMiZH6E/EzcmNMlsiy1niK+ni5/MEKpdsrPPvsr+++++4hwWcodLB81cqVf3jlVUy84NYI1HeQ0ptYFVWLxuKc3TocunkGHcANs6eVXT21PKwLjWdaKndVfbDsi8VrWhM8alEOPz6fLcy2pCYLTgdns2hII8gUA1RGo0JIrbuoyr2Bj9fJdQ3s9IqJDU3tWPGDswx53EXfDdxfvPTCi36fD1oK0LIkkfxTRZhEsoZgYUi1pjlsJPEyI8BoHcB5ECnK5iwvKSgvLUDW8cW6zUW5Gccbzny0qVFZ77Nb+j1OxWnVEADgunBqZPBeP9PezYZlm6qxs6cVPn7fLf/3pUUrP/s8Py9v9pw5MMr5x12ADhwbv/rqz6//qd/nm2UVfZpeLStY1e/s7MLSM7phtWF5LskdFY1AafrcJUCbl1CDy8E+ZAH4OrU898sNW/sDoZeffBAkbO3oaW7rhGN8tWXPidPNN8+b7nTYeJY7Un+Gt/rdLmeft7/pbEdbZy8iAyq1P732x/iExOKS4qHQgayysvLpp54O+v3TLeJTnqg3+nz7ItKO73fgkhnU4UJnm5uKikujoqM7OgLhiEzKsEse3b2+P7zzWVpyXGFuBgoUfzBUWXXkvjuuHZOemJwYO6E0D4OZmZ78+z8tKc7P/vHNs+H/v33l/UN1DdTZThQZ182Zkp2ZjCgGAqDU/NXjjy9a/H5WVpb5zIFnY9rgtVdfBe6rrOLTnqhWRa2OSBibtOSEebOnlBXnCwJ36Ej98lWbag/XlJaVhSJKQ1NrQXbaJZFT8Irmlo6tOw8AE+60WoRrZ09KiL2wLwDjP72iaGpF8aert+RkpU4al/fzO6/PG5MK3MUFWaVjx7R19MBtp1qEs4p6+vTpP/7htYW/fy42NhatkbUkJBjPP/fc3t17UljmtzFRaRy3wu//LhTxeNwvPfP49XOvQqqXmpw4bVIZIsnuqhoizzxvEZjxxbmXhg4hmjqhcFxhdmFe5lUTi++4cdZN86babRdtsBEFvigva9N3+6pr62dMLk1PxtJS9rii7JSEGMRgry+wZvOuGbQ+1SLuDkuNZ84gQcJOCZJfoNT427vvLvvkUzelL4yJLhEF8HiR199B6b959J7JFaV/fOvDl/+8eO3GbVaRqxg3dvuuAz29XrJhRNX+5eqKwX4zvBu4CgZnpSeWFWaXFGSlJMbCnMNvc7vssR73hi17Dh87PXFcvsNOCjzztq5e35pNlZNperpVtNDUwVDkUE1NXn4eaMPs2b37wyUfCpp2n9NRYRGBu1dVkOMlJ8ZfO3dGV1dPSW4q7ARxeWPR8rqjx3OzUsOhkKbKWWkJxsTFFR0YKByj3YpLoM1dC+bsO3Ts3Y/W+YMXtjKFwxGUUXYjg55ns0y3COFg8O033wJ5WJHjaw8fLhf5R9wuAAzrWqcirw9E0nMy/vXmeVEOK4rKvQeOvv67R5ByHTl++t47/uVH08vuvX3e3KsroJajofmh55HiFBeM6fX2r9qwAySZVF4AYUUjDU1tm7btvU7gPUhDaTqRY6oiclNnlwtLWpU7dtho6j6Xw80ySPZ8KubdKBuDia4woj1m/ILBcEJctCfadfv8GXEx7tSk2MnlYyEa/yBsxkh/B/cQCfKjP715+qTilV9t/2zdd+Yo9Xr9gqa7zy2jpnPczXarriorPvucQaa1wGGbIIookLwI8XBBmk5i2bOtnd0o0FXF7bRFuR2IR1Eu+x03zLQIFz3vh1r3/P2saOMsLjPGnT/psFsmlRVAi0maSUpivaOr16HrjnN2QkScYxOLBb61pYVJ59kfO3CJDuga2GK2kifwfX2+bdt3g81J8R54GElSaTo+NtrMFv/XiM0fdnT3YcuAKoUGewuA+vzBxqY2m9UyZfxY3IlI0tzalYg6cFAQhQvfZLeAKcyPrNY4lsFKTwAZ87mjgOdgkKWfb2jv7AUL584YyG//QcTmzwFo0cdfHT9er8khUnUbRuns9q7aWPnbVxYfOnLqgZ9cl5IYg/OYzj/d3JbDnyvwzj0+j+cLUIXNtlkwNphCJWnKuSOVY3MEbl9jy4q1W37+42st4sAus38SdK2to3vjlt1pSdfD0ds7+76trIZ3dnb3QWf+48mfZaQkkMlMTevrD7Se7cAk7xBtcjL0NIvA5fC8pGvBQSYHPojRXJtYE5GXf7kVGSL0O8ptx5zazuq6tZt2/vqRn6TEuS8hdsN7aEwLDJw2hnHC/3ywqrKqFrYLhSOIspPLC66ZMb68KAcoT51p2XPgWEVp/snTLWp/IMk9wp7C8RaeQ7kIIR/g+KBnlgv8T5y2T/oDb/199abt+8akJ4VC4X019ZnpKdEe7MZAPXaBYMOxmmfMyEK8rbvvZGNLYV4GnB6B8NpZFShNoNmAHu12eqKdUU475j9A9LWbd22pPABnRdXyl8Wr4indNdIujSiG4WR450i7PNGlG+0WPHVVIFxbd6qm7hTQjMlMfe7JR7FNQAl6MdM1GuIB3NA/iwOflbA/Jtr5zpKqV99elpYcPyYjMTHWgygrijySHFnpQ5T9eNUWDELt8UZkaYW56chkOrp7q2uOXy/w4kgyjCHkLrE9FUo0324tEPl9Yak6Ip+Qlcy0pPg4jzErdUXBiGa4SNBXtf9Iekr8L+675cvNOzdu3Vt18KgkY+MAWRlBK3a79b+f+8XKDduR4lot4ryZEx66+waMw4r125WIlGdzDl2IOWcwDlXQJYzH0xTUJo/nsnjpld7+nt4+rBTYrCIpagYd4CtceWg+gyFDUFPlY6ea136z+5lf3okYvODa6TVHG3fsrT168kxXdx8mAwUs4lF6cX4WiH7trInjxo6xWkUkjNv31ESxTO7oeTVdO2XCcKIP70yTov6my+v0uBe9/l+52ZnQNTmEHQEDBxIEuNT1cyYj1xv8W4bldU0JhiJgrc0iLLhuRmJ8tBnhYXhww5hyoqABUEhEUzMMoYVla7a+8d7K2zA/SjKRkQ/2kdTkka9cfBaB4LCkNIXCuWPSigvzkHepUOVzB7LiN977IjkhJjkhdjCVyLIBWWBhEdRWbvh+1cbvm1q60BPsbcDUNCn+yd06kg6kHJh9MNs729b16lvLPIHQ/S479oCMBm+EFHTEW8GGBXbrsT7fV99ULrhhLplUZLFwbm5goKJcjjsXzFny+abM1MT4QZXE+aZcTtvDd9/4uz998PGqzUtXYoGOQ/aLlzmZC84/8bNb58+ZBBcKhiNvvP9FW0vHI1EO6PeIYMyT7KNXZnXcjaCLUuVAZ8/4srEpyQloVVPMXQCkqbSUuLoTTfsPHS8rykVJNfyREJkJJfke7Ad32Jw2C1QyJtqVkZowvjTn1utmIBuF3iOPQqmKiimBom532Mxcd3hT5pkRnjHarZDLOTbL/r7+lV9+M644X+QtjIzEfcDwYPA9t13z7Gt/f/Pvq5/42QJEmSHtgBsoSTN+fC1mqFHvQRxwBvTGD3GYvIB3Ll2xORSWZI4N45bRxMVo+gdYHXd7Nb0yLLX19U8YNzYxIY7MaygXJphQ3RTmZ67aUIl0D3X0iAURPBHWNdmCdzIbTObjyTLa6bMdL77x0ZH605hCCmpam6ohVyGJ4Si2vFLocLejkrLMH4TUgI5Im2ZdNRESCe0zfdFs3+N2oChetXFH9eETuVkpbucIMXw4EgzCtl2H/vy3lQePnBTcsa7MsRFvd6skHZUVFMqxo1Q0l4eOke3VtGX9oXd9AXAde06h16cam9PTksdkpTHYcz2I8YAV53HnZ6d/uvrbTd9VIdonxnuIWUeyHVoG6Mbm9tcXrVj00TqwRXDHJU6c407LZa32YFdLtywdluQxPA83G277y0DvUbWtocji/sCesKQLFntiRlRuGStYQ31dO/ccBGFAG6fDbuwaHAht+IusDvMcmHD7fO222mONsqxioQYCaqo+VBHjBgXcXV33yeotKEYPHjmBPBHRlXe4sWwguqMtrhhWsIS62/yKfFCSkd+kkFXCi/DTNVMmDB9BnIGToMcf+4OnsAKEvWqJGZ68ctEdw3CcEgm3V28LnD0JskILK8oLJ5XmZqbFgy2I5PWNLW99sBrIEHRQOmDdCIIN9UT2ghFAB/r9wdb2bviDtx/zUBc0yoSBqs9TNCV6DJnl6m9t6Kz+To0Ewfh/s9tudFw0CzKCwsB6zYq6LhD+FouZNMO7YuJzy5yp2RBys3VOtMYWTZZ8PVJ/r6IzEm1fsno7Zicx245Xa2u74gukcawfm3Q1bP6igK+ts6ezpw/5M3algDzQHxS7mCTyB0LVh+tFVZsoCrMw70BR7/n8TfUHGLvLEZPkSh4D4e+q3eXv7/3EHwTpp1iF85YfCj2k69+HIsB9BrQWLOg9nEawOc/nWyC6HPJHQkFbekGwuT4YCmH38IMPP2SsJ0YOHTz48sKF/+603+KwBTT9jKIcwOxfKIzUDUqSNybt6injUpJi42Pwj2S4r7dVrVz3XRHL3ON2jreIIk3WD04rCvgZ7unAkqotKsaRlMnbnRjkYE/7F4EQ0vTz8fUCdGgI5us+6g/uCksI0GJUbPz42daouAtJIqyISRBvtxQiixw0qJ9ZKHWdffUPfywuGnvnXXeWlZdhndWiaVOsImpYN6Mnc+wUi/hTl2NTMLTY27+nuu7wsYas9OTk+Nj2rp7j9Y03WiwPYfaIYXqxgEzWr6kkhGlMRURCWAr3drbY3bG26BhPfkXb3q+DyBwGkXsAep+mrfKHwBBM8DK84ErLA7MFu4vciQkNRZaC/nDAB5YPlkKKYYX4dNYVU9fS/szvno+NcuJOZJWoeTsViSzBkLhDAss1VrFMENYFglURqfvEmcKz7chjMEsxxSIENA0UxkZU082hR0g6sLRqPjro7VKhYBrZMZTBsoNTmgHoe8Py+iD+eYvO2V2xxVMdiRnmJIkqId/ulUJ+hJ7RKjrWYrcmIZdM7u3tiPR2I0MAiAt3GyWJpKselrvKaoHOpnL6I1HOBklq6e1f7g/cBYXCNo1z5sQUEML2QIg2lp/Cfq/c14Eae7IdFy8cBDqI36uS0AIQiRXX2GIT8XA5HIoEvGG/73yoH/SrYR8hbIJFTEiHHuunawdWDQfdhUe0GbxvlBXU9z2wKtnfoCNelgo8JiOQOZq3k72r2NxxThKMk7Qa8MUwVJl48ZQTruBH8YZqYiKds9hwK6b0Az0dUviihbtheEc4wVodCsuHdQpZ9nlDmo9wM/R8u6VU5F7o8b3rDfRqKpQgTZHkwf4AAAGqSURBVFGOSBGUFJhpAWL0sB8ehc/ioNUeEDboGyvwQ4rUAcKkcyx2RfWEA8GOZsHhJrXXKBseRsA76BTNCbJob1MVz8VlFG5B0IJWVoakHobZyfHTpl19T0rymtVrKju7Yzk2hWUTOCaKZppVNUwW62HBgUOTJTocLLIPzecGoMezLNB3R+RAR5MrPQ9ER1CjfrDRiVeqLs8hX0uRse9scD87VG2FP7RN0e574IEZV02PjYsTsat69ux169Z9+823p3hLIKcQex46Tx1XfX06dtpYBvIfxd/n0NWs0ZbBkBmPE4T9ETnc0y6HAqIzih08ZJc29cVXaburqrt5gbnKblxCDyDw7/tCTQ631u/DHgks1jqczp07drjc7gcfeujUyVNUQmb+j26A+nnbzu5a9p6vtcGaXoBNVOi/4u3KZJlEbmgGPOCyIFmFhUcH1HAg0H4a1uOI9l9UaF4hfkawnmHFWmyH0rF7Vm+W1U/7gwt9kWDZlNmPPV0wc962rdtqag5DOrZs3Vq1twrmR4CFsUBR7IrwpGakFI0H8cyna3IEETDfyH6HAPj/mpPhdDsA/c8AAAAASUVORK5CYII=;" vertex="1" parent="cU3eEYtOXW0r3D3nBDdk-22">
          <mxGeometry x="10" y="243.58000000000004" width="32" height="42.84" as="geometry" />
        </mxCell>
        <mxCell id="cU3eEYtOXW0r3D3nBDdk-90" value="" style="edgeStyle=orthogonalEdgeStyle;rounded=0;orthogonalLoop=1;jettySize=auto;html=1;" edge="1" parent="cU3eEYtOXW0r3D3nBDdk-22" source="cU3eEYtOXW0r3D3nBDdk-14" target="cU3eEYtOXW0r3D3nBDdk-89">
          <mxGeometry relative="1" as="geometry">
            <mxPoint x="110" y="400" as="targetPoint" />
            <mxPoint x="240" y="335" as="sourcePoint" />
            <Array as="points" />
          </mxGeometry>
        </mxCell>
        <mxCell id="cU3eEYtOXW0r3D3nBDdk-91" value="" style="shape=image;verticalLabelPosition=bottom;labelBackgroundColor=default;verticalAlign=top;aspect=fixed;imageAspect=0;image=data:image/png,iVBORw0KGgoAAAANSUhEUgAAAD4AAABTCAIAAABIySOXAAAAA3NCSVQICAjb4U/gAAAgAElEQVRoQ617CXhV1bn2nveZT3IyzwkZyUQCYRaEIlwVJ9TrbR2qt1qnqu3T2//+ar0W6/Rrbe2116FSxSIOoCAgIAgKiIQpECCEAAESSMg8nZMz7vF/194BQgbA226PJ+fsvc/a7/rW+73f9621oPv7+xVFoUY5LMYxysWhp8PGMfgsx3Gqquq6fv7k8uXLn3rqSZy8/vr5zz//fHZ29tBWRv/e19c3+CKDVvCA0e//h67AKCzL0jRtttLW1vbXv75jnpSkiKZp/0jrHExior+E7X/QAyKRiNfrxWDig6bpFosYFRXldDp5nt+9e3dxccn8+TekpaWlp6fb7fYf1PKQm+ne3l6cgmFgnuHor5Aw+CFGc//+/Rs3bty3b8+Z040+rzcUDoEsPC84XdHp6WmTJk2aNWtWcXExeiIIgokDn68c/RDCDEAfDf1loWPQ6+vrV6xYsX79+sOHa0NB35QSbsZ4MSXJqlNcIMT0+tTGs1LdycCpZkWnrSD37Nmzb7rppqKiIozDPwc60DPGMdj2l4YeCoWWLl368ssvWZn2O6+lu7x05QGp4ayalsg9cJvttrluh9OlC2kaEx8JBw7WNH60qv6LzT5/iHG5XPfff/+jjz6amZn5T7C62cQQ9KNBh4c0Njb+v5df3rLpk5tm0vff6khP5sG6iKTXn5ZWbA6u3x5OiWMf/Ynr6kkO0eqhrfmMmKmq0pHa2g+W1aza1NrRS0+fPmPhwt9NnDjxCkVsCGHYJ598cnC/TSED7033h/gM1x/cs3fvXpits+mbF35hvXO+IzaaZ1gLw3sEW1JScuL0Cdw1U5mWTunNj31dvfK4fNnKtOlqH2vNSsqaNnN68fRyS0d7y9Ydxzd+vTkSkcrLy0VRvKz5hyjvUOj4/WD0I0I/duzYww89GPbuf/sZd0WRVbC4GMdY1jWFsRfTtmzwmbNkxLiFmRNVj0t6Y6m/vUu+aiIrMD49fJriYkVXQdqYaXOnxwX6GrbvPbtl6/aGhlNTp051OBznZXTEbgyFvnDhQhPf4HdY3dRj2B4H2H/+OHPmzC9/+Tgd3PvXZ925WdGcs4h1T2PtBbSQyIgxjBDN8HZacDFCHMvpxbnB0jxp2bpw7XF5crlgFSO6dIaibYwl2erKnz4pO9beUnus82T9kQMHawsLifgMftaQz0Nwsi+88MJw6OYZ8B6SL0nS+Sag1s8888z+XV++9mtXcZ6D98xkHSWMmERbEhk+iqYNyaM1mtaI3HI2hpczkvty0tSX3wlJsja1QmAZSY8002ws+iZYM8pKSl388W27OympYc/+E7Nm/cjU6BE7gGG5yL6w+oijg5OAbpLH5D0+Q7bffuu/f3knN3+WR4y9mrHm0kIcIybSDJiKaA/EivmiGZXEUBqhVE1LDeSm63/7NJyZSudm8ZQe0SOttJBM806Wjx1bkKQEjtQe9wW9jbXHOqZOmzaa1w45z14COtCbvTe9FlR7/vnfZ8acfOqBGEfcOEISMY4RYinT2IBOcMsUreKdZpAX4Z2mOI2mAjkZwaBf+XBleN5M0WGnKS1AKSGGT0bXOEt8eZHnVH2NpkknT9ZzlsTS0lJYbbhBh0Af4Y4hv4HJzUxh165dtQd3PHKH3RXlYa1jKNZJ81Gw64C9idUBWsU7TE7QswrFUjQTS3MprMV59x1WlqNf/1tQQepC65Rcr4WOanK3rnkdsRMe/vfZff3s/GnKys8Wt7e3D8c9/MzloeM3oIrf73/nnXdKc5XCbJG15dJcNCN4kD0QklAwMBAjZ5QJbloyzhgjwCg0p9OcleZj4hIt/+dRy9ffhw7USjSj6XpQD1brUrse6dTlrsyciXfdkr69Womznli6dAmMNRzrkDNXBB2/QbSvrNyBCO92uxgxBTSlWZHSVUpXKB2IpfNUIR8IbnIGRKeoEMVZKcaOIbp6pjD3Kv7Lb8LIg2lGp5QmPXySUroAneOZW28YH+1iUuK0lZ8tgY79c6DD6lVVVZoamlwicJY4irVRjIXghsnJuwHdgIt4atAmQqCbQ0ErNF5sNMWInGC5/x6xrl5BYgPO6LSkhY/rcocuE8M7o5J+fkcylMlt6dywYYOpDZfowBVZXZbl2tra5Fg6M4WnhXjoiUEVgFYoBqyAgYmw0KQD4DHeTdySMSCG4+I5+BXrzMxg0lLo7bvCFKxO6YzWpUututxOKZ2UHhpXmu20s7Mr2O++2waKXgI3Ll0RdGhLS0tLdirtcnA0A5ODKpSuqRhyk98UHaZBDLqfonwU1UPRSKS7KaqTor0U7SdX2TARUIbkRLOv4pevDSsKOgkvkoBbl7vVSIccaLVY7ckJlpJsurP1RGtr66WhX1F9BOg9PT0Ts3iOg04zUA1d9VNqmJIjFAvEIZoN6ANOKVFMyKC+MRTk0HTSR0WHsOgq4tTE8shrb4Ubm9XsVDxdo1SvpkKEOY0RUZpkp/G9vUxSVPeRI0fy8/Mvgf6KrA7CIL+NjSJ6okVa9HCjFq7TpZO60qBLLTCzrvkpLULpYfIiRAdJgBtfA5TeT+k+45LhBjqTEC9MKmOra8Als2sypfRSSocWbpEDp5JjwqEwVZ4Xqa6uunRKc0VWxxPgqRy6qSma1MKIoDsLxhgklon56ZDOAKVf10K0Bqf0U5B2wngcCEAYKJbWOU1lKFVgaP2meZbN25Rb5upQTtI2uKerkAFKU90Oymal8jOoJVv2QSIRDc2IPtz8VwQdv0dJFoKZjAcBH/pAU/2U7NW5AMXC58AcSLgh8BqqId1IY0yjEugAhgGDyQ3Ds6UF/PpNEmYPHMRrSJMEnzFvwDF6godSNd3XcxoOlpGRMZrGXyl05NOtnbKiqCwT0EP1NBXUWJliYU8FzzT0G1GGpF66xgIslI+ETCQBOIixGdxFXsCvUW4nGxNF+wOqQ+QAnNxjwjcsnBKv+wKIWn0nTpxITU2F4UZEf3muw0fffvvtrpZD43KQjcF2ii77YHkDCp7IEHzogkoDn2580BUDq8KS8wqr4zO6ZHYAZwhJ6IQ4LhAEYrMRgpg0Zhw8z4i87nHJdXV1+GrSZjhhLgMdv0TJ/NGHi6aXSNmpFFoxWyfhH4gNQ8LAuoke70APxOT93MtArKvoBnpoGh73M/GxrBQhv8UA4TDfz9ueZbSZ49m1q5fu3LnTTKJg+yHouSEF35DLuPree+95HKGKQoFnqWBI5QXEEY0mCTH4DFtCBsANkAN/YAgy+sT2DOGKQYVziEkfCGhyVaM8LlYjI4abIYkD8M990jmOmT+TKxjT9M7rv1Ief/W66+Zj+gDVwmDmXIbrR48eRfk8tYhJjoPrUL1e1eHQOMDGQ0guDukwHA8AYXvDquYXeCQ6Y5DYYIVhcvST+ADxB8ZugUZdMDnBjx4Y3YBZRIH4wIRCThC63nzjsdbWtp/+9F6TOefRXwZ6d3c3yt6sZMbt1CSZ6ehRYqIkzsUQU8PSDEMMj6ycQAaHwGN8w18DtmFzA73JKILY7AClMHaRjcgQQxVoNbxBUwyb43ZEPhhFURWOoScUCc95Qr/5838hDN988y2D0V+G6263GyPlC1ACpztteiSiN7XJ4YhkPJCEyQG/NF2QeCrxUdBdlw1PNahveq3hpqazEnvzHAMGmrCJwQly0gXgFgTekHoKjxZ4LjNFfPbn+oqlz2KqFZOBJnoY7jJWz83NS05Orj52vKefz0iUQmG+q1cT+Uh6CsPaWFSKxFBEwck4Gy5rKDoGAB8HbG5qyABniOZoNJwFGoJTsDWxwoAldBmm1hi32wpkLKfY7JB9MqalefTj/xp66i/PoMnbbrsN76Tsf+qppwYeMdIfjycaWcDqtVtwZ0kub7Ogz7QXsRKpqYO3WC1AT5hj+qRBdUIb4DPYb1DF+IrPRCIHcJuc5uCoxO4GfFWLyGqvV/cHaY9H4HjUVbA/oSVDs2B/chwzNlP6nw/2ZeeVp6SkwEbs008/PRLmgXMYsrKyssrKXVt2nIjIbHqSEBsFduuBIHwzKEthNI17OJRu0BQggdExBsQ1TaAEq/EZPyJnMEQG14hLAjcsgdwCuEMR2euH1bmkVCE6iRbsOioZc3Lb0AIUuUxiLKfJ3neW7BtXPikuLo5MV6BPQDBaB8g1PJaL+nBt6M1lkWNNNruDczkxOSNjLvrs2Zbm5tZAIAjrkAyRcB0xCPw+98JnQ9chL4QYhgxCWwl8gy7IGv2hcJ9PFy1s8UQhtYji3DJjkxlBYXiFFpBs4qWxqBRE/vZ5jgzPsRdffBGqTWa/iPGHCb7ZE4TS9WvXrV3zZXRUdDgsN7Soh0+EMH/riRJtVgwkQQJGBYNBm90GEAYwIpWG4ckL32Bf4hYch/EhB9yQ5yORcCQiSxElLMu0QCdkMalFjCVGZnhSdBNDGuNnCpVhWEIegWNz09k3P2zIyCoYcFPTbY1xPC9pVCQcXvTuu6tWfgFwGJn58+fn5OZ8/fXXH67bU31Unj1RmDbOGgetpGX8rqe7l2VRSoggpsFQDDE5SIMgFZxX02VVVsh/iiwrWNUAQEsUFR3DWmM1zqqSGQTST/wc6FkoLApygyskGJCmoMYUExPNq3I3Jg8vKIyJHk9CB8xHrlm9+qMPlwJ3UlLS/Q/cP2nypOamZoEXWJbbf7D6aEPgaINw3Qx7YZYqUkGvzw+woihY4bsgP/pqzKWQIaBppPttbR2E2WC4ccQm2z0ZLGNVaEgNZ1SAOGBmViNgSZVi2h4xAvmceRXOoC/7ytfjF5CWXSSOJno8Euibm5oWv78YuPML8h966CFBFL9cs669owP1DBZVGJqpq6s93GA5frp95gR+VoUtPYniMUctyeg8x7LEd4Hf6AL+B2dMh2Y5BsU/pMMRLRCUkB1iXTJJRshxDiLIbfbEIJ/Rf1LmUGu3BN74yD9t2jVYXxiq6+cFf9fOnR3t7TExMY899gu0snXrtmAQlZvRIDgnCLlZ6a/89sF1mys/WfXVhh09103nZ020picLtIaEEJmw0QfcjYhuoE9MjIOrGdMyGghNwBGCGJY2wcH2g9ET6Ry4hAFQFWrV+vB/vhKISSyBm4IIQ6GjKaCHaevqjgLiuLJxdrtjw8avz+PGDcAkSeGM1MT8MaljH/6322+YtWL9tg1bd27d31qS7Zs6TizI4uKikZ9AcZBeGd2Fk2IpT4NjkwcQrRuAiczHoIZGMiHSHzJTYBwko9ONnELr6qI+WCK9uihSPmEWcOfk5JAmB+67+E8wEIDJAT0zM/PgoRq/PzD4OugEeRhfMh5+ifNZaYm/euD2u265Zl/N8U3b97z9+X6b0DephJ9SwqNGjnHrVgIf40D6zFEcrSN9PZenmXYFm8zkWTVGg/SPYEeXUI3VVuuv/iWyZTd/6+33PvbYY6ibTDDciAtRSBWCwQCgw+2GTyoY3qZWlOad7w8smpQQc0PC1PlzprS0da3c+P3yNd8s/7qlJCcws5yfUGRJTRCjo3SLSGb5WEgxggCxqZlIQrYH8jMiQySjHrC9HKa/Wk3/50uhvqAHUf+JJ54YLOIjWB1Grdqzp621Df0OhYjnXTwklKrIdquYkRo/5DwxFE2nJMU9du8tdy+Ye6D2RGVVzfdHjq/dcTrW1VOcw5XmiTkZbLxHwDwRAhBrGJsMiZH6E/EzcmNMlsiy1niK+ni5/MEKpdsrPPvsr+++++4hwWcodLB81cqVf3jlVUy84NYI1HeQ0ptYFVWLxuKc3TocunkGHcANs6eVXT21PKwLjWdaKndVfbDsi8VrWhM8alEOPz6fLcy2pCYLTgdns2hII8gUA1RGo0JIrbuoyr2Bj9fJdQ3s9IqJDU3tWPGDswx53EXfDdxfvPTCi36fD1oK0LIkkfxTRZhEsoZgYUi1pjlsJPEyI8BoHcB5ECnK5iwvKSgvLUDW8cW6zUW5Gccbzny0qVFZ77Nb+j1OxWnVEADgunBqZPBeP9PezYZlm6qxs6cVPn7fLf/3pUUrP/s8Py9v9pw5MMr5x12ADhwbv/rqz6//qd/nm2UVfZpeLStY1e/s7MLSM7phtWF5LskdFY1AafrcJUCbl1CDy8E+ZAH4OrU898sNW/sDoZeffBAkbO3oaW7rhGN8tWXPidPNN8+b7nTYeJY7Un+Gt/rdLmeft7/pbEdbZy8iAyq1P732x/iExOKS4qHQgayysvLpp54O+v3TLeJTnqg3+nz7ItKO73fgkhnU4UJnm5uKikujoqM7OgLhiEzKsEse3b2+P7zzWVpyXGFuBgoUfzBUWXXkvjuuHZOemJwYO6E0D4OZmZ78+z8tKc7P/vHNs+H/v33l/UN1DdTZThQZ182Zkp2ZjCgGAqDU/NXjjy9a/H5WVpb5zIFnY9rgtVdfBe6rrOLTnqhWRa2OSBibtOSEebOnlBXnCwJ36Ej98lWbag/XlJaVhSJKQ1NrQXbaJZFT8Irmlo6tOw8AE+60WoRrZ09KiL2wLwDjP72iaGpF8aert+RkpU4al/fzO6/PG5MK3MUFWaVjx7R19MBtp1qEs4p6+vTpP/7htYW/fy42NhatkbUkJBjPP/fc3t17UljmtzFRaRy3wu//LhTxeNwvPfP49XOvQqqXmpw4bVIZIsnuqhoizzxvEZjxxbmXhg4hmjqhcFxhdmFe5lUTi++4cdZN86babRdtsBEFvigva9N3+6pr62dMLk1PxtJS9rii7JSEGMRgry+wZvOuGbQ+1SLuDkuNZ84gQcJOCZJfoNT427vvLvvkUzelL4yJLhEF8HiR199B6b959J7JFaV/fOvDl/+8eO3GbVaRqxg3dvuuAz29XrJhRNX+5eqKwX4zvBu4CgZnpSeWFWaXFGSlJMbCnMNvc7vssR73hi17Dh87PXFcvsNOCjzztq5e35pNlZNperpVtNDUwVDkUE1NXn4eaMPs2b37wyUfCpp2n9NRYRGBu1dVkOMlJ8ZfO3dGV1dPSW4q7ARxeWPR8rqjx3OzUsOhkKbKWWkJxsTFFR0YKByj3YpLoM1dC+bsO3Ts3Y/W+YMXtjKFwxGUUXYjg55ns0y3COFg8O033wJ5WJHjaw8fLhf5R9wuAAzrWqcirw9E0nMy/vXmeVEOK4rKvQeOvv67R5ByHTl++t47/uVH08vuvX3e3KsroJajofmh55HiFBeM6fX2r9qwAySZVF4AYUUjDU1tm7btvU7gPUhDaTqRY6oiclNnlwtLWpU7dtho6j6Xw80ySPZ8KubdKBuDia4woj1m/ILBcEJctCfadfv8GXEx7tSk2MnlYyEa/yBsxkh/B/cQCfKjP715+qTilV9t/2zdd+Yo9Xr9gqa7zy2jpnPczXarriorPvucQaa1wGGbIIookLwI8XBBmk5i2bOtnd0o0FXF7bRFuR2IR1Eu+x03zLQIFz3vh1r3/P2saOMsLjPGnT/psFsmlRVAi0maSUpivaOr16HrjnN2QkScYxOLBb61pYVJ59kfO3CJDuga2GK2kifwfX2+bdt3g81J8R54GElSaTo+NtrMFv/XiM0fdnT3YcuAKoUGewuA+vzBxqY2m9UyZfxY3IlI0tzalYg6cFAQhQvfZLeAKcyPrNY4lsFKTwAZ87mjgOdgkKWfb2jv7AUL584YyG//QcTmzwFo0cdfHT9er8khUnUbRuns9q7aWPnbVxYfOnLqgZ9cl5IYg/OYzj/d3JbDnyvwzj0+j+cLUIXNtlkwNphCJWnKuSOVY3MEbl9jy4q1W37+42st4sAus38SdK2to3vjlt1pSdfD0ds7+76trIZ3dnb3QWf+48mfZaQkkMlMTevrD7Se7cAk7xBtcjL0NIvA5fC8pGvBQSYHPojRXJtYE5GXf7kVGSL0O8ptx5zazuq6tZt2/vqRn6TEuS8hdsN7aEwLDJw2hnHC/3ywqrKqFrYLhSOIspPLC66ZMb68KAcoT51p2XPgWEVp/snTLWp/IMk9wp7C8RaeQ7kIIR/g+KBnlgv8T5y2T/oDb/199abt+8akJ4VC4X019ZnpKdEe7MZAPXaBYMOxmmfMyEK8rbvvZGNLYV4GnB6B8NpZFShNoNmAHu12eqKdUU475j9A9LWbd22pPABnRdXyl8Wr4indNdIujSiG4WR450i7PNGlG+0WPHVVIFxbd6qm7hTQjMlMfe7JR7FNQAl6MdM1GuIB3NA/iwOflbA/Jtr5zpKqV99elpYcPyYjMTHWgygrijySHFnpQ5T9eNUWDELt8UZkaYW56chkOrp7q2uOXy/w4kgyjCHkLrE9FUo0324tEPl9Yak6Ip+Qlcy0pPg4jzErdUXBiGa4SNBXtf9Iekr8L+675cvNOzdu3Vt18KgkY+MAWRlBK3a79b+f+8XKDduR4lot4ryZEx66+waMw4r125WIlGdzDl2IOWcwDlXQJYzH0xTUJo/nsnjpld7+nt4+rBTYrCIpagYd4CtceWg+gyFDUFPlY6ea136z+5lf3okYvODa6TVHG3fsrT168kxXdx8mAwUs4lF6cX4WiH7trInjxo6xWkUkjNv31ESxTO7oeTVdO2XCcKIP70yTov6my+v0uBe9/l+52ZnQNTmEHQEDBxIEuNT1cyYj1xv8W4bldU0JhiJgrc0iLLhuRmJ8tBnhYXhww5hyoqABUEhEUzMMoYVla7a+8d7K2zA/SjKRkQ/2kdTkka9cfBaB4LCkNIXCuWPSigvzkHepUOVzB7LiN977IjkhJjkhdjCVyLIBWWBhEdRWbvh+1cbvm1q60BPsbcDUNCn+yd06kg6kHJh9MNs729b16lvLPIHQ/S479oCMBm+EFHTEW8GGBXbrsT7fV99ULrhhLplUZLFwbm5goKJcjjsXzFny+abM1MT4QZXE+aZcTtvDd9/4uz998PGqzUtXYoGOQ/aLlzmZC84/8bNb58+ZBBcKhiNvvP9FW0vHI1EO6PeIYMyT7KNXZnXcjaCLUuVAZ8/4srEpyQloVVPMXQCkqbSUuLoTTfsPHS8rykVJNfyREJkJJfke7Ad32Jw2C1QyJtqVkZowvjTn1utmIBuF3iOPQqmKiimBom532Mxcd3hT5pkRnjHarZDLOTbL/r7+lV9+M644X+QtjIzEfcDwYPA9t13z7Gt/f/Pvq5/42QJEmSHtgBsoSTN+fC1mqFHvQRxwBvTGD3GYvIB3Ll2xORSWZI4N45bRxMVo+gdYHXd7Nb0yLLX19U8YNzYxIY7MaygXJphQ3RTmZ67aUIl0D3X0iAURPBHWNdmCdzIbTObjyTLa6bMdL77x0ZH605hCCmpam6ohVyGJ4Si2vFLocLejkrLMH4TUgI5Im2ZdNRESCe0zfdFs3+N2oChetXFH9eETuVkpbucIMXw4EgzCtl2H/vy3lQePnBTcsa7MsRFvd6skHZUVFMqxo1Q0l4eOke3VtGX9oXd9AXAde06h16cam9PTksdkpTHYcz2I8YAV53HnZ6d/uvrbTd9VIdonxnuIWUeyHVoG6Mbm9tcXrVj00TqwRXDHJU6c407LZa32YFdLtywdluQxPA83G277y0DvUbWtocji/sCesKQLFntiRlRuGStYQ31dO/ccBGFAG6fDbuwaHAht+IusDvMcmHD7fO222mONsqxioQYCaqo+VBHjBgXcXV33yeotKEYPHjmBPBHRlXe4sWwguqMtrhhWsIS62/yKfFCSkd+kkFXCi/DTNVMmDB9BnIGToMcf+4OnsAKEvWqJGZ68ctEdw3CcEgm3V28LnD0JskILK8oLJ5XmZqbFgy2I5PWNLW99sBrIEHRQOmDdCIIN9UT2ghFAB/r9wdb2bviDtx/zUBc0yoSBqs9TNCV6DJnl6m9t6Kz+To0Ewfh/s9tudFw0CzKCwsB6zYq6LhD+FouZNMO7YuJzy5yp2RBys3VOtMYWTZZ8PVJ/r6IzEm1fsno7Zicx245Xa2u74gukcawfm3Q1bP6igK+ts6ezpw/5M3algDzQHxS7mCTyB0LVh+tFVZsoCrMw70BR7/n8TfUHGLvLEZPkSh4D4e+q3eXv7/3EHwTpp1iF85YfCj2k69+HIsB9BrQWLOg9nEawOc/nWyC6HPJHQkFbekGwuT4YCmH38IMPP2SsJ0YOHTz48sKF/+603+KwBTT9jKIcwOxfKIzUDUqSNybt6injUpJi42Pwj2S4r7dVrVz3XRHL3ON2jreIIk3WD04rCvgZ7unAkqotKsaRlMnbnRjkYE/7F4EQ0vTz8fUCdGgI5us+6g/uCksI0GJUbPz42daouAtJIqyISRBvtxQiixw0qJ9ZKHWdffUPfywuGnvnXXeWlZdhndWiaVOsImpYN6Mnc+wUi/hTl2NTMLTY27+nuu7wsYas9OTk+Nj2rp7j9Y03WiwPYfaIYXqxgEzWr6kkhGlMRURCWAr3drbY3bG26BhPfkXb3q+DyBwGkXsAep+mrfKHwBBM8DK84ErLA7MFu4vciQkNRZaC/nDAB5YPlkKKYYX4dNYVU9fS/szvno+NcuJOZJWoeTsViSzBkLhDAss1VrFMENYFglURqfvEmcKz7chjMEsxxSIENA0UxkZU082hR0g6sLRqPjro7VKhYBrZMZTBsoNTmgHoe8Py+iD+eYvO2V2xxVMdiRnmJIkqId/ulUJ+hJ7RKjrWYrcmIZdM7u3tiPR2I0MAiAt3GyWJpKselrvKaoHOpnL6I1HOBklq6e1f7g/cBYXCNo1z5sQUEML2QIg2lp/Cfq/c14Eae7IdFy8cBDqI36uS0AIQiRXX2GIT8XA5HIoEvGG/73yoH/SrYR8hbIJFTEiHHuunawdWDQfdhUe0GbxvlBXU9z2wKtnfoCNelgo8JiOQOZq3k72r2NxxThKMk7Qa8MUwVJl48ZQTruBH8YZqYiKds9hwK6b0Az0dUviihbtheEc4wVodCsuHdQpZ9nlDmo9wM/R8u6VU5F7o8b3rDfRqKpQgTZHkwf4AAAGqSURBVFGOSBGUFJhpAWL0sB8ehc/ioNUeEDboGyvwQ4rUAcKkcyx2RfWEA8GOZsHhJrXXKBseRsA76BTNCbJob1MVz8VlFG5B0IJWVoakHobZyfHTpl19T0rymtVrKju7Yzk2hWUTOCaKZppVNUwW62HBgUOTJTocLLIPzecGoMezLNB3R+RAR5MrPQ9ER1CjfrDRiVeqLs8hX0uRse9scD87VG2FP7RN0e574IEZV02PjYsTsat69ux169Z9+823p3hLIKcQex46Tx1XfX06dtpYBvIfxd/n0NWs0ZbBkBmPE4T9ETnc0y6HAqIzih08ZJc29cVXaburqrt5gbnKblxCDyDw7/tCTQ631u/DHgks1jqczp07drjc7gcfeujUyVNUQmb+j26A+nnbzu5a9p6vtcGaXoBNVOi/4u3KZJlEbmgGPOCyIFmFhUcH1HAg0H4a1uOI9l9UaF4hfkawnmHFWmyH0rF7Vm+W1U/7gwt9kWDZlNmPPV0wc962rdtqag5DOrZs3Vq1twrmR4CFsUBR7IrwpGakFI0H8cyna3IEETDfyH6HAPj/mpPhdDsA/c8AAAAASUVORK5CYII=;" vertex="1" parent="cU3eEYtOXW0r3D3nBDdk-22">
          <mxGeometry x="165" y="122.16" width="32" height="42.84" as="geometry" />
        </mxCell>
        <mxCell id="cU3eEYtOXW0r3D3nBDdk-33" value="" style="group" vertex="1" connectable="0" parent="1">
          <mxGeometry x="-90" y="310" width="204.00297872340428" height="170" as="geometry" />
        </mxCell>
        <mxCell id="cU3eEYtOXW0r3D3nBDdk-24" value="" style="rounded=1;whiteSpace=wrap;html=1;" vertex="1" parent="cU3eEYtOXW0r3D3nBDdk-33">
          <mxGeometry width="200" height="170" as="geometry" />
        </mxCell>
        <mxCell id="cU3eEYtOXW0r3D3nBDdk-25" value="&lt;font style=&quot;font-size: 20px;&quot;&gt;Laura VM&lt;br&gt;IP: 10.43.101.161&lt;br&gt;&lt;/font&gt;" style="text;html=1;strokeColor=none;fillColor=none;align=center;verticalAlign=middle;whiteSpace=wrap;rounded=0;" vertex="1" parent="cU3eEYtOXW0r3D3nBDdk-33">
          <mxGeometry x="4.2582978723404565" y="19.9967441860465" width="195.74468085106383" height="24.41860465116279" as="geometry" />
        </mxCell>
        <mxCell id="cU3eEYtOXW0r3D3nBDdk-31" value="" style="image;aspect=fixed;html=1;points=[];align=center;fontSize=12;image=img/lib/azure2/compute/Azure_Spring_Cloud.svg;" vertex="1" parent="cU3eEYtOXW0r3D3nBDdk-33">
          <mxGeometry x="68.13" y="60" width="68" height="68" as="geometry" />
        </mxCell>
        <mxCell id="cU3eEYtOXW0r3D3nBDdk-32" value="&lt;font style=&quot;font-size: 20px;&quot;&gt;Spring Gateway&lt;br&gt;&lt;/font&gt;" style="text;html=1;strokeColor=none;fillColor=none;align=center;verticalAlign=middle;whiteSpace=wrap;rounded=0;" vertex="1" parent="cU3eEYtOXW0r3D3nBDdk-33">
          <mxGeometry x="8.258297872340457" y="137.9967441860465" width="195.74468085106383" height="24.41860465116279" as="geometry" />
        </mxCell>
        <mxCell id="cU3eEYtOXW0r3D3nBDdk-69" value="" style="shape=image;html=1;verticalAlign=top;verticalLabelPosition=bottom;labelBackgroundColor=#ffffff;imageAspect=0;aspect=fixed;image=https://cdn1.iconfinder.com/data/icons/unicons-line-vol-3/24/docker-128.png" vertex="1" parent="cU3eEYtOXW0r3D3nBDdk-33">
          <mxGeometry x="45" y="71.5" width="45" height="45" as="geometry" />
        </mxCell>
        <mxCell id="cU3eEYtOXW0r3D3nBDdk-34" style="edgeStyle=orthogonalEdgeStyle;rounded=0;orthogonalLoop=1;jettySize=auto;html=1;" edge="1" parent="1">
          <mxGeometry relative="1" as="geometry">
            <mxPoint x="241" y="155" as="sourcePoint" />
            <mxPoint x="20" y="310" as="targetPoint" />
          </mxGeometry>
        </mxCell>
        <mxCell id="cU3eEYtOXW0r3D3nBDdk-36" style="edgeStyle=orthogonalEdgeStyle;rounded=0;orthogonalLoop=1;jettySize=auto;html=1;entryX=1;entryY=0.75;entryDx=0;entryDy=0;" edge="1" parent="1" source="cU3eEYtOXW0r3D3nBDdk-13" target="cU3eEYtOXW0r3D3nBDdk-24">
          <mxGeometry relative="1" as="geometry" />
        </mxCell>
        <mxCell id="cU3eEYtOXW0r3D3nBDdk-37" style="edgeStyle=orthogonalEdgeStyle;rounded=0;orthogonalLoop=1;jettySize=auto;html=1;entryX=0.5;entryY=1;entryDx=0;entryDy=0;" edge="1" parent="1" source="cU3eEYtOXW0r3D3nBDdk-15" target="cU3eEYtOXW0r3D3nBDdk-32">
          <mxGeometry relative="1" as="geometry" />
        </mxCell>
        <mxCell id="cU3eEYtOXW0r3D3nBDdk-38" style="edgeStyle=orthogonalEdgeStyle;rounded=0;orthogonalLoop=1;jettySize=auto;html=1;entryX=0.559;entryY=1.017;entryDx=0;entryDy=0;entryPerimeter=0;" edge="1" parent="1" source="cU3eEYtOXW0r3D3nBDdk-13" target="cU3eEYtOXW0r3D3nBDdk-8">
          <mxGeometry relative="1" as="geometry">
            <Array as="points">
              <mxPoint x="300" y="560" />
              <mxPoint x="769" y="560" />
            </Array>
          </mxGeometry>
        </mxCell>
        <mxCell id="cU3eEYtOXW0r3D3nBDdk-39" style="edgeStyle=orthogonalEdgeStyle;rounded=0;orthogonalLoop=1;jettySize=auto;html=1;entryX=0.324;entryY=0.998;entryDx=0;entryDy=0;entryPerimeter=0;" edge="1" parent="1" source="cU3eEYtOXW0r3D3nBDdk-15" target="cU3eEYtOXW0r3D3nBDdk-8">
          <mxGeometry relative="1" as="geometry" />
        </mxCell>
        <mxCell id="cU3eEYtOXW0r3D3nBDdk-40" style="edgeStyle=orthogonalEdgeStyle;rounded=0;orthogonalLoop=1;jettySize=auto;html=1;entryX=0;entryY=0.5;entryDx=0;entryDy=0;" edge="1" parent="1" source="cU3eEYtOXW0r3D3nBDdk-14" target="cU3eEYtOXW0r3D3nBDdk-7">
          <mxGeometry relative="1" as="geometry" />
        </mxCell>
        <mxCell id="cU3eEYtOXW0r3D3nBDdk-41" style="edgeStyle=orthogonalEdgeStyle;rounded=0;orthogonalLoop=1;jettySize=auto;html=1;entryX=0.429;entryY=-0.017;entryDx=0;entryDy=0;entryPerimeter=0;" edge="1" parent="1" source="cU3eEYtOXW0r3D3nBDdk-16" target="cU3eEYtOXW0r3D3nBDdk-7">
          <mxGeometry relative="1" as="geometry" />
        </mxCell>
      </root>
    </mxGraphModel>
  </diagram>
</mxfile>
